<svg width="145" height="61" viewBox="0 0 145 61" fill="none" xmlns="http://www.w3.org/2000/svg">
<g clip-path="url(#clip0_4_304)">
<path d="M141.25 60.65C141.22 60.57 141.29 60.46 141.33 60.33C141.137 60.43 141.11 60.5367 141.25 60.65Z" fill="white"/>
<path d="M1.00003 7.19C1.18003 6.65 1.36003 6.16 1.58003 5.71C1.89003 5.13 2.25003 4.59 2.61003 4C2.70003 3.91 2.79003 3.78 2.88003 3.73C3.15003 3.46 3.46003 3.15 3.82003 2.97C4.36003 2.66 4.94003 2.3 5.66003 2.34H5.75003C6.60003 2.25 7.32003 2.52 8.00003 3.01C8.27003 3.19 8.54003 3.37 8.85003 3.55C9.57003 4 9.97004 4.72 10.2 5.57C10.51 6.51 10.51 7.55 10.47 8.58C10.47 9.39 10.43 10.24 10.38 11.09C10.38 11.31 10.33 11.49 10.29 11.72C10.2 11.94 9.03003 12.26 8.90003 12.08C8.72003 11.9 8.32003 12.08 8.14003 12.12C7.69003 12.21 7.24003 12.12 6.79003 12.08C6.61003 12.08 6.57003 11.95 6.57003 11.81V10.24C6.53003 9.34 6.53003 8.49 6.53003 7.64V7.24C6.53003 6.84 6.35003 6.57 5.99003 6.43C5.95003 6.47 5.90003 6.47 5.86003 6.47C5.32003 7.14 4.87003 7.82 4.78003 8.72C4.60003 10.47 4.60003 12.22 4.60003 13.97V15.09C4.60003 15.67 4.65003 15.81 5.23003 15.94C5.68003 16.07 6.22003 16.16 6.76003 16.3C8.20003 16.61 9.41003 17.38 10.31 18.55C10.71 19.04 10.89 19.67 11.07 20.3C11.25 21.15 11.43 22.05 11.56 22.9C11.74 24.07 11.78 25.28 11.74 26.49C11.7 27.16 11.65 27.84 11.61 28.56C11.52 29.46 11.39 30.4 11.25 31.3C11.16 31.79 11.07 32.2 10.89 32.6C10.49 33.36 9.95003 33.99 9.23003 34.49C9.01003 34.67 8.74003 34.85 8.51004 34.98C7.79003 35.38 7.03003 35.74 6.18003 35.74C5.51003 35.83 4.79003 35.74 4.20003 35.38C3.53003 35.07 3.03003 34.66 2.58003 34.12C2.54003 34.12 2.49003 34.03 2.44003 33.99C2.22003 33.81 2.31003 33.54 2.08003 33.36C1.90003 33.18 1.86003 32.87 1.72003 32.69C1.63003 32.42 1.54003 32.15 1.50003 31.93C1.41003 31.62 1.28003 31.3 1.19003 30.99C0.970034 30.05 0.740034 29.1 0.470034 28.16C0.470034 27.98 0.250034 26.59 0.250034 26.45C0.120034 25.6 0.160034 24.7 0.290034 23.85C0.290034 23.72 0.380034 23.63 0.470034 23.54C0.690034 23.63 3.66003 23.99 3.88003 24.03C3.93003 24.03 4.02003 23.99 4.06003 23.99C4.24003 24.08 4.24003 24.26 4.19003 24.44C4.15003 24.75 4.10003 25.07 4.06003 25.34C4.06003 25.47 4.15003 25.52 4.15003 25.65C4.15003 25.87 4.60003 28.34 4.78003 28.93V29.29C4.78003 29.29 5.14003 30.5 5.32003 30.95C5.41003 31.08 5.46003 31.17 5.50003 31.26C5.68003 31.75 5.90003 31.8 6.40003 31.57C6.45003 31.53 6.54003 31.44 6.62003 31.44C7.11003 31.13 7.34003 30.72 7.38003 30.14C7.47003 29.38 7.60003 28.66 7.65003 27.89C7.83003 26.59 7.78003 25.2 7.65003 23.89C7.61003 22.99 7.38003 22.09 7.11003 21.24C6.93003 20.66 6.44003 20.34 5.85003 20.16C5.45003 20.07 4.95003 19.98 4.55003 19.89C4.06003 19.76 3.61003 19.67 3.16003 19.58C3.03003 19.53 2.94003 19.45 2.80003 19.4C2.53003 19.22 2.26003 19.04 2.04003 18.86C1.59003 18.64 1.23003 18.05 1.14003 17.6C1.10003 17.47 1.00003 17.38 0.960034 17.24C0.780034 16.7 0.650034 16.21 0.650034 15.62V13.28C0.700034 13.06 0.700034 11.66 0.650034 11.48V10.94C0.700034 10.18 0.740034 9.41 0.830034 8.69C0.830034 8.38 0.870034 7.34 1.01003 7.16L1.00003 7.19Z" fill="#D82121"/>
<path d="M17.48 34.76C17.26 34.72 17.08 34.63 16.85 34.76C16.71 34.85 16.54 34.85 16.4 34.85C15.82 34.81 15.28 34.72 14.74 34.67H14.43C14.25 34.67 14.07 34.67 14.03 34.62C13.89 34.49 13.72 34.31 13.72 34.13V32.33C13.76 32.15 13.72 31.97 13.9 31.88C13.99 31.84 14.04 31.7 14.04 31.61C14.04 30.71 14 29.86 13.95 29.01C13.95 28.2 13.95 27.35 13.9 26.54C13.9 25.06 13.77 23.53 13.63 22.09C13.54 20.83 13.54 19.58 13.45 18.32C13.36 17.11 13.27 15.9 13.18 14.64C13.14 13.25 13.05 11.86 13 10.46C13 9.7 13 8.98 13.04 8.26C13.04 7.63 13.08 7.05 13.13 6.46C13.13 6.28 13.17 6.06 13.35 5.79C14.02 5.41 15.88 5.19 16 5.39C16.8 5.48 16.99 5.81 16.94 5.79C17.07 6.28 17.12 6.73 17.03 7.18C16.99 7.58 16.99 8.03 16.99 8.44C16.95 9.74 17.03 11.13 17.12 12.44C17.17 13.07 17.12 13.65 17.17 14.33C17.21 15.18 17.3 16.04 17.3 16.89C17.34 17.47 17.43 18.1 17.43 18.69C17.47 19.95 17.57 21.2 17.65 22.46C17.78 23.4 17.83 24.35 17.83 25.29C17.88 26.19 17.92 27.13 17.92 28.03C17.96 29.42 18.01 30.77 18.01 32.16C18.01 32.97 18.01 33.78 17.79 34.58C17.75 34.67 17.7 34.76 17.66 34.85C17.57 34.85 17.53 34.81 17.48 34.76Z" fill="#D82121"/>
<path d="M16.27 0C16.27 0.09 16.31 0.22 16.41 0.27C16.59 0.36 16.54 0.54 16.59 0.72V1.08C16.59 1.57 16.59 2.02 16.59 2.52C16.59 2.7 16.41 2.88 16.28 3.01C16.24 3.06 16.06 3.06 15.88 3.06H15.57C15.03 3.1 14.49 3.19 13.91 3.24C13.77 3.24 13.6 3.24 13.46 3.15C13.24 3.02 13.06 3.11 12.83 3.15C12.78 3.19 12.74 3.24 12.65 3.24C12.61 3.15 12.56 3.06 12.52 2.97C12.3 2.16 12.3 1.35 12.3 0.55L16.3 0.01L16.27 0Z" fill="#D82121"/>
<path d="M32.89 15.31C32.8 15.62 32.89 15.94 32.89 16.25C32.93 17.64 32.93 19.08 32.98 20.47C32.98 21.01 32.94 21.59 32.94 22.13C32.94 22.58 32.98 22.98 32.98 23.34C32.98 24.01 32.98 24.6 33.02 25.27C33.02 25.72 33.06 26.21 33.06 26.71V28.55C33.06 29.67 33.06 30.8 33.24 31.92C33.24 32.19 33.24 32.46 33.37 32.68C33.41 32.77 33.37 32.86 33.37 32.95C33.33 33.04 32.88 33.89 32.7 34.03C32.48 33.94 31.04 34.48 31.08 34.57C30.81 34.7 30.72 35.02 30.36 35.06C30.23 34.93 30.09 34.7 29.96 34.52C29.92 34.52 29.92 34.47 29.87 34.47C29.56 34.47 29.51 34.16 29.42 33.98C29.15 33.53 28.93 33.04 28.7 32.59C28.57 32.28 28.43 31.96 28.3 31.65C28.12 31.11 27.76 30.71 27.49 30.21C27.27 29.85 27.09 29.49 26.91 29.13C26.28 27.83 25.79 26.53 25.43 25.13C25.34 24.77 25.16 24.5 25.07 24.14C24.98 23.87 24.94 23.51 24.85 23.2C24.76 22.8 24.67 22.26 24.49 21.85C24.27 21.13 23.95 20.41 23.73 19.69C23.73 19.69 23.6867 19.66 23.6 19.6V19.87C23.69 21.13 23.73 22.34 23.78 23.55C23.82 24.4 23.87 25.3 23.91 26.15C24 27.27 24.09 28.49 24.18 29.61C24.27 30.51 24.27 31.32 24.36 32.12C24.36 32.48 24.32 32.84 24.32 33.2V33.56C24.32 33.78 24.36 33.96 24.23 34.19C24.05 34.15 21.98 34.28 21.8 34.28C21.71 34.28 21.62 34.32 21.58 34.37C21.45 34.5 21.27 34.46 21.13 34.46C20.95 34.46 20.77 34.46 20.64 34.37C20.5 34.33 20.46 34.28 20.42 34.15C20.38 34.06 20.38 33.93 20.38 33.75C20.42 32.85 20.34 32 20.29 31.1C20.2 30.29 20.15 29.39 20.15 28.54C20.06 27.51 19.97 26.52 19.88 25.49C19.84 24.95 19.84 24.41 19.84 23.87C19.79 23.29 19.79 22.61 19.79 21.98C19.61 20.27 19.61 18.57 19.61 16.86V14.66C19.61 14.21 19.7 13.81 19.74 13.4C19.78 13 19.78 12.55 19.78 12.19C19.74 11.38 19.74 10.57 19.69 9.81C19.69 9.54 19.6 9.27 19.51 9C19.33 8.6 19.55 8.24 19.69 7.88C19.73 7.88 19.83 7.84 19.91 7.79C20.67 7.48 21.39 7.3 22.16 7.16C22.34 7.16 22.47 7.12 22.65 7.03C22.87 6.9 23.1 6.94 23.19 7.16C23.46 7.7 23.86 8.1 24.13 8.6C24.35 8.96 24.49 9.32 24.62 9.72C24.93 10.57 25.25 11.34 25.52 12.19C25.7 12.73 25.83 13.27 26.01 13.81C26.14 14.35 26.37 14.89 26.5 15.43C26.59 15.7 26.64 15.97 26.77 16.28C26.77 16.41 26.9 16.59 26.95 16.73C27.04 17.04 27.13 17.36 27.22 17.63C27.31 17.9 27.36 18.12 27.44 18.35C27.62 18.75 27.8 19.2 27.93 19.56C28.11 20.1 28.24 20.64 28.38 21.13C28.56 21.67 28.65 22.21 28.78 22.75C28.82 22.84 28.91 22.97 28.96 23.06V19.56C28.96 19.02 28.92 18.44 28.92 17.85V12.01C28.96 11.25 28.88 10.48 28.83 9.72C28.83 9.14 28.79 8.55 28.74 7.97C28.74 7.52 28.7 7.03 28.65 6.53V6.08C29.28 5.95 32.33 5.72 32.38 5.72C32.56 5.9 32.6 6.21 32.69 6.48C32.78 7.15 32.83 7.83 32.74 8.5C32.69 8.77 32.74 8.99 32.74 9.26C32.74 9.44 32.69 9.57 32.74 9.75C32.78 10.2 32.69 10.6 32.87 11.05V15.27L32.89 15.31Z" fill="#D82121"/>
<path d="M50.35 35.21C50.22 35.34 50.04 35.12 49.99 35.34C49.81 35.3 49.72 35.25 49.59 35.21C49.5 35.21 49.45 35.21 49.41 35.17C49.28 34.9 49.05 35.04 48.83 35.04C48.52 35.04 48.2 35.08 47.84 34.86C47.53 34.68 47.48 34.73 47.17 34.99C46.77 34.9 46.68 34.5 46.63 34.18C46.58 33.78 46.54 33.37 46.58 32.97C46.67 32.57 46.85 32.21 46.94 31.8C46.99 31.75 47.03 31.67 47.03 31.62C47.12 31.13 47.16 30.63 47.21 30.14C47.39 26.95 47.35 23.81 47.35 20.62C47.35 19.14 47.3 17.66 47.35 16.17C47.35 15.77 47.26 15.36 47.3 14.91V12.4C47.3 11.14 47.26 9.84 47.3 8.54C47.3 8.36 47.12 8.27 47.03 8.09C47.16 7.87 47.3 7.6 47.48 7.37C47.52 7.24 47.66 7.19 47.75 7.28C47.84 7.32 48.38 7.24001 48.51 7.01C48.55 6.96 50.35 6.56 50.67 6.38C50.89 6.56 51.07 6.83 51.3 7.05C51.97 8.04 52.47 9.12 52.87 10.24C53 10.55 53.09 10.91 53.23 11.23C53.5 12.04 53.9 12.76 54.31 13.48C54.49 13.88 54.71 14.24 54.94 14.65C54.9667 14.71 54.9967 14.77 55.03 14.83C55.21 14.56 55.57 14.29 55.61 13.98C55.74 13.49 56.1 13.13 56.33 12.77C56.87 11.83 57.41 10.88 57.95 9.9C58.49 9 59.21 8.15 59.84 7.3C59.98 7.08 60.15 6.9 60.29 6.67C60.47 6.49 60.74 6.31 60.96 6.13C61.01 6.31 63.12 7.12 63.34 6.98C63.52 7.43 63.83 7.83 63.83 8.28C63.83 8.46 63.88 8.55 63.88 8.68001C63.92 8.86001 64.01 9.04 63.88 9.26C63.83 9.3 63.83 9.35 63.83 9.44V11.33C63.83 11.73 63.79 12.14 63.83 12.59C63.83 13.26 63.83 13.98 63.88 14.66C63.92 15.47 63.97 16.28 63.92 17.09C63.92 18.26 64.1 19.42 64.14 20.59C64.18 22.25 64.18 23.87 64.23 25.49C64.23 25.98 64.27 26.43 64.32 26.93V27.51C64.28 29.49 64.28 31.37 64.18 33.3C64.18 33.93 64.05 34.51 63.78 35.05H63.47L61.18 34.65C60.87 34.56 60.55 34.52 60.19 34.65C60.06 34.29 59.83 33.98 59.88 33.53C59.88 33.35 59.88 33.17 59.84 32.99C59.84 32.77 59.8 32.59 59.93 32.36C60.06 32.18 60.02 32 60.06 31.78C60.06 31.6 60.06 31.42 60.33 31.47V29.13C60.29 27.24 60.24 25.36 60.24 23.43C60.24 22.53 60.24 21.68 60.15 20.78C60.06 19.48 59.97 18.22 59.97 16.92C60.01 16.47 59.93 16.02 59.93 15.53V14.59C59.84 14.68 59.75 14.77 59.71 14.77C59.17 15.71 58.59 16.61 58.14 17.64H58.09C57.78 17.91 57.82 18.36 57.64 18.63C57.42 18.94 57.28 19.3 57.15 19.62C57.06 19.8 57.06 19.98 57.01 20.16C56.97 20.25 56.92 20.29 56.88 20.34C56.7 20.7 56.48 20.97 56.48 21.37C55.94 21.95 54.19 22.13 54.05 22.27C53.65 22.14 53.42 21.82 53.15 21.46C52.7 20.74 52.43 19.98 52.16 19.12C51.98 18.45 51.8 17.73 51.58 17.05C51.54 16.87 51.45 16.74 51.36 16.56C51.36 16.65 51.32 16.74 51.32 16.83C51.36 18.13 51.36 19.43 51.36 20.69V25.54C51.36 26.03 51.4 26.53 51.36 27.02C51.36 27.6 51.27 28.19 51.27 28.77V29.4C51.23 29.94 51.27 30.43 51.18 30.97C51.09 31.46 51.09 32 51.09 32.54C51.09 33.17 51.09 33.8 50.91 34.38C50.82 34.65 50.73 34.87 50.69 35.05C50.6 35.23 50.57 35.27 50.4 35.23H50.38L50.35 35.21Z" fill="#D82121"/>
<path d="M74.96 4.45001C74.96 4.45001 75.09 4.54001 75.09 4.63001C75.36 4.67001 76.3 4.45001 76.48 4.32001C76.66 4.50001 76.88 4.37001 77.11 4.41001C77.24 4.41001 77.42 4.45001 77.6 4.50001C77.64 4.50001 77.78 4.54001 77.82 4.54001C78.13 4.50001 78.45 4.58001 78.76 4.58001C78.8 4.58001 78.85 4.67001 78.94 4.76001C79.07 4.67001 79.57 5.93001 79.61 6.33001C79.61 6.87001 79.74 7.41001 79.83 7.95001C79.87 8.53001 79.97 9.12001 80.01 9.70001C80.1 10.24 80.1 10.73 80.19 11.27C80.28 11.9 80.33 12.57 80.46 13.2C80.64 14.73 80.77 16.3 81 17.83C81.09 18.68 81.22 19.58 81.36 20.43C81.45 21.19 81.63 22 81.67 22.81C81.71 23.53 81.81 24.25 81.85 24.97C81.89 25.78 81.94 26.59 81.98 27.35C82.02 27.71 82.07 28.11 82.16 28.52C82.25 28.97 82.25 29.46 82.34 29.91C82.38 30.22 82.48 30.54 82.52 30.85C82.61 31.61 82.7 32.33 82.65 33.1C82.65 33.73 82.74 34.31 82.74 34.94C82.78 35.52 82.78 36.11 82.65 36.69C82.52 37.32 82.2 37.77 81.75 38.31C81.75 38.22 79.55 38.27 79.5 38.4C78.83 37.91 78.24 37.14 78.06 36.78C78.1 36.65 78.2 36.24 78.2 36.15C78.16 36.02 78.2 35.88 78.42 35.84C78.51 35.84 78.78 35.21 78.78 35.03C78.74 34.63 78.74 34.22 78.69 33.82C78.69 32.74 78.65 31.66 78.47 30.59C78.38 30.14 78.29 29.65 78.29 29.2C78.11 28.21 78.02 27.13 77.93 26.1C77.84 25.34 77.8 24.62 77.75 23.85C77.75 23.22 77.71 22.64 77.62 22.1C77.58 21.92 77.58 21.83 77.53 21.7C77.35 21.75 76.32 21.79 76.09 21.83C76.05 21.79 73.8 22.77 73.44 22.95C73.22 23.08 72.9 23.26 72.59 23.35C72.37 23.48 72.28 23.62 72.23 23.84C72.1 24.51 71.92 25.23 71.74 25.91C71.47 27.03 71.2 28.11 70.98 29.23C70.8 29.99 70.71 30.8 70.53 31.57C70.4 32.15 70.22 32.69 69.99 33.23C69.72 33.72 69.54 34.22 69.32 34.71C69.28 34.89 69.19 35.07 69.1 35.25C69.06 35.38 68.97 35.43 68.83 35.38C67.93 35.11 67.03 34.84 66.14 34.53C66.05 34.53 65.47 34.26 65.47 34.17C65.38 33.81 65.56 33.45 65.69 33.14C65.91 32.51 66.18 31.97 66.45 31.34C66.58 30.94 66.63 30.53 66.72 30.17C67.03 28.55 67.39 26.94 67.8 25.32C68.29 23.16 68.83 21.01 69.46 18.94C69.82 17.77 70.13 16.65 70.49 15.53C70.58 15.17 70.89 14.41 70.89 14.36C70.89 13.64 71.11 13.01 71.29 12.34C71.6 11.08 71.87 9.83001 72.23 8.61001C72.45 7.76001 72.77 6.95001 73.08 6.14001C73.17 5.87001 73.3 5.65001 73.44 5.38001C73.44 5.25001 73.44 5.11001 73.49 5.02001C73.53 4.84001 73.58 4.66001 73.62 4.53001C73.75 4.31001 73.89 4.35001 74.02 4.57001C74.02 4.57001 74.02 4.61001 74.11 4.70001C74.33 4.65001 74.6 4.52001 74.92 4.43001L74.96 4.45001ZM74.06 17.2C74.06 17.2 73.84 18.05 73.84 18.28C73.84 18.32 73.84 18.41 73.8 18.5C73.84 18.5 74.88 18.14 75.1 18.05C75.41 17.96 76.63 17.87 76.94 17.78C76.76 15.85 76.54 14.01 76.36 12.17H75.46C75.42 12.26 75.37 12.39 75.33 12.48C75.11 13.38 74.93 14.32 74.7 15.22C74.66 15.4 74.07 17.06 74.07 17.2H74.06Z" fill="#D82121"/>
<path d="M85.24 4.89999C85.2 4.67999 85.24 4.58999 85.42 4.49999C85.96 4.27999 86.5 4.18999 87.04 4.18999C88.07 4.14999 89.15 4.09999 90.18 4.18999C90.58 4.22999 90.94 4.36999 91.3 4.49999C91.7 4.67999 92.11 4.76999 92.47 4.98999C92.74 5.11999 93.01 5.20999 93.28 5.34999C93.68 5.56999 93.91 5.88999 94.13 6.28999C94.17 6.32999 94.22 6.41999 94.22 6.46999C94.49 6.73999 94.58 7.04999 94.62 7.36999C94.66 7.54999 94.75 7.72999 94.8 7.90999C94.89 8.57999 95.02 9.29999 95.07 9.97999C95.11 11.06 95.11 12.18 95.16 13.3C95.2 13.97 95.16 14.6 95.11 15.28C95.07 15.55 94.93 15.82 94.89 16.04C94.85 16.17 94.85 16.35 94.8 16.49C94.62 17.07 94.4 17.75 94.22 18.33C94.13 18.51 94.04 18.69 93.91 18.87C93.78 19.05 93.46 19.27 93.55 19.27C93.37 19.54 93.24 19.72 93.1 19.94C92.65 20.48 92.07 20.75 91.48 21.11C91.39 21.15 91.3 21.2 91.21 21.2C90.63 21.29 90 21.38 89.41 21.47C89.19 21.51 88.96 21.56 88.69 21.56C88.69 21.69 88.64 21.74 88.64 21.87C88.78 23.13 88.82 24.43 88.91 25.69C89 26.36 89.05 26.99 89.13 27.67C89.17 28.07 89.13 28.48 89.17 28.88C89.17 29.87 89.21 30.9 89.3 31.89C89.3 32.34 89.39 32.83 89.34 33.24C89.34 33.78 89.34 34.32 89.25 34.86C89.25 35.08 89.12 35.31 88.98 35.58H88.71C88.26 35.49 87.72 35.45 87.27 35.4C87 35.4 86.73 35.31 86.46 35.27C86.19 35.22 85.92 35.18 85.65 35.18C85.52 35.18 85.38 35.14 85.34 34.96C85.34 34.87 85.21 34.87 85.21 34.78C85.17 34.69 85.08 34.56 85.08 34.47C85.17 33.71 85.12 32.99 85.26 32.27C85.3 32 85.26 31.69 85.26 31.42C85.22 30.84 85.17 30.25 85.17 29.67C85.17 28.82 85.13 27.96 85.03 27.11C84.9 26.3 84.9 25.54 84.85 24.77C84.76 23.69 84.67 22.61 84.67 21.49C84.63 20.86 84.67 20.23 84.63 19.6C84.54 18.34 84.45 17.17 84.36 16.01C84.31 15.11 84.14 14.26 84.14 13.36C84.05 12.28 84.01 11.2 83.96 10.13C83.96 9.27999 83.96 8.46999 83.92 7.61999C83.88 7.21999 83.83 6.76999 83.92 6.31999C83.96 6.22999 83.96 6.13999 83.96 5.95999C84.05 5.73999 84.14 5.68999 84.36 5.68999C84.67 5.68999 84.9 5.68999 85.17 5.64999C85.35 5.42999 85.26 5.19999 85.21 4.92999L85.24 4.89999ZM87.93 8.44999C87.93 9.20999 87.93 10.07 87.98 10.87C87.98 11.18 87.93 11.5 88.02 11.86V12.4C88.11 13.3 88.24 14.2 88.29 15.14C88.38 15.81 88.38 16.49 88.43 17.16C88.43 17.25 88.47 17.43 88.47 17.56C88.87 17.52 89.23 17.47 89.59 17.43C89.86 17.38 90.08 17.38 90.26 17.16C90.26 17.12 90.35 17.12 90.44 17.12C90.44 17.03 90.44 16.9 90.49 16.85C90.53 16.72 90.62 16.54 90.67 16.4C90.8 16 90.98 15.68 91.03 15.28C91.12 14.74 91.21 14.25 91.16 13.71C91.16 12.23 91.16 10.66 90.98 9.16999C90.98 8.80999 90.85 8.49999 90.44 8.44999C90.31 8.44999 90.17 8.39999 90.08 8.35999C89.36 7.99999 88.64 8.14 87.92 8.14V8.44999H87.93Z" fill="#D82121"/>
<path d="M98.17 14.73C98.21 13.11 98.44 11.5 98.8 9.91999C98.98 8.88999 99.29 7.89999 99.7 6.86999C99.92 6.37999 100.24 5.92999 100.55 5.42999C101 4.84999 101.49 4.34999 102.03 3.94999C102.21 3.76999 102.39 3.67999 102.66 3.49999C102.62 3.62999 106.25 2.14999 106.84 2.28999C107.65 2.46999 108.28 3.04999 108.86 3.58999C109.31 3.98999 109.76 4.48999 110.07 5.02999C110.47 5.83999 111.01 6.64999 111.28 7.53999C111.5 8.25999 111.68 9.01999 111.68 9.82999C111.68 10.41 111.64 10.95 111.64 11.54C111.64 12.71 111.64 13.88 111.68 15.04V18C111.72 18.85 111.77 19.62 111.82 20.47C111.82 21.5 111.82 22.54 111.78 23.61C111.78 24.37 111.78 25.14 111.73 25.86C111.69 26.62 111.73 27.39 111.6 28.15C111.51 29.09 111.38 29.99 111.11 30.89C110.93 31.61 110.75 32.28 110.3 32.87C110.17 33.41 109.76 33.68 109.49 34.13C109.4 34.26 109.22 34.35 109.04 34.44C108.82 34.57 108.55 34.71 108.32 34.84C107.96 34.97 107.6 35.02 107.24 35.2C106.66 35.38 105.98 35.51 105.35 35.56C104.77 35.56 104.18 35.61 103.64 35.56C102.61 35.38 101.71 35.02 100.95 34.35C100.59 34.04 100.23 33.59 99.96 33.23C99.24 32.2 98.93 31.07 98.75 29.91C98.71 29.73 98.53 28.47 98.44 28.07C98.35 27.67 98.31 27.31 98.26 26.9C98.17 26.05 98.08 25.28 98.04 24.43C98 23.98 98 23.53 97.95 23.08C97.95 22.63 97.91 22.09 97.95 21.6C97.99 20.79 98.08 19.94 98.08 19.13C98.08 18.41 98.08 17.69 98.13 16.97C98.13 16.43 98.13 15.94 98.17 15.44V14.72V14.73ZM101.94 20.79C101.85 22.63 101.94 24.43 102.21 26.22C102.34 27.34 102.52 28.42 102.7 29.5C102.79 30.04 103.01 30.53 103.33 31.03C103.55 31.34 103.87 31.57 104.27 31.57C104.85 31.57 105.44 31.53 105.98 31.44C106.52 31.39 106.88 31.08 107.01 30.59C107.23 30.01 107.41 29.42 107.5 28.79C107.59 28.21 107.72 27.62 107.72 26.99C107.76 26.05 107.76 25.06 107.81 24.07V20.79C107.76 19.53 107.67 18.23 107.63 16.93C107.63 14.91 107.67 12.84 107.72 10.78C107.72 10.33 107.68 9.87999 107.59 9.42999C107.5 8.52999 107.05 7.76999 106.51 7.00999C106.42 6.82999 106.24 6.69999 106.06 6.51999C106.02 6.46999 105.92 6.46999 105.84 6.46999C105.57 6.51999 105.3 6.55999 105.03 6.64999C104.31 6.86999 103.86 7.40999 103.55 8.03999C103.15 8.70999 102.92 9.47999 102.74 10.24C102.61 11 102.43 11.81 102.34 12.57C102.21 13.24 102.16 13.92 102.12 14.55V16.8C102.12 17.07 102.08 17.97 102.08 18.15C102.08 18.33 101.94 20.35 101.94 20.8V20.79Z" fill="#D82121"/>
<path d="M118.34 36.83C118.07 36.87 117.8 36.96 117.53 36.92C116.99 36.92 116.41 36.88 115.82 36.83H115.68C115.55 36.65 115.37 33.69 115.32 33.19C115.32 32.65 115.36 32.11 115.36 31.57C115.36 31.3 115.32 31.08 115.36 30.85C115.36 30.72 115.41 30.54 115.45 30.36C115.31 30.14 115.36 29.82 115.36 29.51C115.36 28.57 115.36 27.58 115.41 26.59C115.41 25.74 115.45 24.84 115.45 23.94C115.45 22.82 115.41 21.74 115.41 20.62C115.41 20.04 115.5 19.41 115.5 18.87C115.5 18.15 115.46 17.52 115.46 16.89C115.42 15.9 115.37 14.96 115.37 14.02V11.33C115.42 10.12 115.42 8.94999 115.42 7.73999C115.42 7.51999 115.37 7.24999 115.37 7.01999C115.37 6.78999 115.42 6.56999 115.46 6.34999C115.5 6.30999 115.64 6.16999 115.73 6.12999C115.95 6.12999 116 5.94999 116.04 5.76999C116.08 5.58999 116.08 5.31999 116.04 5.09999C116.04 4.87999 116.08 4.73999 116.26 4.73999C117.61 4.60999 118.91 4.33999 120.21 4.01999C120.88 3.88999 121.6 3.79999 122.28 3.96999C122.64 4.01999 122.95 4.14999 123.27 4.45999C123.27 4.50999 123.32 4.50999 123.41 4.50999C123.54 4.59999 123.68 4.68999 123.68 4.86999C123.68 4.86999 123.72 4.90999 123.77 4.90999C124.08 5.17999 124.17 5.53999 124.35 5.89999C124.44 6.11999 124.53 6.29999 124.71 6.52999C125.16 7.24999 125.43 8.05999 125.47 8.90999C125.56 9.80999 125.6 10.75 125.69 11.65C125.69 12.01 125.65 12.37 125.65 12.73C125.61 13.45 125.61 14.21 125.61 14.93C125.61 15.02 125.61 15.11 125.57 15.15C125.35 15.82 125.39 16.54 125.3 17.26C125.26 17.98 125.08 18.61 124.72 19.24C124.68 19.42 124.54 19.6 124.36 19.73C124.23 19.77 124.18 19.95 124.09 20.09C124 20.31 123.82 20.49 123.64 20.63C123.51 20.68 123.46 20.76 123.42 20.85C123.82 21.3 124.18 21.79 124.41 22.33C124.63 22.82 124.81 23.36 124.86 23.95C124.9 24.35 124.99 24.76 125.04 25.16C125.08 25.7 125.18 26.33 125.18 26.91C125.18 27.49 125.27 28.12 125.27 28.75C125.36 29.33 125.36 29.96 125.4 30.59C125.4 31.35 125.44 32.12 125.44 32.88C125.44 33.6 125.44 34.36 124.95 35.04H124.73C123.83 34.86 122.93 34.82 122.08 34.5H121.63C121.36 34.5 121.32 34.37 121.32 34.14C121.32 34.05 121.28 33.96 121.32 33.96C121.5 33.42 121.41 32.84 121.41 32.3C121.41 31.49 121.41 30.73 121.37 29.96C121.37 29.65 121.33 29.29 121.33 28.97C121.29 28.39 121.15 27.8 121.2 27.17C121.2 26.41 121.06 25.64 120.98 24.88C120.98 24.75 120.94 24.61 120.94 24.43C120.8 23.71 120.27 23.35 119.55 23.17C119.55 23.26 119.55 23.35 119.51 23.44C119.51 24.79 119.47 26.09 119.42 27.48C119.42 29.37 119.37 31.25 119.37 33.18C119.37 33.94 119.42 34.66 119.46 35.43C119.46 35.74 119.42 36.1 119.42 36.46C119.37 36.59 119.37 36.64 119.37 36.82C119.01 36.82 118.65 36.77 118.38 36.82L118.34 36.83ZM120.5 17.79C121.04 17.66 121.31 17.3 121.31 16.76C121.35 16.31 121.35 15.82 121.49 15.32C121.54 14.78 121.63 14.29 121.67 13.75C121.71 12.4 121.71 11.06 121.54 9.70999C121.49 9.03999 121.27 8.44999 120.87 7.95999C120.38 8.08999 119.88 8.17999 119.39 8.26999C119.43 11.55 119.43 14.74 119.52 18.06C119.88 17.97 120.19 17.88 120.51 17.79H120.5Z" fill="#D82121"/>
<path d="M139.89 5.97C139.8 6.28 139.76 6.6 139.71 6.87C139.67 7.09 139.62 7.32 139.71 7.5C139.89 7.95 139.57 8.13 139.22 8.13C138.95 8.13 138.68 8.13 138.46 8.17C137.88 8.26 137.34 8.26 136.75 8.35C136.53 8.39 136.35 8.39 136.08 8.39C135.99 8.44 135.9 8.44 135.9 8.57V8.75C135.9 10.19 135.9 11.58 135.94 12.97C135.94 13.46 135.98 13.87 135.98 14.32V25.01C135.98 25.91 135.98 26.76 135.89 27.66C135.85 28.74 135.76 29.82 135.67 30.85C135.62 31.61 135.58 32.33 135.45 33.05C135.45 33.5 135.32 33.95 135.18 34.35C135.09 34.66 134.91 34.89 134.73 35.2C134.46 34.93 134.19 35.02 133.92 34.84C133.7 34.71 133.38 34.75 133.11 34.66C132.75 34.57 132.39 34.39 132.03 34.3C131.85 34.21 131.67 34.17 131.49 34.12C131.4 34.08 131.27 33.99 131.13 33.94C131.17 33.76 131.17 33.63 131.22 33.54C131.53 32.78 131.58 31.97 131.67 31.16C131.72 30.49 131.76 29.81 131.81 29.14C131.85 27.79 131.94 26.4 131.99 25.05C131.99 24.11 131.95 23.16 131.99 22.22C131.99 19.97 132.03 17.77 132.03 15.57C132.03 14.85 131.94 14.09 131.9 13.37V8.92C131.5 8.88 131.14 8.92 130.78 8.96C130.24 8.96 129.66 8.96 129.16 8.65C129.16 8.65 129.13 8.63334 129.07 8.6C128.77 8.45334 128.637 8.21334 128.67 7.88C128.71 7.79 128.71 7.7 128.67 7.66C128.58 7.44 128.63 7.21 128.67 7.03C128.76 6.81 128.85 6.54 128.98 6.27C128.98 6.18 129.07 6.09 129.07 6C129.16 5.64 129.25 5.28 129.34 4.92C129.38 4.74 129.47 4.7 129.65 4.74C130.95 5.05 132.3 4.92 133.6 4.74C134.59 4.65 135.58 4.47 136.56 4.38C137.01 4.29 137.41 4.29 137.86 4.2C138.22 4.16 138.58 4.16 138.89 4.16C139.2 4.16 139.47 4.25 139.74 4.29V5.01C139.7 5.14 139.52 5.28 139.38 5.41C139.47 5.63 139.56 5.9 139.87 5.95L139.89 5.97Z" fill="#D82121"/>
<path d="M118.31 39.67C118.44 39.65 118.62 39.61 118.74 39.61C121.25 39.65 123.7 39.66 126.22 39.75C126.53 39.76 126.85 39.95 127.09 40.21C129.09 42.32 132.52 46.31 134.36 48.5C135.22 49.52 135.07 51.04 134.05 51.9C132.01 53.61 128.48 55.72 126.44 57.53C126.21 57.73 125.83 57.84 125.51 57.84C123.11 57.78 120.76 57.7 118.35 57.64C118.17 57.64 117.86 57.57 117.66 57.53C120.7 54.59 123.78 51.67 126.87 48.78C124.04 45.73 121.18 42.7 118.32 39.67H118.31Z" fill="#D82121"/>
<path d="M83.62 41.49C83.88 41.49 84.18 41.47 84.43 41.46C86.17 41.44 87.87 41.4 89.6 41.27C91.33 41.15 92.55 41.59 93.8 42.83C96.2 45.19 98.69 47.53 101.17 49.82C101.11 49.91 101.03 50.02 100.96 50.1C98.28 52.95 95.62 55.78 92.91 58.61C92.69 58.83 92.32 58.98 92 59C89.58 59.11 87.21 59.17 84.77 59.24C84.59 59.24 84.21 59.18 84 59.15C86.88 56.1 89.77 53.05 92.66 50C89.65 47.16 86.63 44.32 83.62 41.48V41.49Z" fill="#D82121"/>
<path d="M67.93 42.27C68.04 42.27 68.19 42.24 68.29 42.25C70.59 42.52 72.86 42.58 75.19 42.64C75.47 42.64 75.78 42.85 75.98 43.07C77.59 44.82 79.18 46.5 80.85 48.23C81.78 49.19 82.77 50.25 83.69 51.24C83.63 51.32 83.6 51.39 83.53 51.45C80.61 54.14 77.74 56.84 74.8 59.53C74.61 59.71 74.28 59.79 73.98 59.78C71.34 59.74 68.72 59.8 66.05 59.64C65.86 59.63 65.45 59.52 65.24 59.46C68.72 56.77 71.94 53.82 75.22 50.9C72.52 48.18 70.14 45.4 67.94 42.26L67.93 42.27Z" fill="black"/>
<path d="M51.9 39.32C52.03 39.32 52.22 39.27 52.34 39.28C55 39.59 57.61 39.94 60.23 40.53C60.54 40.6 60.84 40.9 61.02 41.17C62.46 43.27 63.8 45.48 65.14 47.63C65.89 48.83 66.62 49.91 67.47 51.02C67.4 51.08 67.36 51.16 67.28 51.22C64.13 53.61 60.8 55.63 57.47 57.76C57.25 57.9 56.92 57.91 56.67 57.86C54.46 57.41 52.31 57.02 50.04 56.88C49.88 56.87 49.57 56.77 49.39 56.72C52.48 53.92 55.66 51.41 59.21 49.21C57 45.73 54.53 42.48 51.9 39.31V39.32Z" fill="#D82121"/>
<path d="M34.31 40.24C34.43 40.21 34.59 40.15 34.71 40.14C37.33 39.93 39.92 39.65 42.56 39.53C42.88 39.52 43.25 39.71 43.49 39.91C45.38 41.53 47.24 43.16 48.92 44.99C49.85 46.01 50.73 47.07 51.58 48.15C51.51 48.22 51.47 48.28 51.39 48.35C48.25 51.06 45.82 54.2 43.02 57.25C42.84 57.45 42.51 57.55 42.24 57.58C39.84 57.76 37.48 57.9 35.06 58.03C34.88 58.03 34.52 57.98 34.32 57.96C37.27 54.76 40.23 51.58 43.06 48.27C40.17 45.57 37.23 42.91 34.3 40.25L34.31 40.24Z" fill="black"/>
<path d="M18 41.46C18.12 41.43 18.27 41.38 18.39 41.37C20.92 41.21 23.4 41.05 25.94 40.93C26.25 40.92 26.6 41.11 26.83 41.32C28.69 42.95 30.54 44.58 32.36 46.27C33.38 47.21 34.39 48.18 35.38 49.15C35.33 49.23 35.29 49.31 35.23 49.38C32.52 52.35 29.84 55.32 27.12 58.3C26.94 58.5 26.61 58.6 26.33 58.62C23.91 58.8 21.53 58.95 19.09 59.08C18.91 59.09 18.55 59.03 18.35 59.01C21.22 55.85 24.08 52.67 26.95 49.5C23.97 46.82 20.98 44.14 18 41.46Z" fill="#D82121"/>
<path d="M10.83 50.49C7.82003 47.71 4.81003 44.93 1.81003 42.14C1.93003 42.12 2.08003 42.07 2.20003 42.07C4.72003 41.99 7.20003 41.89 9.74003 41.85C10.05 41.85 10.4 42.06 10.64 42.27C12.5 43.97 14.38 45.66 16.24 47.36C17.28 48.31 18.29 49.27 19.32 50.23C19.27 50.31 19.24 50.38 19.17 50.46C16.49 53.41 13.85 56.37 11.1 59.27C10.92 59.46 10.58 59.56 10.31 59.57C7.87003 59.67 5.47003 59.75 3.00003 59.82C2.82003 59.82 2.46003 59.76 2.25003 59.73C5.10003 56.65 7.98003 53.57 10.85 50.49H10.83Z" fill="black"/>
<path d="M103.07 40.46C103.31 40.48 103.54 40.49 103.78 40.53C106.03 40.87 108.3 41.19 110.55 41.52C111.1 41.6 111.46 41.83 111.78 42.27C114.02 45.27 116.26 48.29 118.5 51.3C118.6 51.43 118.66 51.58 118.74 51.72C115.49 54.14 112.27 56.57 108.99 58.97C108.76 59.14 108.38 59.17 108.08 59.13C105.71 58.81 103.37 58.45 101 58.1C100.81 58.07 100.52 57.97 100.33 57.92C103.68 55.44 107.04 52.96 110.39 50.48C107.95 47.14 105.51 43.81 103.07 40.47V40.46Z" fill="black"/>
<path d="M139.08 59.64C136.87 59.4 135.29 57.4 135.55 55.2C136.13 50.37 136.99 43.35 137.58 38.35C137.86 35.95 140.08 34.25 142.47 34.61L142.65 34.64C143.28 34.73 143.86 35.09 144 35.66C145.35 41.41 142.02 52.39 140.73 58.73C140.59 59.41 139.77 59.72 139.08 59.65V59.64Z" fill="#D82121"/>
<path d="M45.19 32.25C45.1 32.07 45.1 31.85 44.92 31.71C44.83 31.62 44.79 31.49 44.74 31.4C44.69 31.13 44.65 30.91 44.52 30.68C44.39 30.37 44.3 30.05 44.25 29.74C44.16 29.38 43.98 29.25 43.62 29.38C43.22 29.51 42.77 29.65 42.27 29.65C41.64 29.6 41.01 29.65 40.38 29.83C40.2 29.83 39.98 29.88 39.71 29.92C39.71 29.65 39.66 29.47 39.66 29.29C39.44 27.72 39.3 26.15 39.21 24.62C39.17 23.18 39.12 21.75 39.12 20.31V15.91C39.3 15.91 39.48 15.87 39.66 15.87C40.42 15.82 41.23 15.78 42 15.74C42.67 15.74 43.35 15.74 44.02 15.61C44.02 15.39 44.06 15.21 44.06 14.98C44.1 14.4 44.15 13.86 44.06 13.32C43.97 12.83 44.02 12.38 44.02 11.88C43.8 11.79 43.57 11.7 43.35 11.75C42.18 11.79 41.06 11.84 39.89 11.88C39.71 11.88 39.49 11.93 39.31 12.06C39.13 12.15 39.04 12.1 38.86 11.97C38.86 11.38 38.85 10.78 38.83 10.18V10.14L38.82 7.99C38.82 7.99 38.84 7.51 38.86 7.02C38.86 7.02 38.86 7 38.86 6.99C38.9 6.87 38.9 6.74 38.86 6.62C38.86 6.55 38.86 6.48 38.86 6.42V6.41C38.86 6.39 38.86 6.38 38.86 6.37C38.89 6.22 38.98 6.15 39.2 6.15C40.19 5.97 41.09 5.84 42.07 5.7C42.7 5.61 43.33 5.48 43.96 5.34C44.23 5.25 44.27 5.16 44.18 4.89C44.05 4.17 43.91 3.5 43.78 2.87C43.78 2.65 43.69 2.51 43.42 2.42C43.64 2.29 43.6 2.2 43.51 2.02C43.47 1.97 43.42 1.89 43.42 1.84C43.42 1.57 43.42 1.53 43.2 1.53C42.71 1.62 42.26 1.66 41.81 1.75C41.63 1.84 41.41 1.84 41.23 1.84C41.05 1.84 40.92 1.84 40.74 1.89C40.2 1.98 39.71 2.02 39.17 2.16C38.67 2.24 38.18 2.35 37.68 2.46C37.59 2.48 37.51 2.5 37.42 2.52C37.42 2.52 37.42 2.52 37.41 2.52C36.46 2.74 35.47 3.02 35.27 3.28C34.9 3.74 35.03 7.28 35.03 7.28L35.01 8.85V9.11V9.58C35 10.06 34.96 10.54 34.99 11.02V12.1L35.05 13.65C35.05 13.77 35.06 13.88 35.1 14.01C35.19 14.23 35.1 14.5 35.14 14.77V15.58C35.18 16.61 35.18 17.65 35.18 18.72V22.72C35.27 24.11 35.27 25.55 35.36 26.94C35.5 28.33 35.67 29.68 35.76 31.07C35.85 31.65 35.89 32.19 35.85 32.73C35.81 32.91 35.85 33.13 35.85 33.27L36.52 33.63C36.48 33.85 36.52 34.03 36.65 34.17C36.83 34.3 36.96 34.17 37.1 34.08C37.14 34.04 37.32 33.99 37.32 34.04C37.63 34.31 37.95 34.26 38.26 34.22C39.25 34.09 40.19 33.91 41.13 33.77C41.44 33.68 41.8 33.68 42.16 33.64C42.7 33.64 43.24 33.64 43.82 33.59C44.49 33.55 44.94 33.23 45.3 32.74C45.21 32.56 45.21 32.43 45.17 32.29L45.19 32.25Z" fill="#D82121"/>
</g>
<defs>
<clipPath id="clip0_4_304">
<rect width="144.16" height="60.65" fill="white" transform="translate(0.160034)"/>
</clipPath>
</defs>
</svg>
