<svg width="18" height="18" viewBox="0 0 18 18" fill="none" xmlns="http://www.w3.org/2000/svg">
<g id="Layer 1">
<path id="Vector" fill-rule="evenodd" clip-rule="evenodd" d="M17.9433 7.15262C17.7665 5.54799 17.097 4.04834 16.0384 2.83293C16.0092 2.83397 15.9799 2.83467 15.9511 2.83571C15.9511 2.83571 15.9993 2.82176 15.9863 2.77468C15.8373 2.60693 15.681 2.44476 15.5175 2.28852C15.3795 2.3199 15.3517 2.28921 15.3224 2.10856C14.9435 1.76957 14.5297 1.46127 14.0824 1.18993C13.9123 1.08949 13.7405 0.997073 13.5668 0.911976C13.7176 1.0745 13.669 1.0888 13.5855 1.16448C13.5369 1.17843 13.5228 1.12995 13.4735 1.1439C13.5084 1.08182 13.5433 1.02009 13.564 0.910581C12.2835 0.281774 10.9181 0.0582214 9.58375 0.167731C9.41929 0.162499 9.28088 0.0753104 9.11325 0.0383423C8.55329 -0.0652383 7.95459 0.0393886 7.51789 0.414999C7.37174 0.52695 7.28018 0.689819 7.1224 0.752944C6.49131 1.00509 5.88662 1.33013 5.32349 1.7183C5.18262 1.81525 5.22629 1.75108 5.18826 1.7605C5.03154 1.74794 4.92589 1.88745 4.82024 1.9572C4.11589 2.68959 3.48197 3.35222 2.63675 3.94511C2.35501 4.18924 2.17893 4.53799 1.94121 4.79677C1.83168 4.93139 1.72673 5.0695 1.62566 5.21005C-0.0897818 7.60461 -0.56557 10.8557 0.770229 13.6053C0.84665 13.7643 0.928355 13.9199 1.01499 14.0719C1.10198 14.224 1.19389 14.3729 1.29074 14.5183C1.36857 14.6516 1.47423 14.7562 1.47423 14.8957C1.6151 15.7676 1.68553 16.6395 2.31944 17.3021C2.95336 17.9299 3.79858 17.8601 4.53815 17.4416C4.6438 17.3719 4.78467 17.4067 4.88292 17.4402C5.03682 17.4957 5.19882 17.5546 5.36364 17.6094C6.35361 17.9376 7.414 18.0694 8.4825 17.9648C8.48778 17.9644 8.49307 17.9637 8.49835 17.963C8.442 17.9396 8.39058 17.917 8.33424 17.8891C8.26204 17.6753 8.40643 17.6041 8.65753 17.5689C8.70895 17.6708 8.74241 17.7918 8.78361 17.9306C8.96216 17.9069 9.13825 17.8772 9.31258 17.842C9.32314 17.767 9.33265 17.6882 9.34005 17.6045C9.42527 17.6889 9.48479 17.7482 9.51966 17.7974C10.442 17.5853 11.3045 17.2156 12.1103 16.7403C12.4772 16.524 12.8322 16.2858 13.1759 16.0309C13.3105 15.9388 13.4432 15.8464 13.5725 15.761C13.9416 15.5932 14.2937 15.8025 14.6459 15.7327C16.2659 15.4886 16.2659 13.7448 16.6892 12.5698C16.779 12.4321 16.865 12.2922 16.9467 12.1503C17.52 11.1567 17.8947 10.0602 17.9676 8.86954C18.0176 8.292 18.0099 7.71795 17.9433 7.15262ZM14.7044 2.46952C14.928 2.51033 14.9213 2.67006 14.8304 2.90477C14.6702 2.89814 14.4955 2.84339 14.2723 2.80223C14.4881 2.63553 14.572 2.5595 14.7044 2.46952ZM14.7505 3.07252C14.6181 3.1625 14.5343 3.23853 14.3878 3.28003C14.3833 3.14192 14.5042 3.07275 14.7505 3.07252ZM12.6642 1.26945C12.5318 1.35943 12.448 1.43546 12.3015 1.47696C12.297 1.33885 12.4179 1.26968 12.6642 1.26945ZM13.2316 2.67912C12.89 2.77643 12.5684 2.76213 12.261 2.79735C12.3867 2.50021 12.903 2.45801 13.2316 2.67912ZM13.4242 4.4243C13.5679 4.63774 13.4601 5.10019 13.2443 5.38512C13.2083 5.34955 13.1368 5.27875 13.1009 5.24318C13.1009 5.17168 13.0646 5.13646 13.0287 5.10089C13.1009 4.81595 13.1728 4.53102 13.2083 4.14006C13.352 4.28236 13.4242 4.35385 13.4242 4.42465V4.4243ZM12.5258 4.10414C12.5977 4.24608 12.6336 4.42395 12.7058 4.63739C12.454 4.53102 12.3459 4.49545 12.2025 4.4243C12.1303 4.21051 12.2747 4.13937 12.5258 4.10414ZM12.4899 6.98661C12.3702 7.05752 12.2504 6.98626 12.1307 6.77282C12.274 6.84397 12.3821 6.87954 12.4899 6.98661ZM7.61545 17.6041C7.65207 17.4259 7.72321 17.2836 7.68764 17.1769C7.83133 17.3192 7.80726 17.4616 7.61545 17.6041ZM8.05743 15.4673C7.99474 15.4328 7.98065 15.3847 7.98065 15.3847C8.01552 15.3226 8.09898 15.2465 8.14793 15.2326L8.21062 15.2671C8.1268 15.3432 8.09194 15.4052 8.05707 15.4677L8.05743 15.4673ZM8.98787 17.0353C8.77833 17.0426 8.65295 16.9739 8.64591 16.7668C8.8065 16.7734 8.96674 16.78 9.17664 16.7727C9.16959 16.9314 9.14882 17.0426 8.98822 17.0353H8.98787ZM8.3934 16.2621C8.51913 15.965 9.03542 15.9228 9.36399 16.1439C9.02239 16.2412 8.70085 16.2269 8.3934 16.2621ZM8.79629 14.7342C8.66387 14.8242 8.58005 14.9002 8.43355 14.9417C8.42909 14.8036 8.55 14.7345 8.79629 14.7342ZM10.1437 17.2711C10.081 17.2366 10.0669 17.1884 10.0669 17.1884C10.1018 17.1263 10.1853 17.0503 10.2342 17.0364L10.2969 17.0709C10.2131 17.1469 10.1782 17.209 10.1434 17.2714L10.1437 17.2711ZM10.2444 16.9928C9.98629 17.014 9.62989 16.6963 9.48303 16.3713C9.53163 16.3573 9.62918 16.3298 9.67813 16.3158C9.74117 16.35 9.79012 16.3364 9.83873 16.3225C10.0557 16.523 10.2726 16.7235 10.6005 16.9436C10.405 16.999 10.3071 17.0269 10.2444 16.9924V16.9928ZM10.0321 14.4353C10.2208 14.5386 10.3807 14.1794 10.6396 14.5246C10.4156 14.4828 10.2064 14.4901 9.99685 14.4974C9.99685 14.4974 10.0462 14.4835 10.0321 14.4353ZM10.5198 16.7452C10.5154 16.607 10.6363 16.5379 10.8826 16.5376C10.7502 16.6276 10.6663 16.7037 10.5198 16.7452ZM10.9625 16.3699C10.8023 16.3633 10.6276 16.3085 10.4043 16.2674C10.6202 16.1007 10.704 16.0246 10.8364 15.9346C11.0601 15.9754 11.0534 16.1352 10.9625 16.3699ZM11.4362 15.4495C11.576 15.5674 11.6672 15.6982 11.7785 15.7188C11.5832 15.7743 11.4691 15.6846 11.4362 15.4495ZM11.8039 16.4323C11.7553 16.4463 11.7412 16.3978 11.6919 16.4117C11.7271 16.3497 11.762 16.2872 11.7824 16.177C11.9363 16.3423 11.8877 16.3563 11.8035 16.4323H11.8039ZM11.9824 5.21074H11.0495C10.5339 5.21074 9.99403 5.52672 9.99403 6.08577V7.5931H11.9088L11.5897 9.58659H9.99403V14.5215H9.79576C9.80069 14.563 9.76477 14.5864 9.71758 14.6293C9.66898 14.6432 9.65489 14.5947 9.60559 14.6087C9.62108 14.5811 9.63658 14.5532 9.65102 14.5215H7.8338V9.58659H6.01728V7.5931H7.8338V6.11019C7.8338 4.62727 8.7174 3.38745 10.3131 3.48475L11.9824 3.55764V5.21074ZM11.6271 6.13286C11.5549 6.13286 11.4834 6.13285 11.3756 6.16808C11.4471 5.95464 11.483 5.99021 11.5908 6.02614C11.6267 6.06171 11.5908 6.09728 11.6271 6.13286ZM11.3397 5.84827C11.3397 5.84827 11.3034 5.81235 11.2675 5.84827C11.2675 5.63483 10.8724 5.67006 11.052 5.2784C11.1238 5.49254 11.2312 5.6704 11.3393 5.84827H11.3397ZM11.925 2.00323C11.8623 1.96871 11.8482 1.92058 11.8482 1.92058C11.8831 1.8585 11.9666 1.78247 12.0155 1.76852L12.0782 1.80305C11.9944 1.87908 11.9595 1.94116 11.9247 2.00358L11.925 2.00323ZM12.0824 16.3008C12.0824 16.3008 12.1317 16.2869 12.1176 16.2388C12.3064 16.342 12.4663 15.9828 12.7251 16.328C12.5012 16.2862 12.292 16.2935 12.0824 16.3008ZM12.8551 3.57089C12.6456 3.57822 12.5202 3.50951 12.5131 3.30235C12.6737 3.30898 12.834 3.3156 13.0439 3.30828C13.0368 3.46696 13.016 3.57822 12.8555 3.57089H12.8551ZM13.1002 7.16448C13.0284 7.16448 12.921 7.1289 12.8847 7.09298V7.02183C12.9924 7.05776 13.0643 7.05776 13.1361 7.05776C13.1361 7.1289 13.1002 7.16413 13.1002 7.16413V7.16448ZM13.1002 5.59856C13.3517 5.84757 13.495 6.13286 13.675 6.38187C13.3517 6.41674 13.0639 5.98986 13.1002 5.59856ZM13.9986 5.91872C13.9264 5.77643 13.8549 5.63413 13.7468 5.45627C13.8905 5.38547 13.9986 5.34955 14.0701 5.49254C14.1779 5.6704 14.1779 5.81235 13.9986 5.91907V5.91872ZM14.0106 3.80595C13.9479 3.77143 13.9338 3.7233 13.9338 3.7233C13.9687 3.66122 14.0521 3.58519 14.1011 3.57124L14.1638 3.60577C14.08 3.6818 14.0451 3.74388 14.0102 3.8063L14.0106 3.80595ZM14.1113 3.52765C13.8532 3.54892 13.4968 3.2312 13.3499 2.90616C13.3985 2.89221 13.4961 2.86466 13.545 2.85071C13.6081 2.88489 13.657 2.87129 13.7056 2.85734C13.9225 3.05787 14.1395 3.25841 14.4674 3.47847C14.2719 3.53392 14.174 3.56183 14.1113 3.5273V3.52765ZM14.941 5.37361C14.7315 5.38094 14.6061 5.31223 14.5991 5.10507C14.7597 5.1117 14.9199 5.11832 15.1298 5.111C15.1228 5.26968 15.102 5.38094 14.9414 5.37361H14.941ZM14.3466 4.60042C14.4723 4.30328 14.9886 4.26108 15.3172 4.48219C14.9755 4.57915 14.654 4.5652 14.3466 4.60042ZM15.65 2.71191C15.8039 2.87722 15.7553 2.89117 15.6711 2.9672C15.6225 2.98115 15.6084 2.93267 15.5591 2.94662C15.5943 2.88454 15.6292 2.82211 15.6496 2.71191H15.65ZM16.1976 5.33106C15.9394 5.35234 15.583 5.03462 15.4362 4.70958C15.4848 4.69563 15.5823 4.66808 15.6313 4.65413C15.6943 4.68831 15.7433 4.67471 15.7919 4.66076C16.0088 4.86129 16.2258 5.06182 16.5536 5.28189C16.3582 5.33734 16.2603 5.36524 16.1976 5.33072V5.33106ZM16.9157 4.70784C16.7554 4.70121 16.5808 4.64646 16.3575 4.6053C16.5734 4.4386 16.6572 4.36257 16.7896 4.27259C17.0132 4.31339 17.0065 4.47312 16.9157 4.70784Z" fill="#D82121"/>
</g>
</svg>
