<svg width="18" height="18" viewBox="0 0 18 18" fill="#000" xmlns="http://www.w3.org/2000/svg">
<g id="Layer 1">
<path id="Vector" fill-rule="evenodd" clip-rule="evenodd" d="M17.9433 7.1525C17.7665 5.54787 17.097 4.04822 16.0384 2.8328C16.0092 2.83385 15.9799 2.83455 15.9511 2.83559C15.9511 2.83559 15.9993 2.82164 15.9863 2.77456C15.8373 2.60681 15.681 2.44464 15.5175 2.28839C15.3795 2.31978 15.3517 2.28909 15.3224 2.10844C14.9435 1.76945 14.5297 1.46115 14.0824 1.18981C13.9123 1.08937 13.7405 0.996951 13.5668 0.911854C13.7176 1.07437 13.669 1.08867 13.5855 1.16435C13.5369 1.1783 13.5228 1.12983 13.4735 1.14378C13.5084 1.0817 13.5433 1.01997 13.564 0.910459C12.2835 0.281652 10.9181 0.0580993 9.58375 0.167609C9.41929 0.162377 9.28088 0.0751884 9.11325 0.0382202C8.55329 -0.0653603 7.95459 0.0392665 7.51789 0.414877C7.37174 0.526828 7.28018 0.689697 7.1224 0.752822C6.49131 1.00497 5.88662 1.33001 5.32349 1.71818C5.18262 1.81513 5.22629 1.75096 5.18826 1.76038C5.03154 1.74782 4.92589 1.88732 4.82024 1.95708C4.11589 2.68946 3.48197 3.3521 2.63675 3.94499C2.35501 4.18912 2.17893 4.53787 1.94121 4.79665C1.83168 4.93127 1.72673 5.06938 1.62566 5.20992C-0.0897818 7.60448 -0.56557 10.8556 0.770229 13.6052C0.84665 13.7642 0.928355 13.9198 1.01499 14.0718C1.10198 14.2239 1.19389 14.3728 1.29074 14.5182C1.36857 14.6514 1.47423 14.7561 1.47423 14.8956C1.6151 15.7675 1.68553 16.6394 2.31944 17.302C2.95336 17.9298 3.79858 17.86 4.53815 17.4415C4.6438 17.3717 4.78467 17.4066 4.88292 17.4401C5.03682 17.4956 5.19882 17.5545 5.36364 17.6093C6.35361 17.9374 7.414 18.0693 8.4825 17.9646C8.48778 17.9643 8.49307 17.9636 8.49835 17.9629C8.442 17.9395 8.39058 17.9169 8.33424 17.889C8.26204 17.6752 8.40643 17.604 8.65753 17.5688C8.70895 17.6706 8.74241 17.7916 8.78361 17.9305C8.96216 17.9067 9.13825 17.8771 9.31258 17.8419C9.32314 17.7669 9.33265 17.6881 9.34005 17.6044C9.42527 17.6888 9.48479 17.7481 9.51966 17.7972C10.442 17.5852 11.3045 17.2155 12.1103 16.7401C12.4772 16.5239 12.8322 16.2857 13.1759 16.0308C13.3105 15.9387 13.4432 15.8463 13.5725 15.7608C13.9416 15.5931 14.2937 15.8023 14.6459 15.7326C16.2659 15.4885 16.2659 13.7447 16.6892 12.5697C16.779 12.432 16.865 12.2921 16.9467 12.1502C17.52 11.1566 17.8947 10.0601 17.9676 8.86942C18.0176 8.29188 18.0099 7.71783 17.9433 7.1525ZM14.7044 2.4694C14.928 2.5102 14.9213 2.66993 14.8304 2.90465C14.6702 2.89802 14.4955 2.84327 14.2723 2.80211C14.4881 2.63541 14.572 2.55938 14.7044 2.4694ZM14.7505 3.0724C14.6181 3.16238 14.5343 3.23841 14.3878 3.27991C14.3833 3.1418 14.5042 3.07263 14.7505 3.0724ZM12.6642 1.26933C12.5318 1.35931 12.448 1.43534 12.3015 1.47684C12.297 1.33873 12.4179 1.26956 12.6642 1.26933ZM13.2316 2.679C12.89 2.7763 12.5684 2.76201 12.261 2.79723C12.3867 2.50009 12.903 2.45789 13.2316 2.679ZM13.4242 4.42418C13.5679 4.63762 13.4601 5.10007 13.2443 5.385C13.2083 5.34943 13.1368 5.27863 13.1009 5.24306C13.1009 5.17156 13.0646 5.13634 13.0287 5.10076C13.1009 4.81583 13.1728 4.5309 13.2083 4.13994C13.352 4.28223 13.4242 4.35373 13.4242 4.42453V4.42418ZM12.5258 4.10402C12.5977 4.24596 12.6336 4.42383 12.7058 4.63727C12.454 4.5309 12.3459 4.49532 12.2025 4.42418C12.1303 4.21039 12.2747 4.13924 12.5258 4.10402ZM12.4899 6.98649C12.3702 7.0574 12.2504 6.98614 12.1307 6.7727C12.274 6.84385 12.3821 6.87942 12.4899 6.98649ZM7.61545 17.604C7.65207 17.4258 7.72321 17.2835 7.68764 17.1768C7.83133 17.3191 7.80726 17.4615 7.61545 17.604ZM8.05743 15.4672C7.99474 15.4327 7.98065 15.3845 7.98065 15.3845C8.01552 15.3225 8.09898 15.2464 8.14793 15.2325L8.21062 15.267C8.1268 15.343 8.09194 15.4051 8.05707 15.4675L8.05743 15.4672ZM8.98787 17.0352C8.77833 17.0425 8.65295 16.9738 8.64591 16.7667C8.8065 16.7733 8.96674 16.7799 9.17664 16.7726C9.16959 16.9313 9.14882 17.0425 8.98822 17.0352H8.98787ZM8.3934 16.262C8.51913 15.9649 9.03542 15.9227 9.36399 16.1438C9.02239 16.2411 8.70085 16.2268 8.3934 16.262ZM8.79629 14.7341C8.66387 14.8241 8.58005 14.9001 8.43355 14.9416C8.42909 14.8035 8.55 14.7343 8.79629 14.7341ZM10.1437 17.271C10.081 17.2364 10.0669 17.1883 10.0669 17.1883C10.1018 17.1262 10.1853 17.0502 10.2342 17.0362L10.2969 17.0708C10.2131 17.1468 10.1782 17.2089 10.1434 17.2713L10.1437 17.271ZM10.2444 16.9926C9.98629 17.0139 9.62989 16.6962 9.48303 16.3712C9.53163 16.3572 9.62918 16.3297 9.67813 16.3157C9.74117 16.3499 9.79012 16.3363 9.83873 16.3223C10.0557 16.5229 10.2726 16.7234 10.6005 16.9435C10.405 16.9989 10.3071 17.0268 10.2444 16.9923V16.9926ZM10.0321 14.4352C10.2208 14.5385 10.3807 14.1792 10.6396 14.5245C10.4156 14.4827 10.2064 14.49 9.99685 14.4973C9.99685 14.4973 10.0462 14.4833 10.0321 14.4352ZM10.5198 16.745C10.5154 16.6069 10.6363 16.5378 10.8826 16.5375C10.7502 16.6275 10.6663 16.7035 10.5198 16.745ZM10.9625 16.3698C10.8023 16.3631 10.6276 16.3084 10.4043 16.2672C10.6202 16.1005 10.704 16.0245 10.8364 15.9345C11.0601 15.9753 11.0534 16.1351 10.9625 16.3698ZM11.4362 15.4494C11.576 15.5673 11.6672 15.6981 11.7785 15.7186C11.5832 15.7742 11.4691 15.6845 11.4362 15.4494ZM11.8039 16.4322C11.7553 16.4461 11.7412 16.3977 11.6919 16.4116C11.7271 16.3495 11.762 16.2871 11.7824 16.1769C11.9363 16.3422 11.8877 16.3562 11.8035 16.4322H11.8039ZM11.9824 5.21062H11.0495C10.5339 5.21062 9.99403 5.52659 9.99403 6.08565V7.59297H11.9088L11.5897 9.58646H9.99403V14.5214H9.79576C9.80069 14.5629 9.76477 14.5862 9.71758 14.6291C9.66898 14.6431 9.65489 14.5946 9.60559 14.6086C9.62108 14.581 9.63658 14.5531 9.65102 14.5214H7.8338V9.58646H6.01728V7.59297H7.8338V6.11006C7.8338 4.62715 8.7174 3.38733 10.3131 3.48463L11.9824 3.55752V5.21062ZM11.6271 6.13273C11.5549 6.13273 11.4834 6.13273 11.3756 6.16796C11.4471 5.95452 11.483 5.99009 11.5908 6.02601C11.6267 6.06159 11.5908 6.09716 11.6271 6.13273ZM11.3397 5.84815C11.3397 5.84815 11.3034 5.81223 11.2675 5.84815C11.2675 5.63471 10.8724 5.66993 11.052 5.27828C11.1238 5.49242 11.2312 5.67028 11.3393 5.84815H11.3397ZM11.925 2.00311C11.8623 1.96859 11.8482 1.92046 11.8482 1.92046C11.8831 1.85838 11.9666 1.78235 12.0155 1.7684L12.0782 1.80293C11.9944 1.87895 11.9595 1.94103 11.9247 2.00346L11.925 2.00311ZM12.0824 16.3007C12.0824 16.3007 12.1317 16.2868 12.1176 16.2386C12.3064 16.3419 12.4663 15.9827 12.7251 16.3279C12.5012 16.2861 12.292 16.2934 12.0824 16.3007ZM12.8551 3.57077C12.6456 3.57809 12.5202 3.50939 12.5131 3.30223C12.6737 3.30886 12.834 3.31548 13.0439 3.30816C13.0368 3.46684 13.016 3.57809 12.8555 3.57077H12.8551ZM13.1002 7.16435C13.0284 7.16435 12.921 7.12878 12.8847 7.09286V7.02171C12.9924 7.05763 13.0643 7.05763 13.1361 7.05763C13.1361 7.12878 13.1002 7.164 13.1002 7.164V7.16435ZM13.1002 5.59844C13.3517 5.84745 13.495 6.13273 13.675 6.38174C13.3517 6.41662 13.0639 5.98974 13.1002 5.59844ZM13.9986 5.9186C13.9264 5.7763 13.8549 5.63401 13.7468 5.45615C13.8905 5.38535 13.9986 5.34943 14.0701 5.49242C14.1779 5.67028 14.1779 5.81223 13.9986 5.91895V5.9186ZM14.0106 3.80583C13.9479 3.77131 13.9338 3.72318 13.9338 3.72318C13.9687 3.6611 14.0521 3.58507 14.1011 3.57112L14.1638 3.60565C14.08 3.68168 14.0451 3.74375 14.0102 3.80618L14.0106 3.80583ZM14.1113 3.52752C13.8532 3.5488 13.4968 3.23108 13.3499 2.90604C13.3985 2.89209 13.4961 2.86454 13.545 2.85059C13.6081 2.88477 13.657 2.87117 13.7056 2.85722C13.9225 3.05775 14.1395 3.25829 14.4674 3.47835C14.2719 3.5338 14.174 3.5617 14.1113 3.52718V3.52752ZM14.941 5.37349C14.7315 5.38082 14.6061 5.31211 14.5991 5.10495C14.7597 5.11158 14.9199 5.1182 15.1298 5.11088C15.1228 5.26956 15.102 5.38082 14.9414 5.37349H14.941ZM14.3466 4.6003C14.4723 4.30316 14.9886 4.26096 15.3172 4.48207C14.9755 4.57902 14.654 4.56507 14.3466 4.6003ZM15.65 2.71178C15.8039 2.87709 15.7553 2.89105 15.6711 2.96707C15.6225 2.98102 15.6084 2.93255 15.5591 2.9465C15.5943 2.88442 15.6292 2.82199 15.6496 2.71178H15.65ZM16.1976 5.33094C15.9394 5.35222 15.583 5.0345 15.4362 4.70946C15.4848 4.69551 15.5823 4.66796 15.6313 4.65401C15.6943 4.68819 15.7433 4.67458 15.7919 4.66063C16.0088 4.86117 16.2258 5.0617 16.5536 5.28177C16.3582 5.33722 16.2603 5.36512 16.1976 5.33059V5.33094ZM16.9157 4.70772C16.7554 4.70109 16.5808 4.64633 16.3575 4.60518C16.5734 4.43848 16.6572 4.36245 16.7896 4.27247C17.0132 4.31327 17.0065 4.473 16.9157 4.70772Z" fill="#E9E9E9"/>
</g>
</svg>
