<svg width="18" height="18" viewBox="0 0 18 18" fill="none" xmlns="http://www.w3.org/2000/svg">
<g id="Layer 1">
<g id="Group">
<path id="Vector" fill-rule="evenodd" clip-rule="evenodd" d="M17.4306 7.1525C17.2589 5.54787 16.6085 4.04822 15.5801 2.8328C15.5518 2.83385 15.5234 2.83455 15.4953 2.83559C15.4953 2.83559 15.5422 2.82164 15.5295 2.77456C15.3848 2.60681 15.2329 2.44464 15.0742 2.28839C14.9401 2.31978 14.913 2.28909 14.8846 2.10844C14.5165 1.76945 14.1145 1.46115 13.6801 1.18981C13.5148 1.08937 13.3479 0.996951 13.1795 0.911854C13.326 1.07437 13.2788 1.08867 13.1977 1.16435C13.1505 1.1783 13.1368 1.12983 13.0889 1.14378C13.1228 1.0817 13.1566 1.01997 13.1768 0.910459C11.9329 0.281652 10.6065 0.0580993 9.31025 0.167609C9.15049 0.162377 9.01603 0.0751884 8.85319 0.0382202C8.30923 -0.0653603 7.72764 0.0392665 7.30342 0.414877C7.16144 0.526828 7.07249 0.689697 6.91923 0.752822C6.30616 1.00497 5.71875 1.33001 5.17172 1.71818C5.03487 1.81513 5.07729 1.75096 5.04034 1.76038C4.8881 1.74782 4.78547 1.88732 4.68284 1.95708C3.99861 2.68946 3.38281 3.3521 2.56174 3.94499C2.28805 4.18912 2.11699 4.53787 1.88607 4.79665C1.77967 4.93127 1.67772 5.06938 1.57953 5.20992C-0.0872375 7.60448 -0.549431 10.8556 0.748201 13.6052C0.82244 13.7642 0.90181 13.9198 0.98597 14.0718C1.07047 14.2239 1.15976 14.3728 1.25384 14.5182C1.32945 14.6514 1.43208 14.7561 1.43208 14.8956C1.56893 15.7675 1.63735 16.6394 2.25315 17.302C2.86896 17.9298 3.69003 17.86 4.40846 17.4415C4.5111 17.3717 4.64794 17.4066 4.74339 17.4401C4.89289 17.4956 5.04992 17.5545 5.21037 17.6093C6.17205 17.9374 7.20215 18.0693 8.24012 17.9646C8.24525 17.9643 8.25039 17.9636 8.25552 17.9629C8.20078 17.9395 8.15083 17.9169 8.09609 17.889C8.02596 17.6752 8.16623 17.604 8.41015 17.5688C8.4601 17.6706 8.4926 17.7916 8.53263 17.9305C8.70608 17.9067 8.87714 17.8771 9.04648 17.8419C9.05675 17.7669 9.06598 17.6881 9.07317 17.6044C9.15596 17.6888 9.21378 17.7481 9.24764 17.7972C10.1436 17.5852 10.9815 17.2155 11.7642 16.7401C12.1207 16.5239 12.4656 16.2857 12.7995 16.0308C12.9301 15.9387 13.0591 15.8463 13.1847 15.7608C13.5432 15.5931 13.8853 15.8023 14.2274 15.7326C15.8012 15.4885 15.8012 13.7447 16.2124 12.5697C16.2996 12.432 16.3831 12.2921 16.4625 12.1502C17.0194 11.1566 17.3834 10.0601 17.4542 8.86942C17.5028 8.29188 17.4953 7.71783 17.4306 7.1525ZM14.2842 2.4694C14.5015 2.5102 14.495 2.66993 14.4067 2.90465C14.251 2.89802 14.0814 2.84327 13.8645 2.80211C14.0742 2.63541 14.1556 2.55938 14.2842 2.4694ZM14.329 3.0724C14.2004 3.16238 14.119 3.23841 13.9767 3.27991C13.9723 3.1418 14.0898 3.07263 14.329 3.0724ZM12.3024 1.26933C12.1737 1.35931 12.0923 1.43534 11.95 1.47684C11.9457 1.33873 12.0631 1.26956 12.3024 1.26933ZM12.8535 2.679C12.5217 2.7763 12.2093 2.76201 11.9106 2.79723C12.0328 2.50009 12.5343 2.45789 12.8535 2.679ZM12.6715 3.30781C12.6647 3.46649 12.6445 3.57775 12.4885 3.57042C12.2849 3.57775 12.1631 3.50904 12.1563 3.30188C12.3123 3.30851 12.4679 3.31513 12.6718 3.30781H12.6715ZM11.6725 1.7677L11.7334 1.80223C11.652 1.87826 11.6181 1.94034 11.5843 2.00276C11.5234 1.96824 11.5097 1.92011 11.5097 1.92011C11.5436 1.85803 11.6246 1.782 11.6722 1.76805L11.6725 1.7677ZM7.3975 17.604C7.43308 17.4258 7.50219 17.2835 7.46763 17.1768C7.60721 17.3191 7.58384 17.4615 7.3975 17.604ZM7.82685 15.4672C7.76595 15.4327 7.75227 15.3845 7.75227 15.3845C7.78614 15.3225 7.86722 15.2464 7.91477 15.2325L7.97567 15.267C7.89425 15.343 7.86038 15.4051 7.82651 15.4675L7.82685 15.4672ZM8.73071 17.0352C8.52716 17.0425 8.40536 16.9738 8.39852 16.7667C8.55452 16.7733 8.71019 16.7799 8.91408 16.7726C8.90724 16.9313 8.88706 17.0425 8.73106 17.0352H8.73071ZM8.15323 16.262C8.27536 15.9649 8.7769 15.9227 9.09609 16.1438C8.76424 16.2411 8.45189 16.2268 8.15323 16.262ZM8.5446 14.7341C8.41631 14.8241 8.33455 14.9001 8.19223 14.9416C8.18789 14.8035 8.30535 14.7343 8.5446 14.7341ZM9.85353 17.271C9.79263 17.2364 9.77894 17.1883 9.77894 17.1883C9.81281 17.1262 9.8939 17.0502 9.94145 17.0362L10.0023 17.0708C9.92092 17.1468 9.88705 17.2089 9.85318 17.2713L9.85353 17.271ZM9.95137 16.9926C9.7006 17.0139 9.35438 16.6962 9.21172 16.3712C9.25893 16.3572 9.3537 16.3297 9.40125 16.3157C9.46249 16.3499 9.51004 16.3363 9.55726 16.3223C9.768 16.5229 9.97874 16.7234 10.2972 16.9435C10.1074 16.9989 10.0123 17.0268 9.95137 16.9923V16.9926ZM9.33112 14.6086C9.36533 14.5465 9.3992 14.484 9.41904 14.3738C9.56855 14.5391 9.52133 14.5531 9.43957 14.6291C9.39236 14.6431 9.37867 14.5946 9.33078 14.6086H9.33112ZM9.74508 14.4352C9.92845 14.5385 10.0838 14.1792 10.3352 14.5245C10.1176 14.4827 9.91442 14.49 9.71087 14.4973C9.71087 14.4973 9.75876 14.4833 9.74508 14.4352ZM10.2189 16.745C10.2146 16.6069 10.332 16.5378 10.5713 16.5375C10.443 16.6275 10.3612 16.7035 10.2189 16.745ZM10.6489 16.3698C10.4933 16.3631 10.3236 16.3084 10.1067 16.2672C10.3164 16.1005 10.3978 16.0245 10.5265 15.9345C10.7437 15.9753 10.7372 16.1351 10.6489 16.3698ZM11.1091 15.4494C11.2449 15.5673 11.3335 15.6981 11.4416 15.7186C11.2519 15.7742 11.141 15.6845 11.1091 15.4494ZM11.4662 16.4322C11.419 16.4461 11.4053 16.3977 11.3575 16.4116C11.3917 16.3495 11.4255 16.2871 11.4454 16.1769C11.5949 16.3422 11.5477 16.3562 11.4659 16.4322H11.4662ZM11.7372 16.3007C11.7372 16.3007 11.7851 16.2868 11.7714 16.2386C11.9548 16.3419 12.1101 15.9827 12.3616 16.3279C12.144 16.2861 11.9408 16.2934 11.7372 16.3007ZM13.6544 11.2947C13.6544 12.7765 12.4587 13.9954 11.0051 13.9954H6.47995C5.02632 13.9954 3.83064 12.7765 3.83064 11.2947V6.70574C3.83064 5.22387 5.02632 4.00497 6.47995 4.00497H11.0051C11.066 4.00497 11.1262 4.00776 11.1861 4.01195C11.2189 3.89198 11.2511 3.79223 11.2251 3.71271C11.3869 3.87768 11.4228 3.91534 11.302 4.02276C11.5182 4.04787 11.7269 4.09948 11.9247 4.17517C11.9825 4.14029 12.066 4.11902 12.1676 4.10437C12.1997 4.17028 12.2247 4.24422 12.249 4.32548C12.4303 4.42487 12.5986 4.5452 12.7519 4.6833C12.7844 4.52113 12.8125 4.34536 12.8306 4.13994C12.9702 4.28223 13.0403 4.35373 13.0403 4.42453C13.1262 4.55566 13.1193 4.78061 13.053 5.00067C13.4279 5.46696 13.6541 6.06159 13.6541 6.70574V11.2947H13.6544ZM13.5993 5.91895C13.5295 5.77665 13.4597 5.63436 13.3547 5.4565C13.4943 5.3857 13.5993 5.34978 13.6688 5.49277C13.7735 5.67063 13.7735 5.81257 13.5993 5.91929V5.91895ZM13.6109 3.80618C13.5501 3.77165 13.5364 3.72353 13.5364 3.72353C13.5702 3.66145 13.6513 3.58542 13.6989 3.57147L13.7598 3.606C13.6783 3.68202 13.6445 3.7441 13.6106 3.80653L13.6109 3.80618ZM13.7088 3.52787C13.458 3.54915 13.1118 3.23143 12.9691 2.90639C13.0164 2.89244 13.1111 2.86489 13.1587 2.85094C13.2199 2.88512 13.2675 2.87151 13.3147 2.85756C13.5254 3.0581 13.7362 3.25863 14.0547 3.4787C13.8648 3.53415 13.7697 3.56205 13.7088 3.52752V3.52787ZM14.5148 5.37384C14.3113 5.38116 14.1895 5.31246 14.1826 5.1053C14.3386 5.11192 14.4943 5.11855 14.6982 5.11123C14.6913 5.26991 14.6712 5.38116 14.5152 5.37384H14.5148ZM13.9373 4.60065C14.0595 4.30351 14.561 4.26131 14.8802 4.48242C14.5483 4.57937 14.236 4.56542 13.9373 4.60065ZM15.2035 2.71213C15.353 2.87744 15.3058 2.89139 15.224 2.96742C15.1768 2.98137 15.1631 2.9329 15.1152 2.94685C15.1494 2.88477 15.1833 2.82234 15.2031 2.71213H15.2035ZM15.7355 5.33129C15.4847 5.35257 15.1385 5.03485 14.9958 4.70981C15.043 4.69586 15.1378 4.66831 15.1853 4.65436C15.2466 4.68853 15.2941 4.67493 15.3414 4.66098C15.5521 4.86152 15.7628 5.06205 16.0813 5.28212C15.8915 5.33757 15.7964 5.36547 15.7355 5.33094V5.33129ZM16.433 4.70806C16.2774 4.70144 16.1077 4.64668 15.8908 4.60553C16.1005 4.43882 16.1819 4.3628 16.3106 4.27282C16.5278 4.31362 16.5213 4.47335 16.433 4.70806Z" fill="#E9E9E9"/>
<path id="Vector_2" fill-rule="evenodd" clip-rule="evenodd" d="M8.75472 7.20703H8.73112C7.76978 7.20703 6.97266 8.01963 6.97266 8.99964C6.97266 9.97964 7.76978 10.816 8.73112 10.816H8.75472C9.71606 10.816 10.5132 10.0034 10.5132 8.99964C10.5132 7.99592 9.71606 7.20703 8.75472 7.20703Z" fill="#E9E9E9"/>
<path id="Vector_3" fill-rule="evenodd" clip-rule="evenodd" d="M10.9818 4.86475H6.50388C5.49568 4.86475 4.67529 5.70141 4.67529 6.72885V11.27C4.67529 12.2978 5.49602 13.1341 6.50388 13.1341H10.9818C11.99 13.1341 12.8104 12.2974 12.8104 11.27V6.72885C12.8104 5.70106 11.9897 4.86475 10.9818 4.86475ZM10.7365 5.27732C10.8063 5.49146 10.9106 5.66933 11.0157 5.84719C11.0157 5.84719 10.9804 5.81127 10.9455 5.84719C10.9455 5.63375 10.5617 5.66898 10.7362 5.27732H10.7365ZM8.7543 11.7241H8.73069C7.27706 11.7241 6.08138 10.5052 6.08138 8.99925C6.08138 7.49332 7.27706 6.27442 8.73069 6.27442H8.7543C10.2079 6.27442 11.4272 7.51738 11.4272 8.99925C11.4272 10.4811 10.2079 11.7241 8.7543 11.7241ZM11.3804 6.89625C11.0523 6.89625 10.8176 6.63329 10.8176 6.32255C10.8176 6.01181 11.0519 5.74884 11.3804 5.74884C11.6852 5.74884 11.9431 6.01181 11.9431 6.32255C11.9431 6.63329 11.6852 6.89625 11.3804 6.89625ZM11.784 6.77244C11.9233 6.84359 12.0283 6.87916 12.133 6.98623C12.0167 7.05714 11.9004 6.98588 11.784 6.77244ZM12.5172 7.02145C12.6219 7.05738 12.6917 7.05738 12.7615 7.05738C12.7615 7.12852 12.7266 7.16375 12.7266 7.16375C12.6568 7.16375 12.5524 7.12817 12.5172 7.09225V7.02111V7.02145Z" fill="#E9E9E9"/>
</g>
</g>
</svg>
