<svg width="18" height="18" viewBox="0 0 18 18" fill="none" xmlns="http://www.w3.org/2000/svg">
<g id="Layer 1">
<g id="Group">
<path id="Vector" fill-rule="evenodd" clip-rule="evenodd" d="M17.4306 7.15262C17.2589 5.54799 16.6085 4.04834 15.5801 2.83293C15.5518 2.83397 15.5234 2.83467 15.4953 2.83571C15.4953 2.83571 15.5422 2.82176 15.5295 2.77468C15.3848 2.60693 15.2329 2.44476 15.0742 2.28852C14.9401 2.3199 14.913 2.28921 14.8846 2.10856C14.5165 1.76957 14.1145 1.46127 13.6801 1.18993C13.5148 1.08949 13.3479 0.997073 13.1795 0.911976C13.326 1.0745 13.2788 1.0888 13.1977 1.16448C13.1505 1.17843 13.1368 1.12995 13.0889 1.1439C13.1228 1.08182 13.1566 1.02009 13.1768 0.910581C11.9329 0.281774 10.6065 0.0582214 9.31025 0.167731C9.15049 0.162499 9.01603 0.0753104 8.85319 0.0383423C8.30923 -0.0652383 7.72764 0.0393886 7.30342 0.414999C7.16144 0.52695 7.07249 0.689819 6.91923 0.752944C6.30616 1.00509 5.71875 1.33013 5.17172 1.7183C5.03487 1.81525 5.07729 1.75108 5.04034 1.7605C4.8881 1.74794 4.78547 1.88745 4.68284 1.9572C3.99861 2.68959 3.38281 3.35222 2.56174 3.94511C2.28805 4.18924 2.11699 4.53799 1.88607 4.79677C1.77967 4.93139 1.67772 5.0695 1.57953 5.21005C-0.0872375 7.60461 -0.549431 10.8557 0.748201 13.6053C0.82244 13.7643 0.90181 13.9199 0.98597 14.0719C1.07047 14.224 1.15976 14.3729 1.25384 14.5183C1.32945 14.6516 1.43208 14.7562 1.43208 14.8957C1.56893 15.7676 1.63735 16.6395 2.25315 17.3021C2.86896 17.9299 3.69003 17.8601 4.40846 17.4416C4.5111 17.3719 4.64794 17.4067 4.74339 17.4402C4.89289 17.4957 5.04992 17.5546 5.21037 17.6094C6.17205 17.9376 7.20215 18.0694 8.24012 17.9648C8.24525 17.9644 8.25039 17.9637 8.25552 17.963C8.20078 17.9396 8.15083 17.917 8.09609 17.8891C8.02596 17.6753 8.16623 17.6041 8.41015 17.5689C8.4601 17.6708 8.4926 17.7918 8.53263 17.9306C8.70608 17.9069 8.87714 17.8772 9.04648 17.842C9.05675 17.767 9.06598 17.6882 9.07317 17.6045C9.15596 17.6889 9.21378 17.7482 9.24764 17.7974C10.1436 17.5853 10.9815 17.2156 11.7642 16.7403C12.1207 16.524 12.4656 16.2858 12.7995 16.0309C12.9301 15.9388 13.0591 15.8464 13.1847 15.761C13.5432 15.5932 13.8853 15.8025 14.2274 15.7327C15.8012 15.4886 15.8012 13.7448 16.2124 12.5698C16.2996 12.4321 16.3831 12.2922 16.4625 12.1503C17.0194 11.1567 17.3834 10.0602 17.4542 8.86954C17.5028 8.292 17.4953 7.71795 17.4306 7.15262ZM14.2842 2.46952C14.5015 2.51033 14.495 2.67006 14.4067 2.90477C14.251 2.89814 14.0814 2.84339 13.8645 2.80223C14.0742 2.63553 14.1556 2.5595 14.2842 2.46952ZM14.329 3.07252C14.2004 3.1625 14.119 3.23853 13.9767 3.28003C13.9723 3.14192 14.0898 3.07275 14.329 3.07252ZM12.3024 1.26945C12.1737 1.35943 12.0923 1.43546 11.95 1.47696C11.9457 1.33885 12.0631 1.26968 12.3024 1.26945ZM12.8535 2.67912C12.5217 2.77643 12.2093 2.76213 11.9106 2.79735C12.0328 2.50021 12.5343 2.45801 12.8535 2.67912ZM12.6715 3.30793C12.6647 3.46661 12.6445 3.57787 12.4885 3.57054C12.2849 3.57787 12.1631 3.50916 12.1563 3.302C12.3123 3.30863 12.4679 3.31525 12.6718 3.30793H12.6715ZM11.6725 1.76782L11.7334 1.80235C11.652 1.87838 11.6181 1.94046 11.5843 2.00289C11.5234 1.96836 11.5097 1.92023 11.5097 1.92023C11.5436 1.85815 11.6246 1.78212 11.6722 1.76817L11.6725 1.76782ZM7.3975 17.6041C7.43308 17.4259 7.50219 17.2836 7.46763 17.1769C7.60721 17.3192 7.58384 17.4616 7.3975 17.6041ZM7.82685 15.4673C7.76595 15.4328 7.75227 15.3847 7.75227 15.3847C7.78614 15.3226 7.86722 15.2465 7.91477 15.2326L7.97567 15.2671C7.89425 15.3432 7.86038 15.4052 7.82651 15.4677L7.82685 15.4673ZM8.73071 17.0353C8.52716 17.0426 8.40536 16.9739 8.39852 16.7668C8.55452 16.7734 8.71019 16.78 8.91408 16.7727C8.90724 16.9314 8.88706 17.0426 8.73106 17.0353H8.73071ZM8.15323 16.2621C8.27536 15.965 8.7769 15.9228 9.09609 16.1439C8.76424 16.2412 8.45189 16.2269 8.15323 16.2621ZM8.5446 14.7342C8.41631 14.8242 8.33455 14.9002 8.19223 14.9417C8.18789 14.8036 8.30535 14.7345 8.5446 14.7342ZM9.85353 17.2711C9.79263 17.2366 9.77894 17.1884 9.77894 17.1884C9.81281 17.1263 9.8939 17.0503 9.94145 17.0364L10.0023 17.0709C9.92092 17.1469 9.88705 17.209 9.85318 17.2714L9.85353 17.2711ZM9.95137 16.9928C9.7006 17.014 9.35438 16.6963 9.21172 16.3713C9.25893 16.3573 9.3537 16.3298 9.40125 16.3158C9.46249 16.35 9.51004 16.3364 9.55726 16.3225C9.768 16.523 9.97874 16.7235 10.2972 16.9436C10.1074 16.999 10.0123 17.0269 9.95137 16.9924V16.9928ZM9.33112 14.6087C9.36533 14.5466 9.3992 14.4842 9.41904 14.374C9.56855 14.5393 9.52133 14.5532 9.43957 14.6293C9.39236 14.6432 9.37867 14.5947 9.33078 14.6087H9.33112ZM9.74508 14.4353C9.92845 14.5386 10.0838 14.1794 10.3352 14.5246C10.1176 14.4828 9.91442 14.4901 9.71087 14.4974C9.71087 14.4974 9.75876 14.4835 9.74508 14.4353ZM10.2189 16.7452C10.2146 16.607 10.332 16.5379 10.5713 16.5376C10.443 16.6276 10.3612 16.7037 10.2189 16.7452ZM10.6489 16.3699C10.4933 16.3633 10.3236 16.3085 10.1067 16.2674C10.3164 16.1007 10.3978 16.0246 10.5265 15.9346C10.7437 15.9754 10.7372 16.1352 10.6489 16.3699ZM11.1091 15.4495C11.2449 15.5674 11.3335 15.6982 11.4416 15.7188C11.2519 15.7743 11.141 15.6846 11.1091 15.4495ZM11.4662 16.4323C11.419 16.4463 11.4053 16.3978 11.3575 16.4117C11.3917 16.3497 11.4255 16.2872 11.4454 16.177C11.5949 16.3423 11.5477 16.3563 11.4659 16.4323H11.4662ZM11.7372 16.3008C11.7372 16.3008 11.7851 16.2869 11.7714 16.2388C11.9548 16.342 12.1101 15.9828 12.3616 16.328C12.144 16.2862 11.9408 16.2935 11.7372 16.3008ZM13.6544 11.2948C13.6544 12.7767 12.4587 13.9956 11.0051 13.9956H6.47995C5.02632 13.9956 3.83064 12.7767 3.83064 11.2948V6.70586C3.83064 5.224 5.02632 4.00509 6.47995 4.00509H11.0051C11.066 4.00509 11.1262 4.00788 11.1861 4.01207C11.2189 3.8921 11.2511 3.79235 11.2251 3.71284C11.3869 3.8778 11.4228 3.91546 11.302 4.02288C11.5182 4.04799 11.7269 4.09961 11.9247 4.17529C11.9825 4.14041 12.066 4.11914 12.1676 4.10449C12.1997 4.1704 12.2247 4.24434 12.249 4.3256C12.4303 4.425 12.5986 4.54532 12.7519 4.68342C12.7844 4.52125 12.8125 4.34548 12.8306 4.14006C12.9702 4.28236 13.0403 4.35385 13.0403 4.42465C13.1262 4.55578 13.1193 4.78073 13.053 5.00079C13.4279 5.46708 13.6541 6.06171 13.6541 6.70586V11.2948H13.6544ZM13.5993 5.91907C13.5295 5.77678 13.4597 5.63448 13.3547 5.45662C13.4943 5.38582 13.5993 5.3499 13.6688 5.49289C13.7735 5.67075 13.7735 5.8127 13.5993 5.91942V5.91907ZM13.6109 3.8063C13.5501 3.77178 13.5364 3.72365 13.5364 3.72365C13.5702 3.66157 13.6513 3.58554 13.6989 3.57159L13.7598 3.60612C13.6783 3.68215 13.6445 3.74422 13.6106 3.80665L13.6109 3.8063ZM13.7088 3.528C13.458 3.54927 13.1118 3.23155 12.9691 2.90651C13.0164 2.89256 13.1111 2.86501 13.1587 2.85106C13.2199 2.88524 13.2675 2.87164 13.3147 2.85769C13.5254 3.05822 13.7362 3.25876 14.0547 3.47882C13.8648 3.53427 13.7697 3.56217 13.7088 3.52765V3.528ZM14.5148 5.37396C14.3113 5.38129 14.1895 5.31258 14.1826 5.10542C14.3386 5.11205 14.4943 5.11867 14.6982 5.11135C14.6913 5.27003 14.6712 5.38129 14.5152 5.37396H14.5148ZM13.9373 4.60077C14.0595 4.30363 14.561 4.26143 14.8802 4.48254C14.5483 4.5795 14.236 4.56555 13.9373 4.60077ZM15.2035 2.71226C15.353 2.87757 15.3058 2.89152 15.224 2.96754C15.1768 2.98149 15.1631 2.93302 15.1152 2.94697C15.1494 2.88489 15.1833 2.82246 15.2031 2.71226H15.2035ZM15.7355 5.33141C15.4847 5.35269 15.1385 5.03497 14.9958 4.70993C15.043 4.69598 15.1378 4.66843 15.1853 4.65448C15.2466 4.68866 15.2941 4.67505 15.3414 4.6611C15.5521 4.86164 15.7628 5.06217 16.0813 5.28224C15.8915 5.33769 15.7964 5.36559 15.7355 5.33106V5.33141ZM16.433 4.70819C16.2774 4.70156 16.1077 4.64681 15.8908 4.60565C16.1005 4.43895 16.1819 4.36292 16.3106 4.27294C16.5278 4.31374 16.5213 4.47347 16.433 4.70819Z" fill="#D82121"/>
<path id="Vector_2" fill-rule="evenodd" clip-rule="evenodd" d="M8.75472 7.2074H8.73112C7.76978 7.2074 6.97266 8.02 6.97266 9C6.97266 9.98001 7.76978 10.8163 8.73112 10.8163H8.75472C9.71606 10.8163 10.5132 10.0037 10.5132 9C10.5132 7.99628 9.71606 7.2074 8.75472 7.2074Z" fill="#D82121"/>
<path id="Vector_3" fill-rule="evenodd" clip-rule="evenodd" d="M10.9818 4.86511H6.50388C5.49568 4.86511 4.67529 5.70178 4.67529 6.72921V11.2704C4.67529 12.2982 5.49602 13.1345 6.50388 13.1345H10.9818C11.99 13.1345 12.8104 12.2978 12.8104 11.2704V6.72921C12.8104 5.70143 11.9897 4.86511 10.9818 4.86511ZM10.7365 5.27769C10.8063 5.49183 10.9106 5.66969 11.0157 5.84756C11.0157 5.84756 10.9804 5.81164 10.9455 5.84756C10.9455 5.63412 10.5617 5.66934 10.7362 5.27769H10.7365ZM8.7543 11.7244H8.73069C7.27706 11.7244 6.08138 10.5055 6.08138 8.99962C6.08138 7.49369 7.27706 6.27478 8.73069 6.27478H8.7543C10.2079 6.27478 11.4272 7.51775 11.4272 8.99962C11.4272 10.4815 10.2079 11.7244 8.7543 11.7244ZM11.3804 6.89662C11.0523 6.89662 10.8176 6.63365 10.8176 6.32291C10.8176 6.01217 11.0519 5.74921 11.3804 5.74921C11.6852 5.74921 11.9431 6.01217 11.9431 6.32291C11.9431 6.63365 11.6852 6.89662 11.3804 6.89662ZM11.784 6.77281C11.9233 6.84395 12.0283 6.87953 12.133 6.9866C12.0167 7.05751 11.9004 6.98625 11.784 6.77281ZM12.5172 7.02182C12.6219 7.05774 12.6917 7.05774 12.7615 7.05774C12.7615 7.12889 12.7266 7.16411 12.7266 7.16411C12.6568 7.16411 12.5524 7.12854 12.5172 7.09262V7.02147V7.02182Z" fill="#D82121"/>
</g>
</g>
</svg>
