<svg width="18" height="18" viewBox="0 0 18 18" fill="none" xmlns="http://www.w3.org/2000/svg">
<g id="Layer 1">
<g id="Group">
<path id="Vector" fill-rule="evenodd" clip-rule="evenodd" d="M17.9164 7.1525C17.7446 5.54787 17.0943 4.04822 16.0659 2.8328C16.0375 2.83385 16.0091 2.83455 15.981 2.83559C15.981 2.83559 16.0279 2.82164 16.0152 2.77456C15.8705 2.60681 15.7186 2.44464 15.5599 2.28839C15.4258 2.31978 15.3987 2.28909 15.3703 2.10844C15.0022 1.76945 14.6003 1.46115 14.1658 1.18981C14.0005 1.08937 13.8336 0.996951 13.6653 0.911854C13.8117 1.07437 13.7645 1.08867 13.6834 1.16435C13.6362 1.1783 13.6225 1.12983 13.5746 1.14378C13.6085 1.0817 13.6423 1.01997 13.6625 0.910459C12.4186 0.281652 11.0922 0.0580993 9.79597 0.167609C9.6362 0.162377 9.50175 0.0751884 9.33891 0.0382202C8.79495 -0.0653603 8.21336 0.0392665 7.78914 0.414877C7.64716 0.526828 7.55821 0.689697 7.40494 0.752822C6.79188 1.00497 6.20447 1.33001 5.65743 1.71818C5.52059 1.81513 5.56301 1.75096 5.52606 1.76038C5.37382 1.74782 5.27119 1.88732 5.16856 1.95708C4.48433 2.68946 3.86853 3.3521 3.04746 3.94499C2.77377 4.18912 2.60271 4.53787 2.37179 4.79665C2.26539 4.93127 2.16344 5.06938 2.06525 5.20992C0.39848 7.60448 -0.0637136 10.8556 1.23392 13.6052C1.30816 13.7642 1.38753 13.9198 1.47169 14.0718C1.55619 14.2239 1.64548 14.3728 1.73956 14.5182C1.81517 14.6514 1.9178 14.7561 1.9178 14.8956C2.05465 15.7675 2.12307 16.6394 2.73887 17.302C3.35467 17.9298 4.17574 17.86 4.89418 17.4415C4.99681 17.3717 5.13366 17.4066 5.22911 17.4401C5.37861 17.4956 5.53564 17.5545 5.69609 17.6093C6.65777 17.9374 7.68787 18.0693 8.72584 17.9646C8.73097 17.9643 8.7361 17.9636 8.74124 17.9629C8.6865 17.9395 8.63655 17.9169 8.58181 17.889C8.51168 17.6752 8.65195 17.604 8.89587 17.5688C8.94582 17.6706 8.97832 17.7916 9.01835 17.9305C9.1918 17.9067 9.36285 17.8771 9.5322 17.8419C9.54246 17.7669 9.5517 17.6881 9.55888 17.6044C9.64168 17.6888 9.69949 17.7481 9.73336 17.7972C10.6294 17.5852 11.4672 17.2155 12.2499 16.7401C12.6064 16.5239 12.9513 16.2857 13.2852 16.0308C13.4159 15.9387 13.5448 15.8463 13.6704 15.7608C14.0289 15.5931 14.371 15.8023 14.7132 15.7326C16.2869 15.4885 16.2869 13.7447 16.6981 12.5697C16.7853 12.432 16.8688 12.2921 16.9482 12.1502C17.5051 11.1566 17.8691 10.0601 17.94 8.86942C17.9885 8.29188 17.981 7.71783 17.9164 7.1525ZM14.7699 2.4694C14.9872 2.5102 14.9807 2.66993 14.8924 2.90465C14.7368 2.89802 14.5671 2.84327 14.3502 2.80211C14.5599 2.63541 14.6413 2.55938 14.7699 2.4694ZM14.8148 3.0724C14.6861 3.16238 14.6047 3.23841 14.4624 3.27991C14.4581 3.1418 14.5755 3.07263 14.8148 3.0724ZM12.7881 1.26933C12.6595 1.35931 12.578 1.43534 12.4357 1.47684C12.4314 1.33873 12.5488 1.26956 12.7881 1.26933ZM13.3392 2.679C13.0074 2.7763 12.695 2.76201 12.3964 2.79723C12.5185 2.50009 13.02 2.45789 13.3392 2.679ZM13.1572 3.30781C13.1504 3.46649 13.1302 3.57775 12.9742 3.57042C12.7706 3.57775 12.6488 3.50904 12.642 3.30188C12.798 3.30851 12.9537 3.31513 13.1576 3.30781H13.1572ZM12.1583 1.7677L12.2192 1.80223C12.1377 1.87826 12.1039 1.94034 12.07 2.00276C12.0091 1.96824 11.9954 1.92011 11.9954 1.92011C12.0293 1.85803 12.1104 1.782 12.1579 1.76805L12.1583 1.7677ZM11.7108 3.71237C11.8504 3.85466 11.827 3.99707 11.6406 4.13959C11.6762 3.96138 11.7453 3.81908 11.7108 3.71237ZM11.2222 5.27758C11.292 5.49172 11.3964 5.66958 11.5014 5.84745C11.5014 5.84745 11.4662 5.81153 11.4313 5.84745C11.4313 5.63401 11.0474 5.66924 11.2219 5.27758H11.2222ZM7.88322 17.604C7.9188 17.4258 7.9879 17.2835 7.95335 17.1768C8.09293 17.3191 8.06955 17.4615 7.88322 17.604ZM8.31257 15.4672C8.25167 15.4327 8.23799 15.3845 8.23799 15.3845C8.27186 15.3225 8.35294 15.2464 8.40049 15.2325L8.46139 15.267C8.37997 15.343 8.3461 15.4051 8.31223 15.4675L8.31257 15.4672ZM9.21643 17.0352C9.01287 17.0425 8.89108 16.9738 8.88424 16.7667C9.04024 16.7733 9.1959 16.7799 9.3998 16.7726C9.39296 16.9313 9.37278 17.0425 9.21677 17.0352H9.21643ZM8.63894 16.262C8.76108 15.9649 9.26262 15.9227 9.58181 16.1438C9.24996 16.2411 8.93761 16.2268 8.63894 16.262ZM9.03032 14.7341C8.90203 14.8241 8.82026 14.9001 8.67795 14.9416C8.67361 14.8035 8.79107 14.7343 9.03032 14.7341ZM10.3392 17.271C10.2783 17.2364 10.2647 17.1883 10.2647 17.1883C10.2985 17.1262 10.3796 17.0502 10.4272 17.0362L10.4881 17.0708C10.4066 17.1468 10.3728 17.2089 10.3389 17.2713L10.3392 17.271ZM10.4371 16.9926C10.1863 17.0139 9.8401 16.6962 9.69744 16.3712C9.74465 16.3572 9.83942 16.3297 9.88697 16.3157C9.94821 16.3499 9.99576 16.3363 10.043 16.3223C10.2537 16.5229 10.4645 16.7234 10.783 16.9435C10.5931 16.9989 10.498 17.0268 10.4371 16.9923V16.9926ZM9.81684 14.6086C9.85105 14.5465 9.88492 14.484 9.90476 14.3738C10.0543 14.5391 10.0071 14.5531 9.92529 14.6291C9.87808 14.6431 9.86439 14.5946 9.81649 14.6086H9.81684ZM10.2308 14.4352C10.4142 14.5385 10.5695 14.1792 10.8209 14.5245C10.6034 14.4827 10.4001 14.49 10.1966 14.4973C10.1966 14.4973 10.2445 14.4833 10.2308 14.4352ZM10.7046 16.745C10.7003 16.6069 10.8177 16.5378 11.057 16.5375C10.9287 16.6275 10.8469 16.7035 10.7046 16.745ZM11.1347 16.3698C10.979 16.3631 10.8093 16.3084 10.5924 16.2672C10.8021 16.1005 10.8835 16.0245 11.0122 15.9345C11.2294 15.9753 11.2229 16.1351 11.1347 16.3698ZM11.5948 15.4494C11.7306 15.5673 11.8192 15.6981 11.9273 15.7186C11.7376 15.7742 11.6267 15.6845 11.5948 15.4494ZM11.952 16.4322C11.9048 16.4461 11.8911 16.3977 11.8432 16.4116C11.8774 16.3495 11.9113 16.2871 11.9311 16.1769C12.0806 16.3422 12.0334 16.3562 11.9516 16.4322H11.952ZM12.2229 16.3007C12.2229 16.3007 12.2708 16.2868 12.2571 16.2386C12.4405 16.3419 12.5958 15.9827 12.8473 16.3279C12.6297 16.2861 12.4265 16.2934 12.2229 16.3007ZM13.8449 13.6174C13.0932 13.6167 12.3413 13.6149 11.5897 13.6139C11.498 13.6139 11.4066 13.6163 11.3149 13.6188C11.2496 13.6205 11.2027 13.5989 11.1607 13.5414C10.3505 12.4313 9.53802 11.3229 8.7255 10.2146C8.67589 10.1466 8.62286 10.081 8.56129 10.0008C8.52365 10.0433 8.49457 10.0775 8.46413 10.1106C7.90477 10.7217 7.34576 11.333 6.78538 11.943C6.43095 12.3287 6.07344 12.712 5.71799 13.097C5.57943 13.247 5.44361 13.3994 5.30745 13.5518C5.27598 13.587 5.2469 13.617 5.19353 13.6167C4.97595 13.6149 4.7587 13.6174 4.54112 13.6167C4.51546 13.6167 4.4898 13.6073 4.44807 13.5993C5.70499 12.2321 6.95301 10.8748 8.20343 9.51462C6.95096 7.80746 5.70465 6.10902 4.45833 4.41058C4.46107 4.40151 4.4638 4.39209 4.46654 4.38302C4.50759 4.38302 4.54865 4.38302 4.59004 4.38302C5.43711 4.38302 6.28418 4.38337 7.1316 4.38163C7.2031 4.38163 7.25134 4.4029 7.29513 4.46254C7.72345 5.04845 8.15451 5.63227 8.58455 6.21678C8.94377 6.70504 9.30264 7.1933 9.66186 7.68121C9.69128 7.72132 9.7231 7.75933 9.75868 7.80502C9.78365 7.7827 9.80418 7.7677 9.82129 7.74922C10.4313 7.08519 11.0406 6.42081 11.6506 5.75677C12.007 5.36826 12.3645 4.98079 12.7197 4.59123C12.5486 4.51904 12.4559 4.48416 12.3392 4.42453C12.2691 4.21074 12.409 4.13959 12.6533 4.10437C12.7091 4.21806 12.7429 4.35512 12.7901 4.5145C12.8035 4.49986 12.8172 4.48521 12.8305 4.47056C12.887 4.40848 12.9448 4.37988 13.0293 4.38267C13.1158 4.38546 13.202 4.38581 13.2886 4.38547C13.2992 4.30804 13.3088 4.22678 13.3166 4.13994C13.4302 4.25573 13.4969 4.32443 13.5182 4.38407C13.5421 4.38407 13.566 4.38407 13.5903 4.38407C13.6242 4.38407 13.6581 4.38686 13.7166 4.38965C13.6694 4.44231 13.6222 4.49428 13.5749 4.54659C13.6287 4.78374 13.5274 5.1468 13.3515 5.38535C13.3166 5.34978 13.2472 5.27898 13.2123 5.24341C13.2123 5.17191 13.1771 5.13669 13.1422 5.10111C13.1507 5.06554 13.1596 5.02997 13.1682 4.99439C12.7484 5.45371 12.33 5.90534 11.9157 6.36047C11.3221 7.01299 10.7231 7.66028 10.1234 8.31385C11.4176 10.0758 12.7073 11.8321 14.0084 13.6034C13.9465 13.609 13.8958 13.6177 13.8452 13.6177L13.8449 13.6174ZM13.2123 5.59879C13.4566 5.8478 13.5958 6.13308 13.7706 6.38209C13.4566 6.41697 13.1771 5.99009 13.2123 5.59879ZM13.2469 7.05833C13.2469 7.12948 13.212 7.1647 13.212 7.1647C13.1422 7.1647 13.0378 7.12913 13.0026 7.09321V7.02206C13.1073 7.05798 13.1771 7.05798 13.2469 7.05798V7.05833ZM12.6187 6.98719C12.5024 7.0581 12.3861 6.98684 12.2698 6.7734C12.409 6.84454 12.5141 6.88012 12.6187 6.98719ZM14.085 5.91895C14.0152 5.77665 13.9455 5.63436 13.8404 5.4565C13.98 5.3857 14.085 5.34978 14.1545 5.49277C14.2592 5.67063 14.2592 5.81257 14.085 5.91929V5.91895ZM14.0967 3.80618C14.0358 3.77165 14.0221 3.72353 14.0221 3.72353C14.056 3.66145 14.137 3.58542 14.1846 3.57147L14.2455 3.606C14.1641 3.68202 14.1302 3.7441 14.0963 3.80653L14.0967 3.80618ZM14.1945 3.52787C13.9437 3.54915 13.5975 3.23143 13.4549 2.90639C13.5021 2.89244 13.5968 2.86489 13.6444 2.85094C13.7056 2.88512 13.7532 2.87151 13.8004 2.85756C14.0111 3.0581 14.2219 3.25863 14.5404 3.4787C14.3505 3.53415 14.2554 3.56205 14.1945 3.52752V3.52787ZM15.0005 5.37384C14.797 5.38116 14.6752 5.31246 14.6683 5.1053C14.8243 5.11192 14.98 5.11855 15.1839 5.11123C15.1771 5.26991 15.1569 5.38116 15.0009 5.37384H15.0005ZM14.423 4.60065C14.5452 4.30351 15.0467 4.26131 15.3659 4.48242C15.0341 4.57937 14.7217 4.56542 14.423 4.60065ZM15.6892 2.71213C15.8387 2.87744 15.7915 2.89139 15.7097 2.96742C15.6625 2.98137 15.6488 2.9329 15.6009 2.94685C15.6351 2.88477 15.669 2.82234 15.6889 2.71213H15.6892ZM16.2212 5.33129C15.9704 5.35257 15.6242 5.03485 15.4815 4.70981C15.5287 4.69586 15.6235 4.66831 15.6711 4.65436C15.7323 4.68853 15.7799 4.67493 15.8271 4.66098C16.0378 4.86152 16.2486 5.06205 16.5671 5.28212C16.3772 5.33757 16.2821 5.36547 16.2212 5.33094V5.33129ZM16.9188 4.70806C16.7631 4.70144 16.5934 4.64668 16.3765 4.60553C16.5862 4.43882 16.6676 4.3628 16.7963 4.27282C17.0135 4.31362 17.007 4.47335 16.9188 4.70806Z" fill="#E9E9E9"/>
<path id="Vector_2" fill-rule="evenodd" clip-rule="evenodd" d="M7.02764 5.08504C6.97632 5.01459 6.92022 4.98809 6.83606 4.98878C6.48881 4.99227 6.14157 4.99053 5.79433 4.99088C5.75293 4.99088 5.71153 4.99088 5.64722 4.99088C5.6698 5.02645 5.67698 5.039 5.68553 5.05086C5.98283 5.45507 6.27978 5.85963 6.57742 6.26349C7.46076 7.46321 8.34477 8.66258 9.22777 9.86265C9.97357 10.8761 10.7187 11.8903 11.4621 12.9055C11.51 12.9711 11.562 13.0004 11.6434 12.9997C12.0098 12.9959 12.3762 12.998 12.7423 12.9973C12.7703 12.9973 12.7984 12.992 12.8278 12.9889C12.8234 12.9715 12.8234 12.9631 12.8193 12.9575C12.5784 12.6314 12.3369 12.306 12.0967 11.9799C10.8863 10.3356 9.67628 8.69083 8.46622 7.04575C7.9859 6.39287 7.50523 5.74035 7.0273 5.08539L7.02764 5.08504Z" fill="#E9E9E9"/>
</g>
</g>
</svg>
