<svg width="87" height="49" viewBox="0 0 87 49" fill="none" xmlns="http://www.w3.org/2000/svg">
<path id="Union" fill-rule="evenodd" clip-rule="evenodd" d="M68.1705 27.8096C67.9924 28.0297 67.814 28.2494 67.6353 28.4687C68.0073 28.7821 68.5562 29.0301 69.066 29.0934L69.066 28.6288C69.066 28.6288 68.9621 28.3965 68.9621 28.2932C68.7058 28.1427 68.4443 27.9869 68.1705 27.8096ZM45.703 48.8197C46.2547 48.8551 46.8918 48.6358 47.4387 48.3198C54.198 47.5575 60.7894 46.6606 67.4303 45.1487C68.2351 44.968 69.014 44.1936 69.4814 43.4967C72.429 39.2028 75.2153 34.7484 77.9674 30.3486C78.706 29.1677 79.4422 27.9908 80.1784 26.8219L80.1784 26.7961C82.1256 23.7245 84.021 20.9109 86.2279 18.0458C86.1583 17.9766 86.1002 17.9074 86.0432 17.8397C85.9514 17.7305 85.8628 17.6251 85.7346 17.5295C79.0705 12.5028 72.0962 8.1101 65.0644 3.68125C63.4664 2.67475 61.8653 1.66638 60.2643 0.648277C59.6931 0.286905 58.8363 0.261097 58.1872 0.390158C54.0484 1.22421 50.0168 1.96511 45.8903 2.45994C45.562 2.34394 45.2167 2.27785 44.8981 2.25439C40.3783 1.91738 23.2208 1.06123 11.7392 0.488306C7.39175 0.27137 3.85806 0.095041 2.13239 0.002879C1.80206 -0.0153659 1.23824 0.0566614 0.752665 0.118693C0.551267 0.144421 0.363329 0.16843 0.211096 0.183564C1.41076 1.48172 2.61235 2.77861 3.81415 4.07572C10.2592 11.0319 16.7102 17.9945 22.9031 25.1956C17.1523 30.537 11.3253 35.8026 5.49221 41.0737C3.71444 42.6802 1.9361 44.2872 0.159178 45.8971C0.259447 45.922 0.370473 45.9576 0.485331 45.9944C0.727363 46.0721 0.986415 46.1552 1.19771 46.1552C8.02607 46.7231 38.8487 48.51 45.703 48.8197ZM55.8246 10.3795C55.7207 10.0439 55.9544 9.94069 56.2919 9.81163L56.2919 9.78583C56.3719 10.1436 56.4673 10.4402 56.5543 10.7109C56.5803 10.7917 56.6056 10.8702 56.6294 10.9474C56.1621 11.0764 55.9284 10.8441 55.8246 10.3795ZM57.7978 4.00387C57.2612 4.08991 56.9929 3.90063 56.9929 3.43601C57.0645 3.59619 57.2472 3.69501 57.4729 3.81709C57.5746 3.87206 57.6849 3.93174 57.7978 4.00387ZM60.0111 11.3408C60.0956 11.2472 60.1871 11.1458 60.2643 10.9732L60.2903 10.9732L60.3941 11.0764C60.3941 11.2055 60.2643 11.4378 60.1605 11.5411C60.1605 11.5411 60.0306 11.5411 59.9268 11.4378C59.9535 11.4046 59.9819 11.3732 60.0111 11.3408ZM62.2376 8.88239L62.4712 8.88239L62.4712 9.01146C62.3544 9.01146 62.296 9.03727 62.2376 9.06308C62.1791 9.08889 62.1207 9.1147 62.0039 9.1147C61.9 9.1147 61.9 9.01146 61.9 9.01146C62.0039 8.8824 62.2376 8.88239 62.2376 8.88239ZM62.8087 8.08222C63.0424 8.08222 63.2761 7.95316 63.2761 7.95316L63.38 8.08222C63.2966 8.12824 63.243 8.17098 63.1979 8.20693C63.1166 8.27178 63.0629 8.31453 62.9126 8.31453C62.9126 8.31453 62.9126 8.18546 62.8087 8.08222ZM67.44 20.9773C67.2918 20.704 67.1627 20.466 67.0927 20.2398C67.5601 19.9042 67.8976 19.7752 68.1313 20.2398C68.063 20.4774 67.9835 20.6593 67.8706 20.9174C67.8118 21.0518 67.7439 21.2069 67.6639 21.4014C67.5878 21.2499 67.5116 21.1095 67.44 20.9773ZM69.767 14.6385C69.767 14.5095 69.6631 14.4062 69.6631 14.4062C69.6707 14.3893 69.6777 14.3731 69.6844 14.3576C69.7695 14.1607 69.801 14.0876 70.2343 14.303C70.0007 14.4062 69.8708 14.5095 69.767 14.6385ZM74.2847 24.5505C74.1808 24.0858 74.051 23.6212 73.8173 23.1566C74.3742 23.3622 74.3363 23.6648 74.3011 23.9455C74.2789 24.1228 74.2578 24.2915 74.3885 24.4214C74.2847 24.4214 74.2847 24.5505 74.2847 24.5505ZM79.088 17.4679C78.9728 16.9653 78.8542 16.4476 78.8542 15.8775C79.5553 16.4454 79.7889 17.6069 79.2177 18.0716C79.1804 17.8712 79.1345 17.6708 79.088 17.4679Z" fill="black"/>
</svg>
