<svg width="88" height="49" viewBox="0 0 88 49" fill="none" xmlns="http://www.w3.org/2000/svg">
<path id="Union" fill-rule="evenodd" clip-rule="evenodd" d="M41.5701 28.3803C41.514 28.4326 41.4578 28.4849 41.4016 28.5372C44.081 29.0883 48.5478 29.7322 52.9114 30.3612C56.1105 30.8223 59.2541 31.2755 61.5973 31.6782C59.0597 31.2219 55.5891 30.6755 52.1245 30.1301C48.1127 29.4986 44.1087 28.8682 41.5701 28.3803ZM62.4495 31.8291C62.3834 31.7038 62.3296 31.5567 62.2863 31.3904C62.1045 30.8741 62.4421 30.6935 62.9873 30.5128L62.9873 30.487C63.1414 31.0998 63.2955 31.5642 63.4497 32.0218C63.1443 31.9593 62.8098 31.895 62.4495 31.8291ZM63.4528 32.031C63.1473 31.9685 62.8128 31.9032 62.4529 31.8355C62.6643 32.2308 63.0016 32.4048 63.5325 32.268C63.5123 32.2077 63.4921 32.1478 63.4719 32.0879C63.4655 32.0689 63.4592 32.05 63.4528 32.031ZM65.4798 32.681C65.5894 32.5913 65.2793 32.4611 64.6501 32.3C65.1655 32.4415 65.4611 32.5696 65.4798 32.681ZM20.5891 46.413C21.2134 46.433 21.9002 46.1114 22.4677 45.7011C21.8715 46.3311 21.2415 46.948 20.5695 47.5489C20.881 47.6263 42.7877 47.6521 43.0733 47.6521C44.1989 47.7229 45.3207 47.7944 46.4402 47.8658C51.8534 48.211 57.2111 48.5526 62.6757 48.7879C63.4546 48.8137 64.3634 48.3232 64.9865 47.7812C69.8416 43.548 74.6189 39.3406 79.3442 35.0041L79.3183 35.0299C81.9406 32.6036 84.5888 30.0998 87.1591 27.596C87.1195 27.5329 87.0847 27.4698 87.0503 27.4075C86.9721 27.2658 86.8959 27.1278 86.7697 27.0023C83.305 23.2273 79.8592 19.4523 76.4106 15.6742C72.8558 11.7798 69.298 7.88208 65.7135 3.97774C65.2461 3.4873 64.3634 3.20337 63.6624 3.15175C57.3792 2.68712 51.1999 2.32575 44.8648 1.96438C44.5066 1.9446 31.2484 2.10678 24.8416 2.20685C24.5928 1.94514 24.3437 1.68358 24.0942 1.42218C23.6268 0.931751 22.7701 0.673621 22.0431 0.647809C15.708 0.389686 9.45074 0.183187 3.0637 0.00250153C2.69042 -0.0181152 2.00244 0.0930037 1.47602 0.178029C1.34335 0.199456 1.22095 0.219226 1.11643 0.234812C6.71871 6.25236 12.3358 12.2405 17.9565 18.2325C19.7858 20.1827 21.6154 22.1333 23.4451 24.0854C21.4719 25.8922 19.5051 27.7055 17.5384 29.5188C15.5717 31.3322 13.6049 33.1455 11.6317 34.9523C11.7355 35.004 11.8394 35.0556 11.9432 35.133C11.6836 35.1846 11.5019 35.2105 11.3461 35.2105C10.0488 36.403 8.75156 37.5925 7.45534 38.7811C4.96392 41.0655 2.47634 43.3465 -1.99493e-06 45.6386C0.0633442 45.6544 0.130983 45.6722 0.200952 45.6907C0.475118 45.7632 0.785045 45.8451 1.01258 45.8451L1.4496 45.8592C5.02951 45.9747 8.59586 46.0897 12.1702 46.1935C12.1154 45.8818 12.0454 45.5676 11.9742 45.2478C11.8064 44.4946 11.6317 43.71 11.6317 42.8509C12.7038 43.7138 13.0481 45.45 12.2204 46.195C13.2781 46.2257 14.3366 46.2554 15.3964 46.2839C15.5003 46.1807 15.5781 46.0516 15.682 45.8451L15.8637 46.0258C15.8637 46.1032 15.8378 46.2065 15.7858 46.3097C16.4316 46.3201 17.0732 46.3388 17.714 46.3574C18.6705 46.3852 19.6251 46.413 20.5891 46.413ZM12.2204 46.195C12.2062 46.2077 12.1917 46.2202 12.1769 46.2323C12.1747 46.2194 12.1724 46.2065 12.1702 46.1935C12.1869 46.194 12.2036 46.1945 12.2204 46.195ZM10.1777 45.8451C9.4767 46.0258 9.11321 45.6902 8.93147 44.9675L8.9055 44.9417C8.74972 44.4254 9.08725 44.2448 9.63248 44.0641C9.79403 44.7065 9.95558 45.1858 10.1171 45.665C10.1373 45.725 10.1575 45.7849 10.1777 45.8451ZM10.723 42.6702C9.4767 42.4895 8.04871 41.5861 7.86696 40.7085L7.86696 40.6827C7.68522 40.502 7.68522 40.1664 7.68522 39.4437C8.61714 40.2346 9.42967 40.7287 10.2099 41.2033C10.3209 41.2708 10.4313 41.3379 10.5412 41.4054C10.5412 41.5861 10.5412 41.7668 10.723 41.9475L10.723 42.6702ZM9.75907 38.66C9.56988 38.314 9.4013 38.0056 9.29496 37.6884C10.0219 37.1464 10.5412 36.9657 10.9047 37.6884C10.7849 38.0459 10.665 38.3247 10.4931 38.7248C10.4042 38.9315 10.3015 39.1706 10.1777 39.4695C10.0377 39.1696 9.8932 38.9053 9.75907 38.66ZM16.8843 43.7356C16.9235 43.6288 16.9648 43.5162 17.0061 43.3929C17.2485 44.2189 17.1273 44.6922 16.6426 44.8126C16.6426 44.3938 16.7511 44.0983 16.8843 43.7356ZM16.6686 39.1339C16.4869 38.4112 16.3051 37.7142 15.9416 36.9915C16.8302 37.3228 16.7685 37.7793 16.7105 38.2081C16.6737 38.4809 16.6383 38.7424 16.8504 38.9532C16.6686 38.9532 16.6686 39.1339 16.6686 39.1339ZM16.5777 40.3729C16.5323 40.3277 16.4869 40.2826 16.4869 40.1922L16.5128 40.1922C16.5251 40.1638 16.5363 40.1366 16.5471 40.1106C16.6731 39.8058 16.7257 39.6785 17.3956 40.0115C17.0321 40.1922 16.8504 40.3729 16.6686 40.5536L16.6686 40.5536C16.6686 40.4633 16.6232 40.4181 16.5777 40.3729ZM18.7976 42.6702L19.1611 42.6702L19.1611 42.8509C18.9794 42.8509 18.8885 42.8961 18.7976 42.9412C18.7067 42.9864 18.6159 43.0316 18.4341 43.0316C18.2524 43.0316 18.2524 42.8509 18.2524 42.8509C18.4341 42.6702 18.6159 42.6702 18.7976 42.6702ZM20.1686 41.3179C20.2568 41.2815 20.3321 41.2505 20.4074 41.2505C20.5285 41.2505 20.5891 41.3108 20.5891 41.4312C20.4503 41.5002 20.3645 41.5692 20.2912 41.6282C20.1726 41.7236 20.0868 41.7926 19.8621 41.7926C19.8621 41.7926 19.8621 41.6119 19.6804 41.4312C19.8933 41.4312 20.0439 41.3692 20.1686 41.3179ZM37.9028 23.2362C37.7986 22.8785 37.9761 22.7428 38.1423 22.6157C38.1434 22.6149 38.1446 22.614 38.1458 22.6131C38.1314 22.6505 38.1173 22.6873 38.1033 22.7239C38.0379 22.8948 37.975 23.059 37.9028 23.2362ZM70.1871 30.1326C70.2263 30.0259 70.2677 29.9133 70.309 29.79C70.534 30.616 70.4128 31.0892 69.9455 31.2097C69.9455 30.7909 70.054 30.4954 70.1871 30.1326ZM69.7638 41.2765C69.5041 41.2765 69.2705 41.2765 68.881 41.4055L68.881 41.1474C69.0108 41.0184 69.3743 40.8893 69.6339 40.8893C69.6339 40.8893 69.7638 41.0184 69.7638 41.2765ZM63.4546 45.5355C63.0652 46.1808 62.7017 46.8003 62.4421 47.5489C62.0604 46.695 62.4288 46.4127 62.7717 46.15C62.9885 45.9838 63.195 45.8255 63.195 45.5355C63.3248 45.6646 63.4546 45.5355 63.4546 45.5355ZM62.9354 41.7927C62.7017 41.5346 62.3123 41.4055 62.3123 41.4055L62.3123 41.1474C62.4519 41.197 62.557 41.2085 62.6483 41.2185C62.7946 41.2345 62.9053 41.2466 63.0652 41.4055C63.0652 41.4055 62.9354 41.5346 62.9354 41.7927ZM64.248 44.949C63.9505 45.0609 63.8216 45.1093 63.5845 44.4256L63.5845 44.3998C63.9739 44.5288 64.2076 44.5288 64.4672 44.5288C64.4023 44.5934 64.4023 44.6579 64.4023 44.7224C64.4023 44.787 64.4023 44.8515 64.3374 44.916C64.3059 44.9272 64.2762 44.9384 64.248 44.949ZM64.9605 41.8185C64.7269 41.8185 64.4672 41.5604 64.4672 41.5604L64.2076 41.3023L64.3374 41.1732C64.4557 41.304 64.5474 41.3354 64.6429 41.3681C64.7359 41.3999 64.8324 41.433 64.9605 41.5604C65.0903 41.6895 64.9605 41.8185 64.9605 41.8185ZM65.2981 21.6592C64.4672 21.7796 64.0518 21.4871 64.0518 20.7815C64.1745 21.0081 64.4511 21.1641 64.7857 21.3527C64.9466 21.4435 65.121 21.5418 65.2981 21.6592ZM66.5897 42.1316C66.4763 42.1864 66.3578 42.2435 66.2327 42.309C66.6655 41.569 67.0895 41.3195 67.5049 41.5604C67.2143 41.8301 66.9236 41.9705 66.5897 42.1316ZM68.881 33.1972C68.881 33.1972 68.6993 33.1972 68.5175 33.0166C68.6993 32.8617 68.881 32.681 69.0628 32.3196L69.2445 32.5003C69.2445 32.6552 69.0628 33.0166 68.881 33.1972ZM69.9455 25.5567C69.7637 24.8598 69.582 24.1629 69.2185 23.4402L69.2445 23.4144C70.1137 23.7444 70.0498 24.1987 69.9897 24.6259C69.951 24.9006 69.9139 25.164 70.1272 25.3761C69.9455 25.3761 69.9455 25.5568 69.9455 25.5568L69.9455 25.5567ZM69.8546 26.8216C69.8092 26.7764 69.7638 26.7313 69.7638 26.6409C69.7801 26.6084 69.795 26.5773 69.8091 26.5479C69.9512 26.2514 70.0087 26.1314 70.6465 26.4602C70.309 26.6409 70.1272 26.8216 69.9455 27.0023C69.9455 26.912 69.9001 26.8668 69.8546 26.8216ZM72.0745 29.1189L72.438 29.1189L72.438 29.2996C72.2562 29.2996 72.1654 29.3448 72.0745 29.3899C71.9836 29.4351 71.8928 29.4803 71.711 29.4803C71.5293 29.4803 71.5293 29.2996 71.5293 29.2996C71.711 29.1189 71.8928 29.1189 72.0745 29.1189ZM73.4455 27.7665C73.5337 27.7302 73.6089 27.6992 73.6842 27.6992C73.8054 27.6992 73.866 27.7595 73.866 27.8799C73.7271 27.9489 73.6413 28.0179 73.568 28.0769C73.4495 28.1723 73.3636 28.2413 73.139 28.2413C73.139 28.2413 73.139 28.0606 72.9573 27.8799C73.1702 27.8799 73.3207 27.8179 73.4455 27.7665Z" fill="#D82121"/>
</svg>
