<svg width="19" height="18" viewBox="0 0 19 18" fill="none" xmlns="http://www.w3.org/2000/svg">
<g id="Layer 1">
<g id="Group">
<path id="Vector" fill-rule="evenodd" clip-rule="evenodd" d="M11.7552 5.40429C11.8208 5.56437 11.9036 5.70596 11.9874 5.84791C11.9874 5.84791 11.9522 5.81198 11.9173 5.84791C11.9173 5.65086 11.5899 5.66551 11.6778 5.36034C11.0952 5.03251 10.4257 4.84558 9.71411 4.84558C7.46609 4.84558 5.63818 6.70898 5.63818 9.00066C5.63818 9.83175 5.88519 10.5872 6.28033 11.2418L6.23106 11.6195L6.13219 12.3749L6.05796 12.9542L6.65084 12.8534L7.34259 12.7275L7.76236 12.6518C8.35524 12.9793 8.99739 13.1554 9.71377 13.1554C11.9618 13.1554 13.7897 11.292 13.7897 9.00031C13.7897 7.46648 12.9703 6.12447 11.7548 5.40464L11.7552 5.40429ZM11.9375 10.8383L11.7151 11.1152C11.3939 11.518 11.1222 11.5431 10.7025 11.4427C9.09694 11.0147 7.91118 9.85616 7.39254 8.21945C7.21977 7.58994 7.46678 7.06123 7.98542 6.73375C8.25706 6.55762 8.43016 6.68353 8.52869 6.96044L8.7757 7.61505C8.7757 7.61505 8.94846 7.96765 8.50406 8.32024C8.45457 8.35372 8.43815 8.41243 8.4548 8.49636C8.55367 8.79838 8.94881 9.70515 10.2088 10.4103C10.3323 10.486 10.3569 10.486 10.4804 10.3852C10.5793 10.2844 10.7028 10.1585 10.8017 10.0577C11.0241 9.85616 11.1476 9.78083 11.345 9.93184C11.4931 10.0326 11.6412 10.1585 11.7897 10.2593C11.9378 10.3852 12.1848 10.5362 11.9378 10.8386L11.9375 10.8383ZM12.0227 6.16772C12.0921 5.95428 12.127 5.98985 12.2317 6.02577C12.2666 6.06134 12.2317 6.09692 12.267 6.13249C12.1972 6.13249 12.1274 6.13249 12.0227 6.16772ZM13.1048 6.98659C12.9885 7.05751 12.8722 6.98625 12.7558 6.77281C12.8951 6.84395 13.0001 6.87953 13.1048 6.98659Z" fill="#D82121"/>
<path id="Vector_2" fill-rule="evenodd" clip-rule="evenodd" d="M18.4021 7.15262C18.2304 5.54799 17.58 4.04834 16.5516 2.83293C16.5232 2.83397 16.4948 2.83467 16.4668 2.83571C16.4668 2.83571 16.5136 2.82176 16.501 2.77468C16.3563 2.60693 16.2044 2.44476 16.0456 2.28852C15.9115 2.3199 15.8845 2.28921 15.8561 2.10856C15.488 1.76957 15.086 1.46127 14.6515 1.18993C14.4863 1.08949 14.3193 0.997073 14.1507 0.911976C14.2971 1.0745 14.2499 1.0888 14.1688 1.16448C14.1216 1.17843 14.1079 1.12995 14.06 1.1439C14.0939 1.08182 14.1277 1.02009 14.1479 0.910581C12.904 0.281774 11.5776 0.0582214 10.2814 0.167731C10.1216 0.162499 9.98715 0.0753104 9.8243 0.0383423C9.28034 -0.0652383 8.69875 0.0393886 8.27453 0.414999C8.13256 0.52695 8.04361 0.689819 7.89034 0.752944C7.27728 1.00509 6.68987 1.33013 6.14283 1.7183C6.00599 1.81525 6.04841 1.75108 6.01146 1.7605C5.85922 1.74794 5.75659 1.88745 5.65395 1.9572C4.96973 2.68959 4.35392 3.35222 3.53285 3.94511C3.25916 4.18924 3.08811 4.53799 2.85718 4.79677C2.75078 4.93139 2.64884 5.0695 2.55065 5.21005C0.884219 7.60461 0.422025 10.8557 1.71966 13.6053C1.7939 13.7643 1.87327 13.9199 1.95743 14.0719C2.04193 14.224 2.13122 14.3729 2.2253 14.5183C2.30091 14.6516 2.40354 14.7562 2.40354 14.8957C2.54039 15.7676 2.60881 16.6395 3.22461 17.3021C3.84041 17.9299 4.66148 17.8601 5.37992 17.4416C5.48255 17.3719 5.6194 17.4067 5.71485 17.4402C5.86435 17.4957 6.02138 17.5546 6.18183 17.6094C7.14351 17.9376 8.17361 18.0694 9.21158 17.9648C9.21671 17.9644 9.22184 17.9637 9.22697 17.963C9.17224 17.9396 9.12229 17.917 9.06755 17.8891C8.99742 17.6753 9.13768 17.6041 9.38161 17.5689C9.43156 17.6708 9.46406 17.7918 9.50409 17.9306C9.67754 17.9069 9.84859 17.8772 10.0179 17.842C10.0282 17.767 10.0374 17.6882 10.0446 17.6045C10.1274 17.6889 10.1852 17.7482 10.2191 17.7974C11.1151 17.5853 11.9529 17.2156 12.7357 16.7403C13.0922 16.524 13.437 16.2858 13.7709 16.0309C13.9016 15.9388 14.0306 15.8464 14.1561 15.761C14.5147 15.5932 14.8568 15.8025 15.1989 15.7327C16.7726 15.4886 16.7726 13.7448 17.1838 12.5698C17.2711 12.4321 17.3545 12.2922 17.4339 12.1503C17.9909 11.1567 18.3549 10.0602 18.4257 8.86954C18.4743 8.292 18.4667 7.71795 18.4021 7.15262ZM15.2557 2.46952C15.4729 2.51033 15.4664 2.67006 15.3782 2.90477C15.2225 2.89814 15.0528 2.84339 14.8359 2.80223C15.0456 2.63553 15.127 2.5595 15.2557 2.46952ZM15.3005 3.07252C15.1719 3.1625 15.0904 3.23853 14.9481 3.28003C14.9438 3.14192 15.0612 3.07275 15.3005 3.07252ZM13.2738 1.26945C13.1455 1.35943 13.0638 1.43546 12.9214 1.47696C12.9171 1.33885 13.0346 1.26968 13.2738 1.26945ZM13.825 2.67912C13.4931 2.77643 13.1808 2.76213 12.8821 2.79735C13.0042 2.50021 13.5058 2.45801 13.825 2.67912ZM13.8373 5.38512C13.8024 5.34955 13.7329 5.27875 13.698 5.24318C13.698 5.17168 13.6628 5.13646 13.6283 5.10089C13.698 4.81595 13.7682 4.53102 13.8027 4.14006C13.9423 4.28236 14.0124 4.35385 14.0124 4.42465C14.152 4.63809 14.0473 5.10054 13.8376 5.38547L13.8373 5.38512ZM14.2564 6.38187C13.9423 6.41674 13.6628 5.98986 13.698 5.59856C13.9423 5.84757 14.0816 6.13286 14.2564 6.38187ZM13.4596 3.57089C13.256 3.57822 13.1342 3.50951 13.1274 3.30235C13.2834 3.30898 13.4391 3.3156 13.643 3.30828C13.6361 3.46696 13.6159 3.57822 13.4596 3.57089ZM13.139 4.10449C13.2088 4.24643 13.2437 4.4243 13.3139 4.63774C13.0692 4.53137 12.9642 4.49579 12.825 4.42465C12.7548 4.21086 12.8951 4.13971 13.139 4.10449ZM12.6437 1.76852L12.7045 1.80305C12.6231 1.87908 12.5893 1.94116 12.5554 2.00358C12.4945 1.96906 12.4808 1.92093 12.4808 1.92093C12.5147 1.85885 12.5958 1.78282 12.6433 1.76887L12.6437 1.76852ZM12.1962 3.71319C12.3358 3.85548 12.3125 3.99789 12.1264 4.14041C12.162 3.9622 12.2311 3.8199 12.1962 3.71319ZM8.36861 17.6048C8.40419 17.4266 8.4733 17.2843 8.43875 17.1776C8.57833 17.3199 8.55495 17.4623 8.36861 17.6048ZM8.79797 15.468C8.73707 15.4335 8.72338 15.3854 8.72338 15.3854C8.75725 15.3233 8.83833 15.2472 8.88589 15.2333L8.94678 15.2678C8.86536 15.3439 8.83149 15.4059 8.79762 15.4684L8.79797 15.468ZM9.70183 17.036C9.49827 17.0433 9.37648 16.9746 9.36964 16.7675C9.52564 16.7741 9.6813 16.7807 9.8852 16.7734C9.87836 16.9321 9.85817 17.0433 9.70217 17.036H9.70183ZM9.12434 16.2628C9.24648 15.9657 9.74801 15.9235 10.0672 16.1446C9.73535 16.2419 9.42301 16.2276 9.12434 16.2628ZM9.51572 14.7349C9.38708 14.8249 9.30566 14.9009 9.16334 14.9424C9.15901 14.8043 9.27647 14.7352 9.51572 14.7349ZM10.8246 17.2718C10.7637 17.2372 10.7501 17.1891 10.7501 17.1891C10.7839 17.127 10.865 17.051 10.9126 17.0371L10.9735 17.0716C10.892 17.1476 10.8582 17.2097 10.8243 17.2721L10.8246 17.2718ZM10.9225 16.9935C10.6717 17.0147 10.3255 16.697 10.1828 16.372C10.23 16.358 10.3248 16.3305 10.3724 16.3165C10.4336 16.3507 10.4812 16.3371 10.5284 16.3232C10.7391 16.5237 10.9499 16.7242 11.2684 16.9443C11.0785 16.9997 10.9834 17.0276 10.9225 16.9931V16.9935ZM10.3022 14.6094C10.3364 14.5473 10.3703 14.4849 10.3905 14.3747C10.54 14.54 10.4928 14.5539 10.411 14.6299C10.3638 14.6439 10.3501 14.5954 10.3022 14.6094ZM10.7162 14.436C10.8996 14.5393 11.0549 14.1801 11.3063 14.5253C11.0888 14.4835 10.8855 14.4908 10.682 14.4981C10.682 14.4981 10.7299 14.4842 10.7162 14.436ZM11.19 16.7459C11.1857 16.6077 11.3031 16.5386 11.5424 16.5383C11.4141 16.6283 11.3323 16.7043 11.19 16.7459ZM11.6201 16.3706C11.4644 16.364 11.2947 16.3092 11.0778 16.2681C11.2875 16.1014 11.3689 16.0253 11.4976 15.9353C11.7148 15.9761 11.7083 16.1359 11.6201 16.3706ZM12.0802 15.4502C12.216 15.5681 12.3046 15.6989 12.4127 15.7195C12.223 15.775 12.1121 15.6853 12.0802 15.4502ZM12.4374 16.433C12.3901 16.447 12.3765 16.3985 12.3286 16.4124C12.3628 16.3504 12.3966 16.2879 12.4165 16.1777C12.566 16.343 12.5188 16.357 12.437 16.433H12.4374ZM12.7083 16.3015C12.7083 16.3015 12.7562 16.2876 12.7425 16.2395C12.9259 16.3427 13.0816 15.9835 13.3327 16.3287C13.1151 16.2869 12.9119 16.2942 12.7083 16.3015ZM9.71346 13.9621C8.97244 13.9621 8.28069 13.8111 7.66318 13.5087L5.06962 13.9621L5.4155 11.3433L5.39087 11.293C5.04499 10.613 4.84759 9.83246 4.84759 9.00137C4.84759 6.25666 7.02138 4.04067 9.7138 4.04067C12.4062 4.04067 14.58 6.25666 14.58 9.00137C14.58 11.7461 12.4062 13.9621 9.7138 13.9621H9.71346ZM14.5701 5.91977C14.5003 5.77747 14.4305 5.63518 14.3255 5.45731C14.4651 5.38652 14.5701 5.3506 14.6395 5.49359C14.7442 5.67145 14.7442 5.81339 14.5701 5.92011V5.91977ZM14.5817 3.807C14.5208 3.77247 14.5071 3.72435 14.5071 3.72435C14.541 3.66227 14.6221 3.58624 14.6696 3.57229L14.7305 3.60681C14.6491 3.68284 14.6152 3.74492 14.5814 3.80735L14.5817 3.807ZM14.6796 3.52869C14.4288 3.54997 14.0826 3.23225 13.9399 2.90721C13.9871 2.89326 14.0819 2.86571 14.1294 2.85176C14.1907 2.88594 14.2382 2.87233 14.2855 2.85838C14.4962 3.05892 14.7069 3.25945 15.0254 3.47952C14.8356 3.53497 14.7405 3.56287 14.6796 3.52834V3.52869ZM15.4856 5.37466C15.282 5.38198 15.1602 5.31328 15.1534 5.10612C15.3094 5.11274 15.4651 5.11937 15.669 5.11205C15.6621 5.27073 15.6419 5.38198 15.4859 5.37466H15.4856ZM14.9081 4.60147C15.0302 4.30433 15.5318 4.26213 15.851 4.48324C15.5191 4.58019 15.2068 4.56624 14.9081 4.60147ZM16.1743 2.71295C16.3238 2.87826 16.2765 2.89221 16.1948 2.96824C16.1476 2.98219 16.1339 2.93372 16.086 2.94767C16.1202 2.88559 16.1541 2.82316 16.1739 2.71295H16.1743ZM16.7062 5.33211C16.4555 5.35338 16.1093 5.03567 15.9666 4.71063C16.0138 4.69668 16.1086 4.66913 16.1561 4.65518C16.2174 4.68935 16.2649 4.67575 16.3121 4.6618C16.5229 4.86234 16.7336 5.06287 17.0521 5.28294C16.8622 5.33839 16.7671 5.36629 16.7062 5.33176V5.33211ZM17.4038 4.70888C17.2481 4.70226 17.0785 4.6475 16.8616 4.60635C17.0713 4.43964 17.1527 4.36362 17.2813 4.27364C17.4989 4.31444 17.4921 4.47417 17.4038 4.70888Z" fill="#D82121"/>
</g>
</g>
</svg>
