<svg width="19" height="18" viewBox="0 0 19 18" fill="none" xmlns="http://www.w3.org/2000/svg">
<g id="Layer 1">
<g id="Group">
<path id="Vector" fill-rule="evenodd" clip-rule="evenodd" d="M11.7552 5.40392C11.8209 5.564 11.9037 5.7056 11.9875 5.84754C11.9875 5.84754 11.9523 5.81162 11.9174 5.84754C11.9174 5.65049 11.59 5.66514 11.6779 5.35998C11.0953 5.03215 10.4258 4.84521 9.71417 4.84521C7.46615 4.84521 5.63824 6.70862 5.63824 9.00029C5.63824 9.83138 5.88525 10.5868 6.28039 11.2414L6.23113 11.6191L6.13226 12.3745L6.05802 12.9538L6.6509 12.853L7.34265 12.7271L7.76242 12.6514C8.3553 12.9789 8.99745 13.155 9.71383 13.155C11.9619 13.155 13.7898 11.2916 13.7898 8.99995C13.7898 7.46612 12.9704 6.1241 11.7549 5.40427L11.7552 5.40392ZM11.9376 10.8379L11.7152 11.1148C11.3939 11.5176 11.1223 11.5427 10.7025 11.4423C9.097 11.0144 7.91124 9.85579 7.3926 8.21908C7.21983 7.58958 7.46684 7.06086 7.98548 6.73338C8.25712 6.55726 8.43022 6.68316 8.52875 6.96007L8.77576 7.61469C8.77576 7.61469 8.94852 7.96728 8.50412 8.31987C8.45463 8.35335 8.43821 8.41206 8.45486 8.49599C8.55373 8.79802 8.94887 9.70478 10.2089 10.41C10.3324 10.4856 10.357 10.4856 10.4805 10.3849C10.5794 10.2841 10.7029 10.1582 10.8017 10.0574C11.0241 9.85579 11.1476 9.78046 11.345 9.93147C11.4932 10.0323 11.6413 10.1582 11.7898 10.259C11.9379 10.3849 12.1849 10.5359 11.9379 10.8382L11.9376 10.8379ZM12.0227 6.16735C12.0922 5.95391 12.1271 5.98948 12.2318 6.02541C12.2667 6.06098 12.2318 6.09655 12.267 6.13212C12.1972 6.13212 12.1274 6.13213 12.0227 6.16735ZM13.1049 6.98623C12.9885 7.05714 12.8722 6.98588 12.7559 6.77244C12.8951 6.84359 13.0002 6.87916 13.1049 6.98623Z" fill="#E9E9E9"/>
<path id="Vector_2" fill-rule="evenodd" clip-rule="evenodd" d="M18.4021 7.1525C18.2304 5.54787 17.58 4.04822 16.5516 2.8328C16.5232 2.83385 16.4948 2.83455 16.4668 2.83559C16.4668 2.83559 16.5136 2.82164 16.501 2.77456C16.3563 2.60681 16.2044 2.44464 16.0456 2.28839C15.9115 2.31978 15.8845 2.28909 15.8561 2.10844C15.488 1.76945 15.086 1.46115 14.6515 1.18981C14.4863 1.08937 14.3193 0.996951 14.1507 0.911854C14.2971 1.07437 14.2499 1.08867 14.1688 1.16435C14.1216 1.1783 14.1079 1.12983 14.06 1.14378C14.0939 1.0817 14.1277 1.01997 14.1479 0.910459C12.904 0.281652 11.5776 0.0580993 10.2814 0.167609C10.1216 0.162377 9.98715 0.0751884 9.8243 0.0382202C9.28034 -0.0653603 8.69875 0.0392665 8.27453 0.414877C8.13256 0.526828 8.04361 0.689697 7.89034 0.752822C7.27728 1.00497 6.68987 1.33001 6.14283 1.71818C6.00599 1.81513 6.04841 1.75096 6.01146 1.76038C5.85922 1.74782 5.75659 1.88732 5.65395 1.95708C4.96973 2.68946 4.35392 3.3521 3.53285 3.94499C3.25916 4.18912 3.08811 4.53787 2.85718 4.79665C2.75078 4.93127 2.64884 5.06938 2.55065 5.20992C0.884219 7.60448 0.422025 10.8556 1.71966 13.6052C1.7939 13.7642 1.87327 13.9198 1.95743 14.0718C2.04193 14.2239 2.13122 14.3728 2.2253 14.5182C2.30091 14.6514 2.40354 14.7561 2.40354 14.8956C2.54039 15.7675 2.60881 16.6394 3.22461 17.302C3.84041 17.9298 4.66148 17.86 5.37992 17.4415C5.48255 17.3717 5.6194 17.4066 5.71485 17.4401C5.86435 17.4956 6.02138 17.5545 6.18183 17.6093C7.14351 17.9374 8.17361 18.0693 9.21158 17.9646C9.21671 17.9643 9.22184 17.9636 9.22697 17.9629C9.17224 17.9395 9.12229 17.9169 9.06755 17.889C8.99742 17.6752 9.13768 17.604 9.38161 17.5688C9.43156 17.6706 9.46406 17.7916 9.50409 17.9305C9.67754 17.9067 9.84859 17.8771 10.0179 17.8419C10.0282 17.7669 10.0374 17.6881 10.0446 17.6044C10.1274 17.6888 10.1852 17.7481 10.2191 17.7972C11.1151 17.5852 11.9529 17.2155 12.7357 16.7401C13.0922 16.5239 13.437 16.2857 13.7709 16.0308C13.9016 15.9387 14.0306 15.8463 14.1561 15.7608C14.5147 15.5931 14.8568 15.8023 15.1989 15.7326C16.7726 15.4885 16.7726 13.7447 17.1838 12.5697C17.2711 12.432 17.3545 12.2921 17.4339 12.1502C17.9909 11.1566 18.3549 10.0601 18.4257 8.86942C18.4743 8.29188 18.4667 7.71783 18.4021 7.1525ZM15.2557 2.4694C15.4729 2.5102 15.4664 2.66993 15.3782 2.90465C15.2225 2.89802 15.0528 2.84327 14.8359 2.80211C15.0456 2.63541 15.127 2.55938 15.2557 2.4694ZM15.3005 3.0724C15.1719 3.16238 15.0904 3.23841 14.9481 3.27991C14.9438 3.1418 15.0612 3.07263 15.3005 3.0724ZM13.2738 1.26933C13.1455 1.35931 13.0638 1.43534 12.9214 1.47684C12.9171 1.33873 13.0346 1.26956 13.2738 1.26933ZM13.825 2.679C13.4931 2.7763 13.1808 2.76201 12.8821 2.79723C13.0042 2.50009 13.5058 2.45789 13.825 2.679ZM13.8373 5.385C13.8024 5.34943 13.7329 5.27863 13.698 5.24306C13.698 5.17156 13.6628 5.13634 13.6283 5.10076C13.698 4.81583 13.7682 4.5309 13.8027 4.13994C13.9423 4.28223 14.0124 4.35373 14.0124 4.42453C14.152 4.63796 14.0473 5.10041 13.8376 5.38535L13.8373 5.385ZM14.2564 6.38174C13.9423 6.41662 13.6628 5.98974 13.698 5.59844C13.9423 5.84745 14.0816 6.13273 14.2564 6.38174ZM13.4596 3.57077C13.256 3.57809 13.1342 3.50939 13.1274 3.30223C13.2834 3.30886 13.4391 3.31548 13.643 3.30816C13.6361 3.46684 13.6159 3.57809 13.4596 3.57077ZM13.139 4.10437C13.2088 4.24631 13.2437 4.42418 13.3139 4.63762C13.0692 4.53124 12.9642 4.49567 12.825 4.42453C12.7548 4.21074 12.8951 4.13959 13.139 4.10437ZM12.6437 1.7684L12.7045 1.80293C12.6231 1.87895 12.5893 1.94103 12.5554 2.00346C12.4945 1.96893 12.4808 1.92081 12.4808 1.92081C12.5147 1.85873 12.5958 1.7827 12.6433 1.76875L12.6437 1.7684ZM12.1962 3.71306C12.3358 3.85536 12.3125 3.99776 12.1264 4.14029C12.162 3.96207 12.2311 3.81978 12.1962 3.71306ZM8.36861 17.6047C8.40419 17.4265 8.4733 17.2842 8.43875 17.1775C8.57833 17.3198 8.55495 17.4622 8.36861 17.6047ZM8.79797 15.4679C8.73707 15.4334 8.72338 15.3852 8.72338 15.3852C8.75725 15.3232 8.83833 15.2471 8.88589 15.2332L8.94678 15.2677C8.86536 15.3437 8.83149 15.4058 8.79762 15.4682L8.79797 15.4679ZM9.70183 17.0359C9.49827 17.0432 9.37648 16.9745 9.36964 16.7674C9.52564 16.774 9.6813 16.7806 9.8852 16.7733C9.87836 16.932 9.85817 17.0432 9.70217 17.0359H9.70183ZM9.12434 16.2627C9.24648 15.9656 9.74801 15.9234 10.0672 16.1445C9.73535 16.2418 9.42301 16.2275 9.12434 16.2627ZM9.51572 14.7348C9.38708 14.8248 9.30566 14.9008 9.16334 14.9423C9.15901 14.8042 9.27647 14.735 9.51572 14.7348ZM10.8246 17.2717C10.7637 17.2371 10.7501 17.189 10.7501 17.189C10.7839 17.1269 10.865 17.0509 10.9126 17.0369L10.9735 17.0715C10.892 17.1475 10.8582 17.2096 10.8243 17.272L10.8246 17.2717ZM10.9225 16.9933C10.6717 17.0146 10.3255 16.6969 10.1828 16.3719C10.23 16.3579 10.3248 16.3304 10.3724 16.3164C10.4336 16.3506 10.4812 16.337 10.5284 16.323C10.7391 16.5236 10.9499 16.7241 11.2684 16.9442C11.0785 16.9996 10.9834 17.0275 10.9225 16.993V16.9933ZM10.3022 14.6092C10.3364 14.5472 10.3703 14.4847 10.3905 14.3745C10.54 14.5398 10.4928 14.5538 10.411 14.6298C10.3638 14.6438 10.3501 14.5953 10.3022 14.6092ZM10.7162 14.4359C10.8996 14.5391 11.0549 14.1799 11.3063 14.5252C11.0888 14.4833 10.8855 14.4907 10.682 14.498C10.682 14.498 10.7299 14.484 10.7162 14.4359ZM11.19 16.7457C11.1857 16.6076 11.3031 16.5385 11.5424 16.5382C11.4141 16.6282 11.3323 16.7042 11.19 16.7457ZM11.6201 16.3705C11.4644 16.3638 11.2947 16.3091 11.0778 16.2679C11.2875 16.1012 11.3689 16.0252 11.4976 15.9352C11.7148 15.976 11.7083 16.1358 11.6201 16.3705ZM12.0802 15.4501C12.216 15.568 12.3046 15.6988 12.4127 15.7193C12.223 15.7749 12.1121 15.6852 12.0802 15.4501ZM12.4374 16.4329C12.3901 16.4468 12.3765 16.3984 12.3286 16.4123C12.3628 16.3502 12.3966 16.2878 12.4165 16.1776C12.566 16.3429 12.5188 16.3569 12.437 16.4329H12.4374ZM12.7083 16.3014C12.7083 16.3014 12.7562 16.2875 12.7425 16.2393C12.9259 16.3426 13.0816 15.9833 13.3327 16.3286C13.1151 16.2868 12.9119 16.2941 12.7083 16.3014ZM9.71346 13.962C8.97244 13.962 8.28069 13.8109 7.66318 13.5086L5.06962 13.962L5.4155 11.3431L5.39087 11.2929C5.04499 10.6129 4.84759 9.83234 4.84759 9.00125C4.84759 6.25654 7.02138 4.04054 9.7138 4.04054C12.4062 4.04054 14.58 6.25654 14.58 9.00125C14.58 11.746 12.4062 13.962 9.7138 13.962H9.71346ZM14.5701 5.91964C14.5003 5.77735 14.4305 5.63506 14.3255 5.45719C14.4651 5.38639 14.5701 5.35047 14.6395 5.49346C14.7442 5.67133 14.7442 5.81327 14.5701 5.91999V5.91964ZM14.5817 3.80688C14.5208 3.77235 14.5071 3.72422 14.5071 3.72422C14.541 3.66214 14.6221 3.58612 14.6696 3.57217L14.7305 3.60669C14.6491 3.68272 14.6152 3.7448 14.5814 3.80723L14.5817 3.80688ZM14.6796 3.52857C14.4288 3.54985 14.0826 3.23213 13.9399 2.90709C13.9871 2.89314 14.0819 2.86559 14.1294 2.85164C14.1907 2.88581 14.2382 2.87221 14.2855 2.85826C14.4962 3.0588 14.7069 3.25933 15.0254 3.4794C14.8356 3.53485 14.7405 3.56275 14.6796 3.52822V3.52857ZM15.4856 5.37454C15.282 5.38186 15.1602 5.31316 15.1534 5.106C15.3094 5.11262 15.4651 5.11925 15.669 5.11192C15.6621 5.27061 15.6419 5.38186 15.4859 5.37454H15.4856ZM14.9081 4.60135C15.0302 4.3042 15.5318 4.26201 15.851 4.48312C15.5191 4.58007 15.2068 4.56612 14.9081 4.60135ZM16.1743 2.71283C16.3238 2.87814 16.2765 2.89209 16.1948 2.96812C16.1476 2.98207 16.1339 2.93359 16.086 2.94754C16.1202 2.88546 16.1541 2.82304 16.1739 2.71283H16.1743ZM16.7062 5.33199C16.4555 5.35326 16.1093 5.03555 15.9666 4.71051C16.0138 4.69656 16.1086 4.669 16.1561 4.65505C16.2174 4.68923 16.2649 4.67563 16.3121 4.66168C16.5229 4.86221 16.7336 5.06275 17.0521 5.28281C16.8622 5.33827 16.7671 5.36617 16.7062 5.33164V5.33199ZM17.4038 4.70876C17.2481 4.70214 17.0785 4.64738 16.8616 4.60623C17.0713 4.43952 17.1527 4.36349 17.2813 4.27351C17.4989 4.31432 17.4921 4.47405 17.4038 4.70876Z" fill="#E9E9E9"/>
</g>
</g>
</svg>
