<svg width="18" height="18" viewBox="0 0 18 18" fill="none" xmlns="http://www.w3.org/2000/svg">
<g id="Layer 1">
<g id="Group">
<path id="Vector" fill-rule="evenodd" clip-rule="evenodd" d="M17.9162 7.15262C17.7445 5.54799 17.0941 4.04834 16.0657 2.83293C16.0373 2.83397 16.009 2.83467 15.9809 2.83571C15.9809 2.83571 16.0278 2.82176 16.0151 2.77468C15.8704 2.60693 15.7185 2.44476 15.5598 2.28852C15.4257 2.3199 15.3986 2.28921 15.3702 2.10856C15.0021 1.76957 14.6001 1.46127 14.1656 1.18993C14.0004 1.08949 13.8335 0.997073 13.6651 0.911976C13.8116 1.0745 13.7644 1.0888 13.6833 1.16448C13.6361 1.17843 13.6224 1.12995 13.5745 1.1439C13.6083 1.08182 13.6422 1.02009 13.6624 0.910581C12.4185 0.281774 11.0921 0.0582214 9.79585 0.167731C9.63608 0.162499 9.50163 0.0753104 9.33878 0.0383423C8.79483 -0.0652383 8.21323 0.0393886 7.78901 0.414999C7.64704 0.52695 7.55809 0.689819 7.40482 0.752944C6.79176 1.00509 6.20435 1.33013 5.65731 1.7183C5.52047 1.81525 5.56289 1.75108 5.52594 1.7605C5.3737 1.74794 5.27107 1.88745 5.16843 1.9572C4.48421 2.68959 3.86841 3.35222 3.04734 3.94511C2.77365 4.18924 2.60259 4.53799 2.37166 4.79677C2.26527 4.93139 2.16332 5.0695 2.06513 5.21005C0.398358 7.60461 -0.0638357 10.8557 1.2338 13.6053C1.30804 13.7643 1.38741 13.9199 1.47157 14.0719C1.55607 14.224 1.64536 14.3729 1.73944 14.5183C1.81505 14.6516 1.91768 14.7562 1.91768 14.8957C2.05453 15.7676 2.12295 16.6395 2.73875 17.3021C3.35455 17.9299 4.17562 17.8601 4.89406 17.4416C4.99669 17.3719 5.13354 17.4067 5.22899 17.4402C5.37849 17.4957 5.53552 17.5546 5.69597 17.6094C6.65765 17.9376 7.68775 18.0694 8.72572 17.9648C8.73085 17.9644 8.73598 17.9637 8.74111 17.963C8.68638 17.9396 8.63643 17.917 8.58169 17.8891C8.51156 17.6753 8.65182 17.6041 8.89575 17.5689C8.9457 17.6708 8.9782 17.7918 9.01823 17.9306C9.19168 17.9069 9.36273 17.8772 9.53208 17.842C9.54234 17.767 9.55158 17.6882 9.55876 17.6045C9.64155 17.6889 9.69937 17.7482 9.73324 17.7974C10.6292 17.5853 11.4671 17.2156 12.2498 16.7403C12.6063 16.524 12.9512 16.2858 13.2851 16.0309C13.4157 15.9388 13.5447 15.8464 13.6703 15.761C14.0288 15.5932 14.3709 15.8025 14.713 15.7327C16.2867 15.4886 16.2867 13.7448 16.698 12.5698C16.7852 12.4321 16.8687 12.2922 16.9481 12.1503C17.505 11.1567 17.869 10.0602 17.9398 8.86954C17.9884 8.292 17.9809 7.71795 17.9162 7.15262ZM14.7698 2.46952C14.9871 2.51033 14.9806 2.67006 14.8923 2.90477C14.7366 2.89814 14.5669 2.84339 14.35 2.80223C14.5598 2.63553 14.6412 2.5595 14.7698 2.46952ZM14.8146 3.07252C14.686 3.1625 14.6046 3.23853 14.4623 3.28003C14.4579 3.14192 14.5754 3.07275 14.8146 3.07252ZM12.788 1.26945C12.6593 1.35943 12.5779 1.43546 12.4356 1.47696C12.4313 1.33885 12.5487 1.26968 12.788 1.26945ZM13.3391 2.67912C13.0073 2.77643 12.6949 2.76213 12.3962 2.79735C12.5184 2.50021 13.0199 2.45801 13.3391 2.67912ZM13.1571 3.30793C13.1503 3.46661 13.1301 3.57787 12.9741 3.57054C12.7705 3.57787 12.6487 3.50916 12.6419 3.302C12.7979 3.30863 12.9535 3.31525 13.1574 3.30793H13.1571ZM12.1581 1.76782L12.219 1.80235C12.1376 1.87838 12.1037 1.94046 12.0699 2.00289C12.009 1.96836 11.9953 1.92023 11.9953 1.92023C12.0292 1.85815 12.1102 1.78212 12.1578 1.76817L12.1581 1.76782ZM11.7107 3.71249C11.8502 3.85478 11.8269 3.99719 11.6405 4.13971C11.6761 3.9615 11.7452 3.81921 11.7107 3.71249ZM11.2221 5.27771C11.2919 5.49184 11.3962 5.66971 11.5013 5.84757C11.5013 5.84757 11.466 5.81165 11.4311 5.84757C11.4311 5.63413 11.0473 5.66936 11.2218 5.27771H11.2221ZM7.8831 17.6041C7.91868 17.4259 7.98778 17.2836 7.95323 17.1769C8.09281 17.3192 8.06943 17.4616 7.8831 17.6041ZM8.31245 15.4673C8.25155 15.4328 8.23787 15.3847 8.23787 15.3847C8.27174 15.3226 8.35282 15.2465 8.40037 15.2326L8.46127 15.2671C8.37984 15.3432 8.34597 15.4052 8.31211 15.4677L8.31245 15.4673ZM9.21631 17.0353C9.01275 17.0426 8.89096 16.9739 8.88412 16.7668C9.04012 16.7734 9.19578 16.78 9.39968 16.7727C9.39284 16.9314 9.37265 17.0426 9.21665 17.0353H9.21631ZM8.63882 16.2621C8.76096 15.965 9.26249 15.9228 9.58168 16.1439C9.24984 16.2412 8.93749 16.2269 8.63882 16.2621ZM9.0302 14.7342C8.90191 14.8242 8.82014 14.9002 8.67782 14.9417C8.67349 14.8036 8.79095 14.7345 9.0302 14.7342ZM10.3391 17.2711C10.2782 17.2366 10.2645 17.1884 10.2645 17.1884C10.2984 17.1263 10.3795 17.0503 10.427 17.0364L10.4879 17.0709C10.4065 17.1469 10.3726 17.209 10.3388 17.2714L10.3391 17.2711ZM10.437 16.9928C10.1862 17.014 9.83998 16.6963 9.69732 16.3713C9.74453 16.3573 9.83929 16.3298 9.88685 16.3158C9.94809 16.35 9.99564 16.3364 10.0429 16.3225C10.2536 16.523 10.4643 16.7235 10.7828 16.9436C10.593 16.999 10.4979 17.0269 10.437 16.9924V16.9928ZM9.81672 14.6087C9.85093 14.5466 9.8848 14.4842 9.90464 14.374C10.0541 14.5393 10.0069 14.5532 9.92517 14.6293C9.87795 14.6432 9.86427 14.5947 9.81637 14.6087H9.81672ZM10.2307 14.4353C10.414 14.5386 10.5694 14.1794 10.8208 14.5246C10.6032 14.4828 10.4 14.4901 10.1965 14.4974C10.1965 14.4974 10.2444 14.4835 10.2307 14.4353ZM10.7045 16.7452C10.7002 16.607 10.8176 16.5379 11.0569 16.5376C10.9286 16.6276 10.8468 16.7037 10.7045 16.7452ZM11.1345 16.3699C10.9789 16.3633 10.8092 16.3085 10.5923 16.2674C10.802 16.1007 10.8834 16.0246 11.0121 15.9346C11.2293 15.9754 11.2228 16.1352 11.1345 16.3699ZM11.5947 15.4495C11.7305 15.5674 11.8191 15.6982 11.9272 15.7188C11.7374 15.7743 11.6266 15.6846 11.5947 15.4495ZM11.9518 16.4323C11.9046 16.4463 11.8909 16.3978 11.843 16.4117C11.8773 16.3497 11.9111 16.2872 11.931 16.177C12.0805 16.3423 12.0333 16.3563 11.9515 16.4323H11.9518ZM12.2228 16.3008C12.2228 16.3008 12.2707 16.2869 12.257 16.2388C12.4404 16.342 12.5957 15.9828 12.8471 16.328C12.6296 16.2862 12.4263 16.2935 12.2228 16.3008ZM13.8447 13.6175C13.0931 13.6168 12.3412 13.6151 11.5895 13.614C11.4979 13.614 11.4065 13.6165 11.3148 13.6189C11.2495 13.6206 11.2026 13.599 11.1605 13.5415C10.3504 12.4314 9.53789 11.323 8.72538 10.2147C8.67577 10.1467 8.62274 10.0811 8.56116 10.0009C8.52353 10.0435 8.49445 10.0776 8.464 10.1108C7.90465 10.7218 7.34564 11.3332 6.78526 11.9431C6.43083 12.3289 6.07332 12.7121 5.71787 13.0972C5.57931 13.2471 5.44349 13.3995 5.30733 13.5519C5.27586 13.5872 5.24678 13.6172 5.19341 13.6168C4.97582 13.6151 4.75858 13.6175 4.541 13.6168C4.51534 13.6168 4.48968 13.6074 4.44794 13.5994C5.70487 12.2323 6.95289 10.8749 8.20331 9.51474C6.95084 7.80758 5.70452 6.10914 4.45821 4.4107C4.46094 4.40163 4.46368 4.39221 4.46642 4.38315C4.50747 4.38315 4.54853 4.38315 4.58992 4.38315C5.43699 4.38315 6.28406 4.38349 7.13147 4.38175C7.20298 4.38175 7.25121 4.40302 7.295 4.46266C7.72333 5.04857 8.15439 5.63239 8.58443 6.21691C8.94364 6.70516 9.30252 7.19342 9.66174 7.68133C9.69116 7.72144 9.72298 7.75945 9.75856 7.80514C9.78353 7.78282 9.80406 7.76782 9.82116 7.74934C10.4311 7.08531 11.0405 6.42093 11.6504 5.7569C12.0069 5.36838 12.3644 4.98091 12.7195 4.59135C12.5485 4.51916 12.4558 4.48428 12.3391 4.42465C12.269 4.21086 12.4089 4.13971 12.6532 4.10449C12.7089 4.21818 12.7428 4.35525 12.79 4.51463C12.8034 4.49998 12.817 4.48533 12.8304 4.47068C12.8868 4.40861 12.9447 4.38001 13.0292 4.3828C13.1157 4.38559 13.2019 4.38594 13.2885 4.38559C13.2991 4.30816 13.3087 4.2269 13.3165 4.14006C13.4301 4.25585 13.4968 4.32455 13.518 4.38419C13.542 4.38419 13.5659 4.38419 13.5902 4.38419C13.6241 4.38419 13.658 4.38698 13.7165 4.38977C13.6692 4.44243 13.622 4.4944 13.5748 4.54671C13.6285 4.78387 13.5273 5.14692 13.3514 5.38547C13.3165 5.3499 13.2471 5.2791 13.2122 5.24353C13.2122 5.17203 13.1769 5.13681 13.142 5.10123C13.1506 5.06566 13.1595 5.03009 13.168 4.99452C12.7483 5.45383 12.3299 5.90547 11.9156 6.36059C11.322 7.01312 10.723 7.66041 10.1232 8.31398C11.4175 10.0759 12.7072 11.8322 14.0083 13.6036C13.9464 13.6091 13.8957 13.6179 13.8451 13.6179L13.8447 13.6175ZM13.2122 5.59891C13.4565 5.84792 13.5957 6.1332 13.7705 6.38222C13.4565 6.41709 13.1769 5.99021 13.2122 5.59891ZM13.2467 7.05845C13.2467 7.1296 13.2118 7.16482 13.2118 7.16482C13.142 7.16482 13.0377 7.12925 13.0025 7.09333V7.02218C13.1072 7.0581 13.1769 7.0581 13.2467 7.0581V7.05845ZM12.6186 6.98731C12.5023 7.05822 12.386 6.98696 12.2697 6.77352C12.4089 6.84467 12.5139 6.88024 12.6186 6.98731ZM14.0849 5.91907C14.0151 5.77678 13.9453 5.63448 13.8403 5.45662C13.9799 5.38582 14.0849 5.3499 14.1544 5.49289C14.259 5.67075 14.259 5.8127 14.0849 5.91942V5.91907ZM14.0965 3.8063C14.0356 3.77178 14.022 3.72365 14.022 3.72365C14.0558 3.66157 14.1369 3.58554 14.1845 3.57159L14.2454 3.60612C14.1639 3.68215 14.1301 3.74422 14.0962 3.80665L14.0965 3.8063ZM14.1944 3.528C13.9436 3.54927 13.5974 3.23155 13.4547 2.90651C13.502 2.89256 13.5967 2.86501 13.6443 2.85106C13.7055 2.88524 13.7531 2.87164 13.8003 2.85769C14.011 3.05822 14.2218 3.25876 14.5403 3.47882C14.3504 3.53427 14.2553 3.56217 14.1944 3.52765V3.528ZM15.0004 5.37396C14.7968 5.38129 14.6751 5.31258 14.6682 5.10542C14.8242 5.11205 14.9799 5.11867 15.1838 5.11135C15.1769 5.27003 15.1567 5.38129 15.0007 5.37396H15.0004ZM14.4229 4.60077C14.5451 4.30363 15.0466 4.26143 15.3658 4.48254C15.0339 4.5795 14.7216 4.56555 14.4229 4.60077ZM15.6891 2.71226C15.8386 2.87757 15.7914 2.89152 15.7096 2.96754C15.6624 2.98149 15.6487 2.93302 15.6008 2.94697C15.635 2.88489 15.6689 2.82246 15.6887 2.71226H15.6891ZM16.2211 5.33141C15.9703 5.35269 15.6241 5.03497 15.4814 4.70993C15.5286 4.69598 15.6234 4.66843 15.6709 4.65448C15.7322 4.68866 15.7797 4.67505 15.8269 4.6611C16.0377 4.86164 16.2484 5.06217 16.5669 5.28224C16.3771 5.33769 16.282 5.36559 16.2211 5.33106V5.33141ZM16.9186 4.70819C16.763 4.70156 16.5933 4.64681 16.3764 4.60565C16.5861 4.43895 16.6675 4.36292 16.7962 4.27294C17.0134 4.31374 17.0069 4.47347 16.9186 4.70819Z" fill="#D82121"/>
<path id="Vector_2" fill-rule="evenodd" clip-rule="evenodd" d="M7.0274 5.08516C6.97608 5.01471 6.91997 4.98821 6.83581 4.9889C6.48857 4.99239 6.14133 4.99065 5.79408 4.991C5.75269 4.991 5.71129 4.991 5.64697 4.991C5.66955 5.02657 5.67674 5.03913 5.68529 5.05098C5.98259 5.45519 6.27954 5.85975 6.57718 6.26361C7.46051 7.46333 8.34453 8.6627 9.22752 9.86277C9.97333 10.8763 10.7184 11.8904 11.4619 12.9057C11.5098 12.9712 11.5618 13.0005 11.6432 12.9998C12.0096 12.996 12.376 12.9981 12.742 12.9974C12.7701 12.9974 12.7982 12.9922 12.8276 12.989C12.8231 12.9716 12.8231 12.9632 12.819 12.9576C12.5782 12.6315 12.3366 12.3062 12.0965 11.9801C10.8861 10.3357 9.67603 8.69095 8.46598 7.04587C7.98565 6.393 7.50499 5.74047 7.02706 5.08551L7.0274 5.08516Z" fill="#D82121"/>
</g>
</g>
</svg>
