<svg width="18" height="18" viewBox="0 0 18 18" fill="none" xmlns="http://www.w3.org/2000/svg">
<g id="Layer 1">
<g id="Group">
<path id="Vector" fill-rule="evenodd" clip-rule="evenodd" d="M17.8878 7.1525C17.716 5.54787 17.0657 4.04822 16.0373 2.8328C16.0089 2.83385 15.9805 2.83455 15.9525 2.83559C15.9525 2.83559 15.9993 2.82164 15.9867 2.77456C15.842 2.60681 15.6901 2.44464 15.5313 2.28839C15.3972 2.31978 15.3702 2.28909 15.3418 2.10844C14.9737 1.76945 14.5717 1.46115 14.1372 1.18981C13.972 1.08937 13.805 0.996951 13.6367 0.911854C13.7831 1.07437 13.7359 1.08867 13.6548 1.16435C13.6076 1.1783 13.5939 1.12983 13.546 1.14378C13.5799 1.0817 13.6138 1.01997 13.634 0.910459C12.39 0.281652 11.0637 0.0580993 9.7674 0.167609C9.60764 0.162377 9.47319 0.0751884 9.31034 0.0382202C8.76638 -0.0653603 8.18479 0.0392665 7.76057 0.414877C7.6186 0.526828 7.52965 0.689697 7.37638 0.752822C6.76331 1.00497 6.17591 1.33001 5.62887 1.71818C5.49202 1.81513 5.53445 1.75096 5.4975 1.76038C5.34526 1.74782 5.24262 1.88732 5.13999 1.95708C4.45577 2.68946 3.83996 3.3521 3.01889 3.94499C2.7452 4.18912 2.57415 4.53787 2.34322 4.79665C2.23682 4.93127 2.13487 5.06938 2.03669 5.20992C0.369916 7.60448 -0.0922781 10.8556 1.20535 13.6052C1.27959 13.7642 1.35896 13.9198 1.44312 14.0718C1.52762 14.2239 1.61692 14.3728 1.711 14.5182C1.7866 14.6514 1.88924 14.7561 1.88924 14.8956C2.02608 15.7675 2.09451 16.6394 2.71031 17.302C3.32611 17.9298 4.14718 17.86 4.86562 17.4415C4.96825 17.3717 5.10509 17.4066 5.20054 17.4401C5.35005 17.4956 5.50708 17.5545 5.66753 17.6093C6.62921 17.9374 7.65931 18.0693 8.69728 17.9646C8.70241 17.9643 8.70754 17.9636 8.71267 17.9629C8.65793 17.9395 8.60798 17.9169 8.55325 17.889C8.48311 17.6752 8.62338 17.604 8.86731 17.5688C8.91725 17.6706 8.94976 17.7916 8.98978 17.9305C9.16323 17.9067 9.33429 17.8771 9.50364 17.8419C9.5139 17.7669 9.52314 17.6881 9.53032 17.6044C9.61311 17.6888 9.67093 17.7481 9.7048 17.7972C10.6008 17.5852 11.4386 17.2155 12.2214 16.7401C12.5779 16.5239 12.9227 16.2857 13.2566 16.0308C13.3873 15.9387 13.5163 15.8463 13.6418 15.7608C14.0004 15.5931 14.3425 15.8023 14.6846 15.7326C16.2583 15.4885 16.2583 13.7447 16.6695 12.5697C16.7568 12.432 16.8402 12.2921 16.9196 12.1502C17.4766 11.1566 17.8406 10.0601 17.9114 8.86942C17.96 8.29188 17.9524 7.71783 17.8878 7.1525ZM14.7414 2.4694C14.9586 2.5102 14.9521 2.66993 14.8639 2.90465C14.7082 2.89802 14.5385 2.84327 14.3216 2.80211C14.5313 2.63541 14.6127 2.55938 14.7414 2.4694ZM14.7862 3.0724C14.6576 3.16238 14.5761 3.23841 14.4338 3.27991C14.4295 3.1418 14.5469 3.07263 14.7862 3.0724ZM12.7595 1.26933C12.6309 1.35931 12.5495 1.43534 12.4071 1.47684C12.4028 1.33873 12.5203 1.26956 12.7595 1.26933ZM13.3107 2.679C12.9788 2.7763 12.6665 2.76201 12.3678 2.79723C12.4899 2.50009 12.9915 2.45789 13.3107 2.679ZM13.2881 4.13959C13.4277 4.28188 13.4978 4.35338 13.4978 4.42418C13.6374 4.63762 13.5327 5.10007 13.323 5.385C13.2881 5.34943 13.2186 5.27863 13.1837 5.24306C13.1837 5.17156 13.1485 5.13634 13.1136 5.10076C13.1837 4.81583 13.2535 4.5309 13.2881 4.13994V4.13959ZM12.9453 3.57077C12.7417 3.57809 12.6199 3.50939 12.6131 3.30223C12.7691 3.30886 12.9248 3.31548 13.1287 3.30816C13.1218 3.46684 13.1016 3.57809 12.9456 3.57077H12.9453ZM12.6247 4.10437C12.6945 4.24631 12.7294 4.42418 12.7995 4.63762C12.5549 4.53124 12.4499 4.49567 12.3107 4.42453C12.2405 4.21074 12.3805 4.13959 12.6247 4.10437ZM12.1293 1.7684L12.1902 1.80293C12.1088 1.87895 12.075 1.94103 12.0411 2.00346C11.9802 1.96893 11.9665 1.92081 11.9665 1.92081C12.0004 1.85873 12.0815 1.7827 12.129 1.76875L12.1293 1.7684ZM11.6819 3.71306C11.8214 3.85536 11.7981 3.99776 11.6117 4.14029C11.6473 3.96207 11.7164 3.81978 11.6819 3.71306ZM7.85431 17.6047C7.88989 17.4265 7.959 17.2842 7.92444 17.1775C8.06403 17.3198 8.04065 17.4622 7.85431 17.6047ZM8.28366 15.4679C8.22277 15.4334 8.20908 15.3852 8.20908 15.3852C8.24295 15.3232 8.32403 15.2471 8.37159 15.2332L8.43248 15.2677C8.35106 15.3437 8.31719 15.4058 8.28332 15.4682L8.28366 15.4679ZM9.18752 17.0359C8.98397 17.0432 8.86217 16.9745 8.85533 16.7674C9.01134 16.774 9.167 16.7806 9.3709 16.7733C9.36405 16.932 9.34387 17.0432 9.18787 17.0359H9.18752ZM8.61004 16.2627C8.73217 15.9656 9.23371 15.9234 9.5529 16.1445C9.22105 16.2418 8.9087 16.2275 8.61004 16.2627ZM9.00141 14.7348C8.87312 14.8248 8.79136 14.9008 8.64904 14.9423C8.6447 14.8042 8.76216 14.735 9.00141 14.7348ZM10.3103 17.2717C10.2494 17.2371 10.2358 17.189 10.2358 17.189C10.2696 17.1269 10.3507 17.0509 10.3983 17.0369L10.4592 17.0715C10.3777 17.1475 10.3439 17.2096 10.31 17.272L10.3103 17.2717ZM10.4082 16.9933C10.1574 17.0146 9.81119 16.6969 9.66853 16.3719C9.71575 16.3579 9.81051 16.3304 9.85806 16.3164C9.9193 16.3506 9.96686 16.337 10.0141 16.323C10.2248 16.5236 10.4356 16.7241 10.7541 16.9442C10.5642 16.9996 10.4691 17.0275 10.4082 16.993V16.9933ZM9.78793 14.6092C9.82214 14.5472 9.85601 14.4847 9.87585 14.3745C10.0254 14.5398 9.97815 14.5538 9.89638 14.6298C9.84917 14.6438 9.83549 14.5953 9.78759 14.6092H9.78793ZM10.2019 14.4359C10.3853 14.5391 10.5406 14.1799 10.792 14.5252C10.5744 14.4833 10.3712 14.4907 10.1677 14.498C10.1677 14.498 10.2156 14.484 10.2019 14.4359ZM10.6757 16.7457C10.6714 16.6076 10.7888 16.5385 11.0281 16.5382C10.8998 16.6282 10.818 16.7042 10.6757 16.7457ZM11.1057 16.3705C10.9501 16.3638 10.7804 16.3091 10.5635 16.2679C10.7732 16.1012 10.8546 16.0252 10.9833 15.9352C11.2005 15.976 11.194 16.1358 11.1057 16.3705ZM11.5659 15.4501C11.7017 15.568 11.7903 15.6988 11.8984 15.7193C11.7087 15.7749 11.5978 15.6852 11.5659 15.4501ZM11.9231 16.4329C11.8758 16.4468 11.8622 16.3984 11.8143 16.4123C11.8485 16.3502 11.8823 16.2878 11.9022 16.1776C12.0517 16.3429 12.0045 16.3569 11.9227 16.4329H11.9231ZM12.194 16.3014C12.194 16.3014 12.2419 16.2875 12.2282 16.2393C12.4116 16.3426 12.5669 15.9833 12.8184 16.3286C12.6008 16.2868 12.3976 16.2941 12.194 16.3014ZM13.8231 10.9166C13.6757 12.0435 13.1232 12.2122 12.0363 12.3064C11.0969 12.4002 10.0284 12.4191 9.1995 12.4191C8.37056 12.4191 7.28367 12.4002 6.3627 12.3064C5.27581 12.2126 4.70482 12.0435 4.55737 10.9166C4.50195 10.4284 4.46534 9.71481 4.46534 9.00125C4.46534 8.2877 4.50229 7.59297 4.55737 7.08588C4.70482 5.97788 5.27581 5.79025 6.3627 5.69609C7.28367 5.62111 8.37056 5.58344 9.1995 5.58344C9.80264 5.58344 10.532 5.60332 11.2467 5.64308C11.1656 5.57472 11.1006 5.48719 11.1933 5.27898C11.2371 5.41395 11.2949 5.53427 11.3579 5.64936C11.5881 5.66296 11.816 5.6783 12.0363 5.69609C12.5566 5.74108 12.9542 5.80769 13.2436 5.98626C13.1954 5.86593 13.1718 5.73062 13.1834 5.59948C13.4277 5.8485 13.5669 6.13378 13.7417 6.38279C13.6973 6.38767 13.6535 6.38279 13.611 6.37093C13.7133 6.55264 13.7835 6.78491 13.8235 7.08553C13.897 7.59263 13.934 8.28735 13.934 9.0009C13.934 9.71446 13.897 10.428 13.8235 10.9163L13.8231 10.9166ZM14.0561 5.91964C13.9863 5.77735 13.9165 5.63506 13.8115 5.45719C13.9511 5.38639 14.0561 5.35047 14.1256 5.49346C14.2303 5.67133 14.2303 5.81327 14.0561 5.91999V5.91964ZM14.0678 3.80688C14.0069 3.77235 13.9932 3.72422 13.9932 3.72422C14.027 3.66214 14.1081 3.58612 14.1557 3.57217L14.2166 3.60669C14.1352 3.68272 14.1013 3.7448 14.0674 3.80723L14.0678 3.80688ZM14.1656 3.52857C13.9148 3.54985 13.5686 3.23213 13.426 2.90709C13.4732 2.89314 13.5679 2.86559 13.6155 2.85164C13.6767 2.88581 13.7243 2.87221 13.7715 2.85826C13.9822 3.0588 14.193 3.25933 14.5115 3.4794C14.3216 3.53485 14.2265 3.56275 14.1656 3.52822V3.52857ZM14.9716 5.37454C14.7681 5.38186 14.6463 5.31316 14.6394 5.106C14.7954 5.11262 14.9511 5.11925 15.155 5.11192C15.1482 5.27061 15.128 5.38186 14.972 5.37454H14.9716ZM14.3941 4.60135C14.5163 4.3042 15.0178 4.26201 15.337 4.48312C15.0051 4.58007 14.6928 4.56612 14.3941 4.60135ZM15.6603 2.71283C15.8098 2.87814 15.7626 2.89209 15.6808 2.96812C15.6336 2.98207 15.6199 2.93359 15.572 2.94754C15.6062 2.88546 15.6401 2.82304 15.66 2.71283H15.6603ZM16.1923 5.33199C15.9415 5.35326 15.5953 5.03555 15.4526 4.71051C15.4998 4.69656 15.5946 4.669 15.6422 4.65505C15.7034 4.68923 15.751 4.67563 15.7982 4.66168C16.0089 4.86221 16.2196 5.06275 16.5382 5.28281C16.3483 5.33827 16.2532 5.36617 16.1923 5.33164V5.33199ZM16.8898 4.70876C16.7342 4.70214 16.5645 4.64738 16.3476 4.60623C16.5573 4.43952 16.6387 4.36349 16.7674 4.27351C16.9846 4.31432 16.9781 4.47405 16.8898 4.70876Z" fill="#E9E9E9"/>
<path id="Vector_2" fill-rule="evenodd" clip-rule="evenodd" d="M8.24194 10.4644L10.7106 8.99965L8.24194 7.55371V10.4644Z" fill="#E9E9E9"/>
</g>
</g>
</svg>
