<svg width="18" height="18" viewBox="0 0 18 18" fill="none" xmlns="http://www.w3.org/2000/svg">
<g id="Layer 1">
<g id="Group">
<path id="Vector" fill-rule="evenodd" clip-rule="evenodd" d="M17.8877 7.15262C17.7159 5.54799 17.0656 4.04834 16.0372 2.83293C16.0088 2.83397 15.9804 2.83467 15.9523 2.83571C15.9523 2.83571 15.9992 2.82176 15.9865 2.77468C15.8418 2.60693 15.6899 2.44476 15.5312 2.28852C15.3971 2.3199 15.3701 2.28921 15.3417 2.10856C14.9735 1.76957 14.5716 1.46127 14.1371 1.18993C13.9718 1.08949 13.8049 0.997073 13.6366 0.911976C13.783 1.0745 13.7358 1.0888 13.6547 1.16448C13.6075 1.17843 13.5938 1.12995 13.5459 1.1439C13.5798 1.08182 13.6137 1.02009 13.6338 0.910581C12.3899 0.281774 11.0635 0.0582214 9.76728 0.167731C9.60752 0.162499 9.47307 0.0753104 9.31022 0.0383423C8.76626 -0.0652383 8.18467 0.0393886 7.76045 0.414999C7.61847 0.52695 7.52952 0.689819 7.37626 0.752944C6.76319 1.00509 6.17579 1.33013 5.62875 1.7183C5.4919 1.81525 5.53432 1.75108 5.49738 1.7605C5.34514 1.74794 5.2425 1.88745 5.13987 1.9572C4.45564 2.68959 3.83984 3.35222 3.01877 3.94511C2.74508 4.18924 2.57402 4.53799 2.3431 4.79677C2.2367 4.93139 2.13475 5.0695 2.03657 5.21005C0.369794 7.60461 -0.0924001 10.8557 1.20523 13.6053C1.27947 13.7643 1.35884 13.9199 1.443 14.0719C1.5275 14.224 1.61679 14.3729 1.71088 14.5183C1.78648 14.6516 1.88912 14.7562 1.88912 14.8957C2.02596 15.7676 2.09438 16.6395 2.71019 17.3021C3.32599 17.9299 4.14706 17.8601 4.86549 17.4416C4.96813 17.3719 5.10497 17.4067 5.20042 17.4402C5.34993 17.4957 5.50696 17.5546 5.66741 17.6094C6.62908 17.9376 7.65918 18.0694 8.69715 17.9648C8.70229 17.9644 8.70742 17.9637 8.71255 17.963C8.65781 17.9396 8.60786 17.917 8.55312 17.8891C8.48299 17.6753 8.62326 17.6041 8.86718 17.5689C8.91713 17.6708 8.94963 17.7918 8.98966 17.9306C9.16311 17.9069 9.33417 17.8772 9.50351 17.842C9.51378 17.767 9.52301 17.6882 9.5302 17.6045C9.61299 17.6889 9.67081 17.7482 9.70468 17.7974C10.6007 17.5853 11.4385 17.2156 12.2213 16.7403C12.5777 16.524 12.9226 16.2858 13.2565 16.0309C13.3872 15.9388 13.5162 15.8464 13.6417 15.761C14.0002 15.5932 14.3424 15.8025 14.6845 15.7327C16.2582 15.4886 16.2582 13.7448 16.6694 12.5698C16.7566 12.4321 16.8401 12.2922 16.9195 12.1503C17.4764 11.1567 17.8405 10.0602 17.9113 8.86954C17.9599 8.292 17.9523 7.71795 17.8877 7.15262ZM14.7413 2.46952C14.9585 2.51033 14.952 2.67006 14.8637 2.90477C14.7081 2.89814 14.5384 2.84339 14.3215 2.80223C14.5312 2.63553 14.6126 2.5595 14.7413 2.46952ZM14.7861 3.07252C14.6574 3.1625 14.576 3.23853 14.4337 3.28003C14.4294 3.14192 14.5468 3.07275 14.7861 3.07252ZM12.7594 1.26945C12.6308 1.35943 12.5493 1.43546 12.407 1.47696C12.4027 1.33885 12.5201 1.26968 12.7594 1.26945ZM13.3105 2.67912C12.9787 2.77643 12.6663 2.76213 12.3677 2.79735C12.4898 2.50021 12.9914 2.45801 13.3105 2.67912ZM13.288 4.13971C13.4275 4.28201 13.4977 4.3535 13.4977 4.4243C13.6373 4.63774 13.5326 5.10019 13.3229 5.38512C13.288 5.34955 13.2185 5.27875 13.1836 5.24318C13.1836 5.17168 13.1484 5.13646 13.1135 5.10089C13.1836 4.81595 13.2534 4.53102 13.288 4.14006V4.13971ZM12.9452 3.57089C12.7416 3.57822 12.6198 3.50951 12.613 3.30235C12.769 3.30898 12.9246 3.3156 13.1285 3.30828C13.1217 3.46696 13.1015 3.57822 12.9455 3.57089H12.9452ZM12.6246 4.10449C12.6944 4.24643 12.7293 4.4243 12.7994 4.63774C12.5548 4.53137 12.4498 4.49579 12.3105 4.42465C12.2404 4.21086 12.3803 4.13971 12.6246 4.10449ZM12.1292 1.76852L12.1901 1.80305C12.1087 1.87908 12.0748 1.94116 12.041 2.00358C11.9801 1.96906 11.9664 1.92093 11.9664 1.92093C12.0003 1.85885 12.0813 1.78282 12.1289 1.76887L12.1292 1.76852ZM11.6817 3.71319C11.8213 3.85548 11.7979 3.99789 11.6116 4.14041C11.6472 3.9622 11.7163 3.8199 11.6817 3.71319ZM7.85419 17.6048C7.88977 17.4266 7.95888 17.2843 7.92432 17.1776C8.0639 17.3199 8.04053 17.4623 7.85419 17.6048ZM8.28354 15.468C8.22264 15.4335 8.20896 15.3854 8.20896 15.3854C8.24283 15.3233 8.32391 15.2472 8.37146 15.2333L8.43236 15.2678C8.35094 15.3439 8.31707 15.4059 8.2832 15.4684L8.28354 15.468ZM9.1874 17.036C8.98384 17.0433 8.86205 16.9746 8.85521 16.7675C9.01121 16.7741 9.16687 16.7807 9.37077 16.7734C9.36393 16.9321 9.34375 17.0433 9.18774 17.036H9.1874ZM8.60992 16.2628C8.73205 15.9657 9.23359 15.9235 9.55278 16.1446C9.22093 16.2419 8.90858 16.2276 8.60992 16.2628ZM9.00129 14.7349C8.873 14.8249 8.79123 14.9009 8.64892 14.9424C8.64458 14.8043 8.76204 14.7352 9.00129 14.7349ZM10.3102 17.2718C10.2493 17.2372 10.2356 17.1891 10.2356 17.1891C10.2695 17.127 10.3506 17.051 10.3981 17.0371L10.459 17.0716C10.3776 17.1476 10.3437 17.2097 10.3099 17.2721L10.3102 17.2718ZM10.4081 16.9935C10.1573 17.0147 9.81107 16.697 9.66841 16.372C9.71562 16.358 9.81039 16.3305 9.85794 16.3165C9.91918 16.3507 9.96673 16.3371 10.0139 16.3232C10.2247 16.5237 10.4354 16.7242 10.7539 16.9443C10.5641 16.9997 10.469 17.0276 10.4081 16.9931V16.9935ZM9.78781 14.6094C9.82202 14.5473 9.85589 14.4849 9.87573 14.3747C10.0252 14.54 9.97802 14.5539 9.89626 14.6299C9.84905 14.6439 9.83536 14.5954 9.78747 14.6094H9.78781ZM10.2018 14.436C10.3851 14.5393 10.5405 14.1801 10.7919 14.5253C10.5743 14.4835 10.3711 14.4908 10.1676 14.4981C10.1676 14.4981 10.2154 14.4842 10.2018 14.436ZM10.6756 16.7459C10.6713 16.6077 10.7887 16.5386 11.028 16.5383C10.8997 16.6283 10.8179 16.7043 10.6756 16.7459ZM11.1056 16.3706C10.95 16.364 10.7803 16.3092 10.5634 16.2681C10.7731 16.1014 10.8545 16.0253 10.9832 15.9353C11.2004 15.9761 11.1939 16.1359 11.1056 16.3706ZM11.5658 15.4502C11.7016 15.5681 11.7902 15.6989 11.8983 15.7195C11.7085 15.775 11.5977 15.6853 11.5658 15.4502ZM11.9229 16.433C11.8757 16.447 11.862 16.3985 11.8141 16.4124C11.8484 16.3504 11.8822 16.2879 11.9021 16.1777C12.0516 16.343 12.0044 16.357 11.9226 16.433H11.9229ZM12.1939 16.3015C12.1939 16.3015 12.2418 16.2876 12.2281 16.2395C12.4115 16.3427 12.5668 15.9835 12.8182 16.3287C12.6007 16.2869 12.3974 16.2942 12.1939 16.3015ZM13.823 10.9167C13.6756 12.0436 13.1231 12.2124 12.0362 12.3065C11.0967 12.4004 10.0283 12.4192 9.19938 12.4192C8.37044 12.4192 7.28355 12.4004 6.36258 12.3065C5.27569 12.2127 4.7047 12.0436 4.55725 10.9167C4.50183 10.4285 4.46522 9.71493 4.46522 9.00137C4.46522 8.28782 4.50217 7.5931 4.55725 7.08601C4.7047 5.97801 5.27569 5.79038 6.36258 5.69621C7.28355 5.62123 8.37044 5.58356 9.19938 5.58356C9.80252 5.58356 10.5319 5.60344 11.2466 5.6432C11.1655 5.57485 11.1005 5.48731 11.1932 5.2791C11.237 5.41407 11.2948 5.53439 11.3578 5.64948C11.588 5.66308 11.8159 5.67843 12.0362 5.69621C12.5565 5.7412 12.9541 5.80781 13.2435 5.98638C13.1952 5.86606 13.1716 5.73074 13.1833 5.59961C13.4275 5.84862 13.5668 6.1339 13.7416 6.38291C13.6971 6.3878 13.6533 6.38291 13.6109 6.37106C13.7132 6.55276 13.7833 6.78503 13.8234 7.08566C13.8969 7.59275 13.9339 8.28747 13.9339 9.00103C13.9339 9.71458 13.8969 10.4281 13.8234 10.9164L13.823 10.9167ZM14.056 5.91977C13.9862 5.77747 13.9164 5.63518 13.8114 5.45731C13.951 5.38652 14.056 5.3506 14.1255 5.49359C14.2301 5.67145 14.2301 5.81339 14.056 5.92011V5.91977ZM14.0676 3.807C14.0067 3.77247 13.9931 3.72435 13.9931 3.72435C14.0269 3.66227 14.108 3.58624 14.1556 3.57229L14.2165 3.60681C14.135 3.68284 14.1012 3.74492 14.0673 3.80735L14.0676 3.807ZM14.1655 3.52869C13.9147 3.54997 13.5685 3.23225 13.4258 2.90721C13.473 2.89326 13.5678 2.86571 13.6154 2.85176C13.6766 2.88594 13.7242 2.87233 13.7714 2.85838C13.9821 3.05892 14.1929 3.25945 14.5114 3.47952C14.3215 3.53497 14.2264 3.56287 14.1655 3.52834V3.52869ZM14.9715 5.37466C14.7679 5.38198 14.6461 5.31328 14.6393 5.10612C14.7953 5.11274 14.951 5.11937 15.1549 5.11205C15.148 5.27073 15.1278 5.38198 14.9718 5.37466H14.9715ZM14.394 4.60147C14.5161 4.30433 15.0177 4.26213 15.3369 4.48324C15.005 4.58019 14.6927 4.56624 14.394 4.60147ZM15.6602 2.71295C15.8097 2.87826 15.7625 2.89221 15.6807 2.96824C15.6335 2.98219 15.6198 2.93372 15.5719 2.94767C15.6061 2.88559 15.64 2.82316 15.6598 2.71295H15.6602ZM16.1922 5.33211C15.9414 5.35338 15.5952 5.03567 15.4525 4.71063C15.4997 4.69668 15.5945 4.66913 15.642 4.65518C15.7033 4.68935 15.7508 4.67575 15.798 4.6618C16.0088 4.86234 16.2195 5.06287 16.538 5.28294C16.3482 5.33839 16.2531 5.36629 16.1922 5.33176V5.33211ZM16.8897 4.70888C16.7341 4.70226 16.5644 4.6475 16.3475 4.60635C16.5572 4.43964 16.6386 4.36362 16.7672 4.27364C16.9845 4.31444 16.978 4.47417 16.8897 4.70888Z" fill="#D82121"/>
<path id="Vector_2" fill-rule="evenodd" clip-rule="evenodd" d="M8.2417 10.4647L10.7104 8.9999L8.2417 7.55396V10.4647Z" fill="#D82121"/>
</g>
</g>
</svg>
