<svg width="128" height="53" viewBox="0 0 128 53" fill="none" xmlns="http://www.w3.org/2000/svg">
<g id="Layer 1">
<g id="Group">
<g id="Group_2">
<g id="Group_3">
<path id="Vector" d="M0.74579 6.37037C0.905613 5.89193 1.06544 5.45779 1.26077 5.0591C1.53602 4.54522 1.85567 4.06679 2.17531 3.54405C2.25522 3.46431 2.33514 3.34914 2.41505 3.30484C2.65478 3.06562 2.93003 2.79096 3.24968 2.63148C3.72914 2.35683 4.24413 2.03787 4.88342 2.07331H4.96333C5.71804 1.99357 6.35733 2.23279 6.96111 2.66692C7.20084 2.8264 7.44057 2.98588 7.71582 3.14536C8.35511 3.54405 8.71027 4.18197 8.91449 4.93506C9.18974 5.76789 9.18974 6.68932 9.15423 7.60189C9.15423 8.31955 9.11871 9.07264 9.07432 9.82573C9.07432 10.0206 9.02992 10.1801 8.9944 10.3839C8.91449 10.5788 8.75467 10.5788 8.55933 10.6586V10.1447C8.47942 10.1092 8.39951 10.1092 8.28408 10.0649C8.24857 10.1801 8.16865 10.3396 8.08874 10.4991C8.13314 10.5434 8.21305 10.5788 8.28408 10.6143L8.24857 10.6586C8.08874 10.7383 7.8934 10.8535 7.7691 10.694C7.60928 10.5345 7.68919 10.3396 7.73358 10.1358C7.7691 10.0561 7.7691 10.0206 7.7691 9.97635V9.89661C7.65367 10.0118 7.57376 10.0561 7.44945 10.1713C7.41394 10.0915 7.36954 10.0118 7.33403 9.97635C7.1742 10.0915 7.2186 10.2953 7.13869 10.4548V10.4902C7.26299 10.6497 7.26299 10.6851 7.10317 10.7294C6.70362 10.8092 6.30406 10.7294 5.9045 10.694C5.74468 10.694 5.70916 10.5788 5.70916 10.4548V9.06378C5.67365 8.26639 5.67365 7.51329 5.67365 6.7602V6.40581C5.67365 6.05141 5.51383 5.81219 5.19418 5.68815C5.15866 5.72359 5.11427 5.72359 5.07875 5.72359C4.59929 6.31721 4.19973 6.91968 4.11982 7.71707C3.96 9.26756 3.96 10.818 3.96 12.3685V13.3608C3.96 13.8747 4.00439 13.9988 4.51938 14.1139C4.91893 14.2291 5.3984 14.3088 5.87787 14.4329C7.15645 14.7075 8.23081 15.3898 9.02992 16.4264C9.38508 16.8605 9.5449 17.4187 9.70473 17.9769C9.86455 18.7299 10.0244 19.5273 10.1398 20.2804C10.2996 21.317 10.3351 22.3891 10.2996 23.4611C10.2641 24.0547 10.2197 24.6572 10.1842 25.2951C10.1043 26.0925 9.98885 26.9254 9.86455 27.7228C9.78464 28.1569 9.70473 28.5201 9.5449 28.8745C9.18974 29.5479 8.71027 30.1061 8.07098 30.5491C7.87565 30.7085 7.63591 30.868 7.4317 30.9832C6.79241 31.3376 6.1176 31.6566 5.36288 31.6566C4.76799 31.7363 4.1287 31.6566 3.60484 31.3376C3.00994 31.0629 2.56599 30.6997 2.16643 30.2212C2.13092 30.2212 2.08652 30.1415 2.04213 30.1061C1.84679 29.9466 1.9267 29.7074 1.72248 29.5479C1.56266 29.3884 1.52714 29.1138 1.40284 28.9543C1.32293 28.7151 1.24302 28.4758 1.2075 28.2809C1.12759 28.0063 1.01216 27.7228 0.93225 27.4481C0.736911 26.6153 0.532694 25.7736 0.29296 24.9407C0.29296 24.7813 0.328476 24.6661 0.328476 24.5066C0.328476 24.3914 0.248565 24.2674 0.168654 24.1522C0.124259 24.1168 0.124259 24.037 0.168654 23.9927C0.168654 23.8776 0.20417 23.8333 0.408387 23.8776C0.443903 23.8421 0.443903 23.7181 0.443903 23.6383C0.328476 23.7181 0.284081 23.7181 0.20417 23.7978C0.124259 23.6826 0.0798634 23.5586 0.0798634 23.4434C-0.0355639 22.6903 -4.78067e-05 21.8929 0.115379 21.1398C0.115379 21.0247 0.195291 20.9449 0.275202 20.8652C0.47054 20.9449 0.594847 20.7057 0.754669 20.626C0.83458 20.7411 0.914492 20.8652 1.02992 20.9449C1.02992 20.8652 0.994403 20.7854 0.994403 20.7057H1.79351V20.9006C2.14868 20.7854 2.51272 20.8209 2.83236 20.9804C2.75245 21.1398 2.55711 21.255 2.59263 21.4942C2.94779 21.4942 2.99218 21.1753 3.15201 21.0158C3.34734 21.0601 3.11649 21.255 3.31183 21.2905C3.35622 21.2905 3.43613 21.255 3.47165 21.255C3.63147 21.3348 3.63147 21.4942 3.58708 21.6537C3.55156 21.9284 3.50717 22.2119 3.47165 22.4511C3.47165 22.5663 3.55156 22.6106 3.55156 22.7258C3.55156 22.9207 3.63147 23.2042 3.31183 23.3991C3.63147 23.4789 3.63147 23.7181 3.71138 23.9573C3.7913 24.5155 3.95112 25.1091 4.11094 25.6318V26.1102C4.38619 26.5089 4.43058 27.0228 4.59041 27.4215C4.67032 27.5367 4.71471 27.6164 4.75023 27.6962C4.91005 28.1303 5.10539 28.1746 5.54934 27.9708C5.59374 27.9354 5.67365 27.8557 5.74468 27.8557C6.17975 27.581 6.38397 27.2177 6.41949 26.7039C6.4994 26.0305 6.61482 25.3926 6.65922 24.7104C6.81904 23.5586 6.77465 22.3271 6.65922 21.1664C6.6237 20.369 6.41949 19.5716 6.17975 18.8185C6.01993 18.3047 5.58486 18.0211 5.061 17.8617C4.70583 17.7819 4.26188 17.7022 3.90672 17.6225C3.47165 17.5073 3.07209 17.4275 2.67254 17.3478C2.55711 17.3035 2.4772 17.2326 2.35289 17.1883C2.11316 17.0288 1.87343 16.8694 1.67809 16.7099C1.27853 16.515 0.958887 15.9922 0.878976 15.5935C0.843459 15.4784 0.754669 15.3986 0.719153 15.2746C0.559331 14.7961 0.443903 14.362 0.443903 13.8393V12.5634C0.523815 12.4483 0.719153 12.7229 0.763548 12.404C0.648121 12.3685 0.56821 12.3242 0.443903 12.2445V11.7661C0.488298 11.5711 0.603726 11.4914 0.799064 11.5711C0.878976 11.456 0.914492 11.3762 0.799064 11.2965C0.674758 11.1813 0.603726 11.2522 0.523815 11.3319C0.443903 11.137 0.443903 11.0927 0.683637 11.013C0.843459 10.9775 1.0388 10.8978 1.08319 10.6586H0.763548C0.763548 10.6586 0.728032 10.6143 0.648121 10.4991C0.612605 10.6586 0.612605 10.694 0.612605 10.818C0.577089 10.7383 0.577089 10.7029 0.577089 10.6586C0.541573 10.4991 0.497178 10.3396 0.452782 10.1801V9.70169C0.497178 9.02834 0.532694 8.34613 0.612605 7.70821C0.612605 7.43355 0.648121 7.15004 0.692516 6.83108C0.772427 6.83108 0.816822 6.86652 0.852338 6.86652C0.852338 6.90196 0.816822 6.94626 0.816822 6.9817C0.816822 6.9817 0.852338 7.026 0.896734 7.06144C0.896734 7.06144 0.93225 7.06144 0.93225 7.026V6.9817C0.93225 6.9817 0.896734 6.90196 0.852338 6.86652C0.728032 6.70704 0.657 6.51212 0.772427 6.35265L0.74579 6.37037ZM0.426145 21.1753C0.390629 21.255 0.346234 21.2905 0.310718 21.3348C0.310718 21.3348 0.346234 21.3348 0.346234 21.3791C0.38175 21.3348 0.426145 21.2993 0.426145 21.2639V21.1841V21.1753ZM0.47054 24.5155C0.47054 24.5155 0.550452 24.5598 0.585968 24.6306V24.5509C0.585968 24.5509 0.550452 24.5066 0.506057 24.4712L0.47054 24.5066V24.5155ZM0.905613 23.7624C1.10095 23.7978 1.18086 23.7269 1.22526 23.5675C1.06544 23.5675 0.950008 23.6118 0.905613 23.7624ZM1.02104 6.68932C1.02104 6.68932 0.985524 6.73362 0.941129 6.76906C0.976645 6.8045 1.02104 6.8488 1.05656 6.8488C1.05656 6.8488 1.05656 6.8045 1.10095 6.76906C1.05656 6.73362 1.05656 6.68932 1.02104 6.68932ZM1.26077 21.3348C1.22526 21.1398 1.06544 21.1753 0.985524 21.2993C1.06544 21.2993 1.18086 21.3348 1.26077 21.3348ZM1.22526 23.2839C1.22526 23.2839 1.34068 23.2396 1.38508 23.1688C1.34956 23.1333 1.26965 23.1333 1.22526 23.089C1.22526 23.1688 1.18974 23.2485 1.18974 23.2485L1.22526 23.2928V23.2839ZM1.34068 11.3053C1.34068 11.3053 1.4206 11.3053 1.46499 11.261C1.42948 11.2256 1.42948 11.1813 1.38508 11.1459C1.38508 11.1902 1.34956 11.1902 1.30517 11.2256C1.34068 11.261 1.34068 11.3053 1.34068 11.3053ZM1.69585 22.8055C1.58042 22.8852 1.50051 22.965 1.4206 23.0802L1.50051 23.1599C1.58042 23.0802 1.69585 22.9207 1.77576 22.8409C1.74024 22.8409 1.69585 22.8055 1.69585 22.8055ZM2.01549 23.5586C2.01549 23.5586 2.0954 23.3991 2.1398 23.3637C2.1398 23.3282 2.10428 23.3282 2.10428 23.2839C2.02437 23.3637 1.94446 23.4434 1.86455 23.5232V23.4434C1.70472 23.408 1.5449 23.4434 1.5449 23.6383C1.70472 23.7181 1.74024 23.5586 1.86455 23.5232C1.90006 23.5232 1.94446 23.5586 2.02437 23.5586H2.01549ZM1.82015 21.6892C1.82015 21.6892 1.90006 21.6449 1.93558 21.6449C1.93558 21.6449 1.90006 21.6094 1.90006 21.5651C1.86455 21.6006 1.82015 21.6006 1.78464 21.6449C1.78464 21.6449 1.79647 21.6596 1.82015 21.6892ZM2.01549 24.4712C2.0954 24.4712 2.17531 24.4357 2.21083 24.4357V24.356C2.21083 24.356 2.0954 24.356 2.01549 24.3914V24.4712ZM2.53047 22.8409C2.77021 22.6017 2.77021 22.522 2.6459 22.4068C2.59263 22.5899 2.47424 22.6962 2.29074 22.7258C2.21083 22.8055 2.17531 22.8852 2.0954 22.9207C2.13092 23.0359 2.17531 23.0802 2.21083 23.1599H2.29074C2.25522 23.0004 2.41505 22.8852 2.29074 22.7258L2.53047 22.8409ZM2.13092 24.2762C2.13092 24.2762 2.21083 24.2408 2.29074 24.1965V24.1611C2.21083 24.1965 2.17531 24.1965 2.0954 24.1965C2.0954 24.1965 2.13092 24.2408 2.13092 24.2762ZM2.16643 10.313C2.27298 10.4725 2.4328 10.5109 2.6459 10.4282C2.53047 10.189 2.32626 10.2333 2.16643 10.313ZM2.28186 23.7624H2.4772V23.7269C2.39729 23.6826 2.31738 23.6826 2.28186 23.6826V23.7624ZM2.71693 23.2485C2.71693 23.2485 2.75245 23.1333 2.79684 23.089H2.76133C2.76133 23.089 2.68142 23.1688 2.63702 23.2042C2.63702 23.2396 2.68142 23.2396 2.71693 23.2396V23.2485ZM2.79684 23.7269C2.87676 23.6118 2.99218 23.532 3.11649 23.408C3.03658 23.3282 2.95667 23.2485 2.87676 23.089C2.79684 23.3637 2.76133 23.5232 2.71693 23.6826C2.71693 23.6826 2.75245 23.6826 2.79684 23.7269ZM2.95667 23.0093C2.95667 23.0093 3.08097 22.9295 3.11649 22.9295V22.8941C3.03658 22.8941 2.95667 22.9295 2.92115 22.9295C2.92115 22.9295 2.92115 22.9738 2.95667 23.0093ZM3.00106 25.9153C3.16088 25.9596 3.32071 25.9596 3.48053 25.9951C3.40358 25.8651 3.24376 25.812 3.00106 25.8356V25.9153ZM3.27631 24.0813C3.27631 24.0813 3.2408 24.1168 3.2408 24.1611L3.27631 24.1965C3.27631 24.1965 3.32071 24.1965 3.40062 24.1611C3.32071 24.1256 3.32071 24.0813 3.27631 24.0813ZM3.59596 25.7559V25.9153C3.59596 25.9153 3.67587 25.9596 3.72026 25.9596C3.75578 25.9153 3.75578 25.8445 3.75578 25.8002V25.6407C3.67587 25.6761 3.59596 25.7204 3.59596 25.7559Z" fill="white"/>
<path id="Vector_2" d="M15.3784 30.797C15.1831 30.7615 15.0233 30.6818 14.8191 30.797C14.6948 30.8767 14.5438 30.8767 14.4195 30.8767C13.9045 30.8413 13.4251 30.7615 12.9456 30.7172H12.6703C12.5105 30.7172 12.3507 30.7172 12.3152 30.6729C12.1909 30.5578 12.0399 30.3983 12.0399 30.2388V28.644C12.0754 28.4845 12.0399 28.3251 12.1997 28.2453C12.2797 28.2099 12.3241 28.0858 12.3241 28.0061C12.3241 27.2087 12.2885 26.4556 12.2441 25.7025C12.2441 24.9849 12.2441 24.2318 12.1997 23.5141C12.1997 22.2029 12.0843 20.8473 11.96 19.5715C11.8801 18.4551 11.8801 17.3476 11.8002 16.2313C11.7203 15.1592 11.6404 14.0872 11.5605 12.9708C11.5249 11.7393 11.445 10.5078 11.4006 9.26738C11.4006 8.59403 11.4006 7.95612 11.4362 7.3182C11.4362 6.76003 11.4717 6.24615 11.5161 5.72342C11.5161 5.56394 11.5516 5.36902 11.7114 5.1298C11.7114 5.60824 12.031 5.72342 12.3063 5.96264C12.3418 5.8829 12.3862 5.72342 12.3418 5.72342C12.182 5.56394 12.4572 5.32472 12.182 5.24498C12.1465 5.28042 12.1021 5.36016 12.0222 5.4399V5.36016C12.1376 5.12094 12.2619 4.92603 12.3773 4.76655C12.4928 4.65137 12.6526 4.68681 12.697 4.81085C12.8568 5.05006 12.9722 5.24498 13.1764 5.36902C13.2564 5.40446 13.2564 5.44876 13.2919 5.4842C13.3718 5.28928 13.4872 5.0855 13.6115 4.92603C13.7713 4.92603 13.9312 4.84629 14.0466 4.76655C14.2419 4.92603 14.2419 5.0855 14.2419 5.32472C14.0821 5.32472 14.0466 5.36016 14.0022 5.4842C14.2419 5.44876 14.4017 5.51964 14.5616 5.24498C14.5971 5.20068 14.7569 5.16524 14.8812 5.1298C14.9966 5.56394 15.041 5.96264 14.9611 6.36133C14.9256 6.71573 14.9256 7.11442 14.9256 7.47768C14.8901 8.62947 14.9611 9.861 15.041 11.0216C15.0854 11.5798 15.041 12.0937 15.0854 12.6962C15.1209 13.4493 15.2009 14.2112 15.2009 14.9643C15.2364 15.4782 15.3163 16.0364 15.3163 16.5591C15.3518 17.6754 15.4406 18.7829 15.5116 19.8993C15.627 20.7321 15.6714 21.5738 15.6714 22.4066C15.7158 23.204 15.7514 24.0369 15.7514 24.8343C15.7869 26.0658 15.8313 27.2619 15.8313 28.4934C15.8313 29.211 15.8313 29.9287 15.6359 30.6375C15.6004 30.7172 15.556 30.797 15.5205 30.8767C15.4406 30.8767 15.4051 30.8413 15.3607 30.797H15.3784ZM12.1909 4.73111C12.0754 4.92603 11.9511 4.84629 11.8357 4.76655C11.9156 4.76655 12.031 4.76655 12.1909 4.73111ZM12.5105 6.12211C12.5549 6.04237 12.5904 6.04237 12.6348 5.96264C12.5993 5.96264 12.5549 5.9272 12.5549 5.9272C12.5105 6.00694 12.5105 6.04237 12.475 6.08667L12.5105 6.12211ZM12.6348 6.76003C12.7946 6.68029 12.7502 6.60055 12.6703 6.48537C12.6703 6.56511 12.5105 6.60055 12.6348 6.76003ZM12.99 6.04237V5.76772C12.9101 5.80316 12.8746 5.80316 12.7502 5.8829C12.8302 5.91834 12.9101 5.96264 12.99 6.04237ZM14.5882 5.9272L14.7036 6.04237C14.7036 6.04237 14.7391 6.04237 14.7391 6.00694C14.7391 5.9715 14.7036 5.9272 14.6592 5.89176C14.6592 5.89176 14.6326 5.90357 14.5793 5.9272H14.5882Z" fill="white"/>
<path id="Vector_3" d="M14.304 0C14.304 0.0797392 14.3395 0.194918 14.4283 0.239218C14.5882 0.318957 14.5438 0.478435 14.5882 0.637914V0.956871C14.5882 1.39101 14.5882 1.7897 14.5882 2.2327C14.5882 2.39218 14.4283 2.55165 14.3129 2.66683C14.2774 2.71113 14.1176 2.71113 13.9577 2.71113H13.6825C13.203 2.74657 12.7236 2.82631 12.2086 2.87061C12.0843 2.87061 11.9333 2.87061 11.809 2.79087C11.6137 2.67569 11.4539 2.75543 11.2496 2.79087C11.2052 2.82631 11.1697 2.87061 11.0898 2.87061C11.0543 2.79087 11.0099 2.71113 10.9744 2.63139C10.7791 1.91374 10.7791 1.19609 10.7791 0.487295L14.3307 0.00885991L14.304 0Z" fill="white"/>
<path id="Vector_4" d="M29.0609 12.6964V13.5735C28.981 13.8482 29.0609 14.1317 29.0609 14.4063C29.0965 15.6379 29.0965 16.9137 29.1409 18.1452C29.1409 18.6236 29.1053 19.1375 29.1053 19.616C29.1053 20.0147 29.1409 20.369 29.1409 20.688C29.1409 21.2816 29.1409 21.8044 29.1764 22.398C29.1764 22.7967 29.2119 23.2308 29.2119 23.6738V25.304C29.2119 26.2963 29.2119 27.2975 29.3717 28.2898C29.3717 28.529 29.3717 28.7682 29.4871 28.9632C29.5227 29.0429 29.4871 29.1226 29.4871 29.2024C29.4516 29.2821 29.4516 29.3973 29.4072 29.477C29.3717 29.5125 29.2918 29.477 29.2474 29.5125C29.203 29.5479 29.1675 29.6277 29.203 29.672C29.203 29.9466 29.0432 30.0264 28.8834 30.1504C28.688 30.0707 28.8478 29.9555 28.8035 29.8314C28.6436 29.9909 28.3684 29.9909 28.324 30.2656C28.1642 30.3453 28.0043 30.4251 27.809 30.4251C27.6936 30.4251 27.5338 30.3896 27.3295 30.3453C27.3651 30.4251 27.4094 30.5402 27.445 30.62C27.2052 30.7351 27.1253 31.0187 26.8057 31.0541C26.6902 30.9389 26.5659 30.7351 26.4505 30.5757C26.415 30.5757 26.415 30.5314 26.3706 30.5314C26.0954 30.5314 26.051 30.2567 25.971 30.0972C25.7313 29.6985 25.536 29.2644 25.3318 28.8657C25.2163 28.591 25.092 28.3075 24.9766 28.0329C24.8168 27.5544 24.4971 27.2 24.2574 26.757C24.0621 26.4381 23.9022 26.1191 23.7424 25.8002C23.183 24.6484 22.748 23.4966 22.4283 22.2562C22.3484 21.9373 22.1886 21.698 22.1087 21.3791C22.0288 21.1399 21.9932 20.8209 21.9133 20.5462C21.8334 20.1919 21.7535 19.7134 21.5937 19.3502C21.3983 18.7122 21.1142 18.0743 20.9189 17.4364C20.9189 17.4364 20.8804 17.4098 20.8035 17.3567V17.5959C20.8834 18.7122 20.9189 19.7843 20.9633 20.8563C20.9988 21.6094 21.0432 22.4068 21.0787 23.1599C21.1586 24.1522 21.2385 25.2331 21.3184 26.2255C21.3983 27.0228 21.3983 27.7405 21.4783 28.4493C21.4783 28.7682 21.4427 29.0872 21.4427 29.4062V29.7251C21.4427 29.92 21.4783 30.0795 21.3628 30.2833C21.203 30.2479 21.0876 30.2479 20.9278 30.3187C20.7679 30.3985 20.5282 30.363 20.3329 30.239C20.3329 30.239 20.3062 30.2124 20.253 30.1593C20.173 30.1947 20.1375 30.2744 20.0576 30.3187C19.9777 30.363 19.8623 30.3985 19.7824 30.3985C19.587 30.4339 19.3828 30.363 19.223 30.363C19.1431 30.363 19.0632 30.3985 19.0276 30.4428C18.9122 30.5579 18.7524 30.5225 18.6281 30.5225C18.4683 30.5225 18.3084 30.5225 18.193 30.4428C18.0687 30.4073 18.0332 30.363 17.9977 30.2479C17.9622 30.1681 17.9622 30.0529 17.9622 29.8935C17.9977 29.0961 17.9266 28.343 17.8823 27.5456C17.8023 26.8279 17.7579 26.0305 17.7579 25.2774C17.678 24.3649 17.5981 23.4877 17.5182 22.5752C17.4827 22.0967 17.4827 21.6183 17.4827 21.1399C17.4383 20.626 17.4383 20.0235 17.4383 19.4653C17.2785 17.9503 17.2785 16.4441 17.2785 14.9291V12.9799C17.2785 12.5812 17.3584 12.2268 17.3939 11.8635C17.4294 11.5091 17.4294 11.1104 17.4294 10.7915C17.3939 10.0738 17.3939 9.35618 17.3495 8.68282C17.3495 8.44361 17.2696 8.20439 17.1897 7.96517C17.0299 7.61077 17.2252 7.29182 17.3495 6.97286C17.385 6.97286 17.4738 6.93742 17.5449 6.89312C18.2197 6.61847 18.8589 6.45899 19.5426 6.33495C19.7025 6.33495 19.8179 6.29951 19.9777 6.21977C20.173 6.10459 20.3773 6.14003 20.4572 6.33495C20.6969 6.81338 21.0521 7.16778 21.2918 7.61078C21.4871 7.92973 21.6114 8.24869 21.7269 8.60309C22.0021 9.35618 22.2863 10.0384 22.526 10.7915C22.6858 11.2699 22.8012 11.7484 22.9611 12.2268C23.0765 12.7052 23.2807 13.1837 23.3961 13.6621C23.476 13.9013 23.5204 14.1405 23.6359 14.4152C23.6359 14.5304 23.7513 14.6898 23.7957 14.8139C23.8756 15.0885 23.9555 15.3721 24.0354 15.6113C24.1153 15.8505 24.1597 16.0454 24.2308 16.2492C24.3906 16.6036 24.5504 17.0023 24.6658 17.3212C24.8257 17.7997 24.9411 18.2781 25.0654 18.7122C25.2252 19.1907 25.3051 19.6691 25.4205 20.1476C25.4561 20.2273 25.536 20.3425 25.5804 20.4222V17.3212C25.5804 16.8428 25.5449 16.3289 25.5449 15.8062V10.632C25.5804 9.95865 25.5093 9.27644 25.4649 8.60309C25.4649 8.08921 25.4294 7.56648 25.385 7.0526C25.385 6.6539 25.3495 6.21977 25.3051 5.77677V5.37808C25.8645 5.2629 26.5038 5.2629 27.1431 5.02368V5.10342C27.2585 5.2629 27.3029 5.2629 27.4183 5.18316C27.5781 5.06798 27.7735 4.94394 27.8978 4.9085C28.0931 4.9085 27.9777 5.14772 28.1375 5.06798C28.253 5.03254 28.2973 4.9085 28.4128 4.74902C28.6081 4.8642 28.4927 4.98824 28.4128 5.14772C28.5282 5.11228 28.5726 5.06798 28.6081 5.06798C28.7679 5.22746 28.8035 5.50212 28.8834 5.74133C28.9633 6.33495 29.0077 6.93742 28.9278 7.53104C28.8834 7.77025 28.9278 7.96517 28.9278 8.20439C28.9278 8.36387 28.8834 8.47905 28.9278 8.63853C28.9633 9.03722 28.8834 9.39162 29.0432 9.79031V12.1382C29.0432 12.3331 29.0077 12.4571 28.8478 12.6166C28.8834 12.6166 28.9278 12.6166 29.0432 12.6521L29.0609 12.6964ZM26.0332 13.2102C26.0332 13.2102 25.9977 13.1659 25.8734 13.1305C25.9888 13.2102 25.9888 13.2457 26.0332 13.3254V13.2102ZM26.193 13.0153V12.7761C26.193 12.7761 26.1575 12.7761 26.1131 12.7318V13.0065H26.193V13.0153ZM26.3528 10.189C26.193 10.1536 26.1131 10.189 26.193 10.3839C26.2285 10.3042 26.2729 10.2244 26.3528 10.189ZM26.9122 12.023C26.9122 12.023 26.9921 11.9433 27.0365 11.9433C27.0365 11.9433 27.0365 11.899 26.9921 11.899C26.9921 11.899 26.9122 11.9433 26.8323 11.9433C26.8678 11.9433 26.9122 12.023 26.9122 12.023ZM27.152 11.6243C27.2674 11.7838 27.072 12.023 27.3118 12.1028C27.3562 12.1028 27.4361 12.0673 27.4716 12.0673C27.3917 11.9876 27.3562 11.9521 27.3118 11.9521C27.3917 11.8724 27.4716 11.7927 27.5515 11.7129C27.4361 11.6775 27.3118 11.6775 27.152 11.6332V11.6243ZM27.6314 13.3786C27.7113 13.3431 27.7912 13.3431 27.8268 13.2988C27.8268 13.2988 27.8268 13.2634 27.7912 13.2634C27.7912 13.2634 27.7113 13.2988 27.6314 13.2988V13.3786ZM27.8268 12.5812C27.9067 12.5369 27.9422 12.5014 28.0665 12.4217C27.9067 12.4512 27.8268 12.5044 27.8268 12.5812ZM28.2263 11.0661C28.2263 11.0661 28.3062 11.0307 28.3861 10.9864C28.3861 10.9864 28.3861 10.9067 28.3506 10.9067H28.1553C28.1553 10.7472 28.1198 10.632 27.9156 10.508C27.9511 10.6674 27.9156 10.8269 27.9955 10.9864C28.0754 10.9864 28.1109 10.9421 28.1908 10.9067C28.1908 10.9864 28.2263 10.9864 28.2263 11.0661ZM28.1109 11.9433C28.1464 11.8281 28.1464 11.6243 28.3506 11.7484C28.3506 11.7838 28.4305 11.6332 28.4661 11.5091C28.3062 11.5446 28.2263 11.5446 28.1464 11.5889C28.1109 11.6686 28.0665 11.7838 28.031 11.9078C28.0665 11.9078 28.1109 11.9521 28.1109 11.9521V11.9433ZM28.0754 30.6022C28.1908 30.5579 28.3506 30.5225 28.5104 30.4428C28.2707 30.7174 28.1553 30.7617 28.0754 30.6022ZM28.3151 9.71057C28.395 9.71057 28.4305 9.71057 28.5548 9.66627C28.5193 9.58654 28.4749 9.5511 28.4394 9.42706C28.3595 9.54224 28.324 9.58654 28.2796 9.66627C28.2796 9.66627 28.2944 9.68104 28.324 9.71057H28.3151ZM28.5904 10.5877C28.5904 10.5877 28.5904 10.6231 28.5548 10.6674C28.5904 10.6674 28.6348 10.7472 28.7502 10.8269C28.7265 10.697 28.6732 10.6172 28.5904 10.5877ZM28.6348 13.0508C28.6348 13.0508 28.6703 13.1305 28.7147 13.2102C28.7502 13.2102 28.7502 13.1659 28.7502 13.1659C28.7502 13.0862 28.7147 13.0508 28.7147 13.0065C28.6791 13.0419 28.6348 13.0419 28.6348 13.0419V13.0508ZM28.91 11.9344C28.91 11.9344 28.91 11.8547 28.8745 11.7749C28.7591 11.9344 28.8745 11.9344 28.91 12.0142V11.9344Z" fill="white"/>
<path id="Vector_5" d="M34.122 6.72479C34.122 6.72479 34.2464 6.68049 34.3174 6.64505V7.3627C33.9622 7.39814 33.7225 7.60192 33.4828 7.87658C33.5271 7.95632 33.6071 8.11579 33.6426 8.19553C33.758 8.31071 33.9622 8.03606 33.9622 8.27527C33.9267 8.39045 33.8468 8.51449 33.8024 8.59423C33.6426 8.43475 33.4028 8.47905 33.3229 8.27527C33.2874 8.27527 33.2075 8.23983 33.2075 8.19553C33.243 8.08035 33.243 7.95632 33.1631 7.92088C33.0033 7.92088 32.8435 7.95632 32.6836 7.95632C32.6481 8.07149 32.5682 8.19553 32.5238 8.35501C32.5238 8.43475 32.5682 8.51449 32.6481 8.54993C32.6836 8.58537 32.8435 8.54993 32.8435 8.51449C32.9234 8.27527 33.1187 8.31957 33.3229 8.27527C33.2164 8.48791 33.2282 8.6592 33.3584 8.78915C33.3584 8.78915 33.243 8.86889 33.1631 8.86889C33.1276 8.86889 33.0033 8.86889 32.9234 8.83345C32.7991 8.83345 32.7636 8.91319 32.728 9.02836V9.22328C32.728 9.22328 32.808 9.33846 32.8435 9.38276C33.0033 9.18784 33.0033 9.22328 33.2785 9.1081C33.3584 9.07266 33.4739 8.99293 33.5982 8.91319C33.6337 8.79801 33.7136 8.75371 33.8379 8.71827C34.0776 8.63853 34.1132 8.47905 33.9533 8.28413C33.9889 8.20439 34.0688 8.12465 34.1132 8.00948C34.1132 7.8943 34.1132 7.77026 34.273 7.65508C34.3085 8.64739 34.3529 9.64856 34.3529 10.5966C34.5127 10.7117 34.5926 10.756 34.7525 10.6763C34.9123 10.5611 35.1076 10.5168 35.2674 10.5168C36.3063 10.4814 37.3007 10.4371 38.3396 10.4017C38.5349 10.3662 38.7391 10.4371 38.9345 10.5168C38.9345 10.951 38.8901 11.3497 38.97 11.7927C39.0499 12.2711 39.0055 12.7495 38.97 13.2634C38.97 13.4583 38.9345 13.6178 38.9345 13.8216C38.3396 13.9368 37.7358 13.9368 37.1409 13.9368C36.4661 13.9722 35.7469 14.0165 35.0632 14.0519C34.9034 14.0519 34.7436 14.0874 34.5838 14.0874V17.9857C34.5838 19.2616 34.6193 20.5285 34.6637 21.8044C34.7436 23.1599 34.859 24.5509 35.0632 25.9419C35.0632 26.1014 35.1076 26.2609 35.1076 26.5001C35.3473 26.4647 35.5427 26.4204 35.7025 26.4204C36.2619 26.2609 36.8213 26.2255 37.3806 26.2609C37.8157 26.2609 38.2153 26.1457 38.5793 26.0217C38.899 25.9065 39.0588 26.0217 39.1387 26.3406C39.1742 26.6153 39.263 26.8988 39.3784 27.1735C39.4938 27.3684 39.5382 27.5722 39.5738 27.8114C39.6093 27.8911 39.6537 28.0063 39.7336 28.086C39.8934 28.2012 39.8934 28.405 39.9733 28.5645C40.0088 28.6797 40.0088 28.8037 40.0887 28.9632C39.7691 29.3973 39.3695 29.6808 38.7746 29.7163C38.2597 29.7606 37.7802 29.7606 37.3007 29.7606C36.9811 29.796 36.6614 29.796 36.3862 29.8757C35.5516 29.9909 34.7081 30.1504 33.8379 30.2744C33.5627 30.3099 33.2785 30.3542 33.0033 30.115C33.0033 30.0795 32.8435 30.115 32.8079 30.1504C32.6925 30.2301 32.5682 30.3453 32.4084 30.2301C32.293 30.115 32.2486 29.9555 32.293 29.7517C32.4084 29.7517 32.5682 29.8669 32.728 29.672C32.5682 29.672 32.4528 29.672 32.3285 29.6365V29.796C32.1331 29.6808 31.9289 29.5568 31.6892 29.4416C31.6892 29.3264 31.6537 29.1226 31.6892 28.9632C31.7247 28.4847 31.6892 28.0063 31.6093 27.4924C31.5294 26.2609 31.3695 25.0648 31.2541 23.8333C31.1742 22.6017 31.1742 21.3259 31.0943 20.0944V16.5504C31.0943 15.5936 31.0943 14.681 31.0588 13.7684V13.0508C31.0233 12.8115 31.0943 12.5723 31.0233 12.3774C30.9434 12.1382 30.9878 11.9433 30.9878 11.6598C30.9434 11.4648 31.0233 11.3054 31.1032 11.1016C31.1387 11.1016 31.1831 11.0661 31.1831 11.0218C31.1831 10.7472 31.4228 10.6674 31.6626 10.508C31.5826 10.7029 31.4672 10.8624 31.4228 11.0661C31.5027 11.1459 31.4583 11.2611 31.4228 11.3851C31.6182 11.4648 31.5826 11.3054 31.6626 11.1902C31.7425 11.2256 31.778 11.3054 31.778 11.3054C31.7425 11.4205 31.7425 11.5003 31.8579 11.4648C31.8934 11.4648 31.9822 11.4294 32.0177 11.3497C32.0532 11.3142 32.0177 11.2699 32.0177 11.1902C32.0177 11.1902 32.0562 11.1518 32.1331 11.075C32.1687 11.1547 32.1687 11.1902 32.2131 11.2699C32.4528 11.3142 32.6126 10.9953 32.8523 11.1547C33.0122 10.9598 33.172 10.8003 33.0122 10.5168C33.0122 10.4814 32.8967 10.4371 32.8168 10.4017C32.8523 10.3219 32.8523 10.2422 32.8523 10.127C32.9323 10.2067 32.9767 10.2067 33.0122 10.2422C33.0122 10.1979 33.0477 10.1979 33.0477 10.1979C33.0477 10.003 33.0122 9.84348 32.8523 9.6397C32.8523 9.60426 32.7369 9.55996 32.6925 9.55996C32.5771 9.55996 32.657 9.67514 32.6126 9.71944C32.5327 9.91436 32.6925 10.0384 32.6925 10.1979C32.5327 10.2422 32.4173 10.3131 32.293 10.1181C32.2131 10.0384 32.1331 10.0384 32.0532 10.0827C31.9378 10.1624 31.8579 10.1624 31.7336 10.1624C31.6537 10.1624 31.5738 10.0827 31.4583 10.0473C31.3784 10.127 31.4939 10.3662 31.263 10.4814C31.1476 10.4017 31.2275 10.2067 31.0233 10.2067C30.9877 10.2067 30.9877 10.0916 30.9434 10.0473C30.8634 9.45364 30.9434 8.85117 30.9434 8.25755V8.06263C30.9434 8.06263 31.0233 7.9829 31.1032 7.9829C31.0233 7.94746 30.9877 7.90316 30.9434 7.82342L30.9878 7.77912H31.5826V7.82342C31.5027 7.85886 31.4672 7.90316 31.4228 7.90316C31.263 7.82342 31.1476 7.86772 31.1476 8.06263C31.1476 8.14237 31.1121 8.17781 31.1121 8.30185H31.5915C31.6359 8.38159 31.6714 8.41703 31.7158 8.46133H32.1154C32.0799 8.34615 32.0799 8.26641 32.0799 8.14237C32.1598 8.14237 32.3196 8.17781 32.3995 8.14237C32.435 8.06263 32.3995 7.90316 32.435 7.82342H32.7902H32.7547H32.9145C33.0299 7.82342 33.1897 7.77912 33.3141 7.77912C33.3496 7.42472 33.3141 7.30068 32.9145 7.30068C32.9944 7.10576 33.0299 6.94629 33.0743 6.74251C33.1098 6.66277 33.1897 6.82225 33.3141 6.66277C33.3496 6.54759 33.5094 6.54759 33.7491 6.69821C33.8734 6.69821 33.9889 6.74251 34.1487 6.74251L34.122 6.72479ZM31.9289 6.68049C31.7336 6.64505 31.8845 6.24635 31.5738 6.24635V6.48557C31.4139 6.52987 31.2985 6.52987 31.1742 6.52987C30.9789 6.25521 30.9789 6.21091 31.3695 5.9717C31.3695 5.81222 31.334 5.6173 31.5649 5.573C31.5294 5.49326 31.485 5.45782 31.4051 5.41352C31.485 5.37808 31.5649 5.33378 31.6803 5.25404C31.7158 5.41352 31.7158 5.5287 31.7602 5.65274C31.9437 5.59958 32.0236 5.50803 32 5.37808H32.3551C32.5149 5.2186 32.5505 5.05912 32.5149 4.89965C32.3196 4.54525 31.8757 4.46551 31.7158 4.14655V4.03137C31.9556 3.95164 31.9911 3.75672 31.9112 3.55294C31.8313 3.19854 32.0266 2.95933 32.1864 2.72011C32.2308 2.67581 32.3107 2.67581 32.3462 2.64037C32.5061 2.95933 32.7813 2.75555 32.9855 2.87959C32.9056 2.72011 32.7103 2.72011 32.586 2.60493C32.6659 2.36571 32.8257 2.25053 33.0654 2.20623C33.5804 2.09105 34.1043 1.96702 34.6193 1.88728C35.0987 1.7721 35.5338 1.7278 36.0133 1.64806C36.1731 1.60376 36.2885 1.60376 36.4483 1.60376C36.6082 1.60376 36.8035 1.60376 36.9633 1.52402C37.3629 1.44428 37.7624 1.40884 38.1975 1.3291C38.3929 1.3291 38.3929 1.36454 38.3929 1.60376C38.3929 1.64806 38.4284 1.71894 38.4728 1.76324C38.5527 1.92272 38.5971 2.00245 38.3929 2.11763C38.6326 2.19737 38.7125 2.31255 38.7125 2.51633C38.8279 3.0745 38.9522 3.66812 39.0677 4.30603C39.1476 4.54525 39.1032 4.62499 38.8723 4.70473C38.3129 4.81991 37.7536 4.94395 37.1942 5.02368C36.3152 5.13886 35.5161 5.2629 34.6459 5.42238C34.3707 5.42238 34.3263 5.53756 34.3263 5.82108C34.3618 5.93626 34.3618 6.06029 34.3263 6.17547C34.3263 6.25521 34.2907 6.37039 34.2108 6.37039C34.1872 6.26407 34.199 6.15775 34.2463 6.05143C34.2463 5.89196 34.1664 5.73248 34.1309 5.573C33.6159 5.49326 33.2963 5.89196 32.9766 6.21091C33.0566 6.05143 33.1365 5.93626 33.172 5.81222C32.8168 5.6173 32.4972 5.77678 32.4972 6.16661C32.4972 6.36153 32.4617 6.36153 32.2219 6.32609C32.1775 6.32609 32.142 6.36153 32.0621 6.36153C32.0621 6.32609 32.0266 6.28179 32.0266 6.20205C32.0266 6.20205 32.0266 6.23749 31.9911 6.23749C32.0266 6.27293 32.0266 6.31723 32.1065 6.35267C32.2308 6.59189 32.2308 6.62733 31.9112 6.67163L31.9289 6.68049ZM31.2541 5.36922L31.1742 5.33378C31.1742 5.29834 31.2097 5.29834 31.2541 5.25404V5.36922ZM31.4139 8.54993C31.334 8.58537 31.2985 8.58537 31.2985 8.58537L31.334 8.66511C31.334 8.66511 31.4139 8.62967 31.4495 8.58537C31.4139 8.58537 31.4139 8.54993 31.4139 8.54993ZM32.3729 7.59306C32.0532 7.99176 32.0177 8.0272 31.7336 7.83228C31.7691 7.79684 31.8135 7.7171 31.8934 7.63736C31.8934 7.52218 31.7336 7.47788 31.6182 7.47788C31.5382 7.51332 31.4228 7.59306 31.3429 7.43358C31.4228 7.39814 31.5826 7.3184 31.6626 7.2741C31.8224 7.35384 31.9378 7.46902 32.0621 7.51332C32.2574 7.39814 32.4617 7.2741 32.657 7.15892C32.657 7.15892 32.6925 7.19436 32.8168 7.23866C32.7014 7.3184 32.657 7.35384 32.5771 7.39814C32.5771 7.43358 32.6126 7.47788 32.657 7.47788H32.8967C32.8523 7.59306 32.8168 7.6728 32.7369 7.79684H32.7724C32.657 7.7171 32.5327 7.63736 32.3729 7.60192V7.59306ZM31.7336 5.8388C31.849 5.8831 31.9733 6.03371 32.1331 5.8831C31.9733 5.77678 31.8401 5.76201 31.7336 5.8388ZM31.8135 10.3751L31.8934 10.3396C31.9378 10.3751 31.9378 10.4548 31.9733 10.4991C31.8934 10.4991 31.8934 10.4637 31.8135 10.3839V10.3751ZM32.1331 10.4105C32.293 10.6497 32.3285 10.6497 32.6126 10.57C32.6126 10.7295 32.5327 10.9687 32.3729 10.9244C32.2131 10.8889 32.0532 11.0041 31.9378 10.8446C31.9378 10.7295 31.9733 10.6497 31.9733 10.4903C32.0532 10.4903 32.0887 10.4548 32.1331 10.4105ZM32.3729 6.59189V6.62733C32.3729 6.62733 32.3729 6.66277 32.3374 6.74251C32.3374 6.70707 32.3018 6.70707 32.2575 6.70707C32.293 6.66277 32.3374 6.62733 32.3729 6.59189ZM32.6925 18.73C32.6126 18.7654 32.5327 18.6945 32.4972 18.8451C32.5327 18.8097 32.657 18.8097 32.6925 18.7654V18.73ZM33.172 10.57C33.3318 10.4903 33.4916 10.4548 33.5271 10.2156C33.3673 10.251 33.2874 10.3308 33.1276 10.3308C33.1631 10.446 33.1631 10.4903 33.1631 10.57H33.172ZM33.6071 6.35267H33.3673C33.3673 6.35267 33.4472 6.19319 33.4472 6.11345C33.6071 6.19319 33.687 6.19319 33.8024 6.27293C33.8024 6.43241 33.7669 6.54759 33.7225 6.67163C33.687 6.59189 33.6426 6.47671 33.6071 6.35267ZM33.687 10.2953C33.687 10.3751 33.7225 10.4903 33.687 10.5346C33.6515 10.6143 33.6071 10.6497 33.5271 10.7738C33.687 10.694 33.8024 10.6586 33.9622 10.6143C33.8853 10.4312 33.7935 10.3249 33.687 10.2953ZM34.6814 11.8458C34.5749 11.7927 34.5098 11.8458 34.4861 12.0053C34.6015 11.9256 34.6015 11.8901 34.6814 11.8458ZM36.1997 10.8889C36.1997 10.8889 36.1997 10.9687 36.2353 10.9687C36.2708 10.9244 36.3152 10.8889 36.3507 10.8535C36.3507 10.8092 36.3152 10.8092 36.2708 10.694C36.1909 10.8092 36.1909 10.8535 36.1909 10.8889H36.1997Z" fill="white"/>
<path id="Vector_6" d="M44.2441 31.311C44.0843 31.2755 44.0044 31.2312 43.889 31.1958C43.8091 31.1958 43.7647 31.1958 43.7292 31.1603C43.6137 30.9211 43.4095 31.0452 43.2142 31.0452C42.9389 31.0452 42.6548 31.0806 42.3352 30.8857C42.0599 30.7262 42.0155 30.7705 41.7403 31.0009C41.3851 30.9211 41.3052 30.5667 41.2608 30.2832C41.2164 29.9288 41.1809 29.5656 41.2164 29.2112C41.2963 28.8568 41.4561 28.5378 41.536 28.1745C41.5804 28.1302 41.616 28.0594 41.616 28.0151C41.6959 27.5809 41.7314 27.1379 41.7758 26.7038C41.9356 23.8775 41.9001 21.0955 41.9001 18.2692C41.9001 16.9579 41.8557 15.6466 41.9001 14.3265C41.9001 13.9721 41.8202 13.6089 41.8557 13.2102V10.9863C41.8557 9.86997 41.8202 8.71818 41.8557 7.56639C41.8557 7.40691 41.6959 7.32717 41.616 7.1677C41.7314 6.97278 41.8557 6.73356 42.0155 6.52978C42.051 6.4146 42.1753 6.3703 42.2552 6.45004C42.3352 6.48548 42.4151 6.52978 42.495 6.52978C42.6548 6.48548 42.8146 6.4146 42.9301 6.21082C42.9656 6.16653 43.0899 6.13109 43.2053 6.09565C43.1698 6.21082 43.1698 6.25512 43.1254 6.3703C43.2497 6.3703 43.3207 6.4146 43.445 6.3703C43.6049 6.29056 43.8446 6.33486 44.0399 6.13109C44.2353 5.93617 44.5549 5.81213 44.839 5.65265C45.0344 5.81213 45.1942 6.05135 45.3984 6.24626C45.9933 7.1234 46.4373 8.08027 46.7924 9.07258C46.9079 9.34723 46.9878 9.66619 47.1121 9.94971C47.3518 10.6674 47.707 11.3053 48.071 11.9432C48.2308 12.2976 48.4262 12.6165 48.6304 12.9798C48.6541 13.033 48.6807 13.0861 48.7103 13.1393C48.8701 12.9001 49.1898 12.6608 49.2253 12.3862C49.3407 11.952 49.6604 11.6331 49.8646 11.3141C50.344 10.4813 50.8235 9.63961 51.303 8.77134C51.7824 7.97395 52.4217 7.22085 52.9811 6.46776C53.1054 6.27284 53.2564 6.11337 53.3807 5.90959C53.5405 5.75011 53.7802 5.59063 53.9756 5.43115C54.02 5.59063 54.02 5.62607 54.0555 5.75011H54.091C54.4106 5.82985 54.6504 5.98933 54.9256 6.18424C55.0055 6.26398 55.0854 6.37916 55.2453 6.5032C55.3696 6.5475 55.4406 6.5475 55.5649 6.5032C55.7247 6.38802 55.8845 6.30828 56.0799 6.18424C56.2397 6.58294 56.515 6.93734 56.515 7.33603C56.515 7.49551 56.5594 7.57525 56.5594 7.69043C56.5949 7.84991 56.6748 8.00939 56.5594 8.20431C56.515 8.23974 56.515 8.28404 56.515 8.36378V10.0383C56.515 10.3927 56.4794 10.756 56.515 11.1547C56.515 11.7483 56.515 12.3862 56.5594 12.9887C56.5949 13.7063 56.6393 14.424 56.5949 15.1416C56.5949 16.1782 56.7547 17.206 56.7902 18.2426C56.8257 19.7133 56.8257 21.1486 56.8701 22.5839C56.8701 23.0181 56.9056 23.4168 56.95 23.8598V24.3736C56.9145 26.1279 56.9145 27.7936 56.8257 29.5035C56.8257 30.0617 56.7103 30.5756 56.4706 31.054H56.1953L54.162 30.6996C53.8868 30.6199 53.6026 30.5844 53.283 30.6996C53.1676 30.3807 52.9633 30.106 53.0077 29.7073C53.0077 29.5478 53.0077 29.3884 52.9722 29.2289C52.9722 29.034 52.9367 28.8745 53.0521 28.6707C53.1676 28.5112 53.1321 28.3517 53.1676 28.1568C53.1676 27.9974 53.1676 27.8379 53.4073 27.8822V25.809C53.3718 24.1344 53.3274 22.4688 53.3274 20.7588C53.3274 19.9614 53.3274 19.2083 53.2475 18.4109C53.1676 17.2591 53.0877 16.1428 53.0877 14.991C53.1232 14.5923 53.0521 14.1936 53.0521 13.7595V12.9266C52.9722 13.0064 52.8923 13.0861 52.8568 13.0861C52.3773 13.919 51.8623 14.7163 51.4628 15.6289H51.4184C51.1431 15.8681 51.1787 16.2668 51.0188 16.506C50.8235 16.7807 50.6992 17.0997 50.5838 17.3832C50.5039 17.5427 50.5039 17.7021 50.4595 17.8616C50.4239 17.9413 50.3796 17.9768 50.344 18.0211C50.1842 18.34 49.9889 18.5793 49.9889 18.9337C49.5094 19.4475 49.2697 19.3678 48.95 19.0134C48.95 19.1286 48.9145 19.1729 48.9145 19.2526C48.8701 19.2526 48.7902 19.2526 48.7192 19.2172C48.6837 19.5716 48.5238 19.6956 48.2042 19.4564C48.0888 19.5361 47.9645 19.6159 47.849 19.7311C47.4939 19.6159 47.2897 19.3324 47.0499 19.0134C46.6504 18.3755 46.4106 17.7021 46.1709 16.9402C46.0111 16.3466 45.8512 15.7087 45.6559 15.1062C45.6204 14.9467 45.5405 14.8315 45.4606 14.672C45.4606 14.7518 45.4251 14.8315 45.4251 14.9113C45.4606 16.063 45.4606 17.2148 45.4606 18.3312V22.6282C45.4606 23.0624 45.4961 23.5054 45.4606 23.9395C45.4606 24.4534 45.3807 24.9761 45.3807 25.49V26.0482C45.3451 26.5266 45.3807 26.9607 45.3008 27.4392C45.2208 27.8733 45.2208 28.3517 45.2208 28.8302C45.2208 29.3884 45.2208 29.9465 45.061 30.4604C44.9811 30.6996 44.9012 30.8945 44.8657 31.054C44.7858 31.2135 44.7059 31.2489 44.546 31.2135C44.5815 31.2135 44.6259 31.1338 44.7059 31.054C44.5904 31.0097 44.4661 30.9743 44.3507 30.9388C44.3862 31.054 44.3152 31.1781 44.475 31.1338C44.5105 31.0983 44.5549 31.2135 44.5904 31.2135C44.475 31.3287 44.3152 31.1338 44.2708 31.3287L44.2441 31.311ZM42.2908 6.04249H42.3263V6.20196H42.2464C42.2464 6.20196 42.2819 6.08679 42.2819 6.04249H42.2908ZM49.9445 11.89C49.9445 11.89 50.0599 12.0052 50.1842 12.0849C50.1398 11.89 50.1043 11.7306 50.0599 11.5268C49.8646 11.6065 49.9445 11.766 49.9445 11.8812V11.89ZM50.2996 12.2444C50.2996 12.2444 50.3352 12.2799 50.4151 12.3242C50.4151 12.3242 50.4506 12.3242 50.4506 12.2887C50.4506 12.1292 50.4151 11.9343 50.4151 11.7749C50.2197 11.89 50.2996 12.0938 50.2996 12.2533V12.2444ZM50.8146 13.2013C50.8501 13.1216 50.8501 13.0418 50.8945 12.8823C50.7643 13.0123 50.7377 13.1186 50.8146 13.2013ZM51.4539 11.6863C51.374 11.6508 51.2941 11.6508 51.2142 11.6065C51.2675 11.6833 51.3474 11.7099 51.4539 11.6863ZM51.2941 11.2078C51.2704 11.3378 51.377 11.4175 51.6137 11.447C51.4983 11.3319 51.4184 11.2876 51.2941 11.2078ZM51.8091 10.8091H51.6493C51.6493 10.8091 51.6493 10.8889 51.6848 10.9243C51.7203 10.8889 51.7647 10.8889 51.8446 10.8889C51.8091 10.8534 51.8091 10.8091 51.8091 10.8091ZM51.8446 16.1428C51.8446 16.1428 51.8091 16.1073 51.8091 16.063C51.8091 16.063 51.889 16.0187 51.889 16.063L51.9245 16.0985C51.9245 16.0985 51.889 16.1339 51.8446 16.1339V16.1428ZM52.3596 10.0117C52.1998 10.0472 52.0843 10.1712 51.9245 10.2509C52.0399 10.3307 52.1198 10.3661 52.2441 10.4459C52.2797 10.2864 52.3596 10.1712 52.404 10.0117H52.3596ZM52.9545 11.5622C53.0344 11.447 53.1498 11.323 53.1942 11.2078C53.3096 11.2078 53.4339 11.2433 53.5494 11.2433C53.4695 11.0483 53.4339 10.8446 53.354 10.6496C53.2297 10.6851 53.1143 10.7294 52.9989 10.7294C52.839 10.8091 53.1232 10.9686 52.9633 11.0483C52.9278 11.0483 52.9989 11.2433 52.9989 11.323C52.919 11.323 52.839 11.3584 52.6792 11.3584C52.8035 11.4382 52.839 11.4736 52.9545 11.5534V11.5622ZM52.919 10.2864C52.919 10.3661 52.839 10.4459 52.9545 10.561C52.99 10.4813 52.99 10.3661 53.0344 10.3218C53.0344 10.3218 52.9929 10.3071 52.9101 10.2775L52.919 10.2864ZM53.6737 13.3076C53.5938 13.3076 53.4783 13.3431 53.4339 13.3431C53.4695 13.3874 53.5494 13.4582 53.6293 13.538C53.7536 13.5025 53.7891 13.4228 53.6737 13.2988V13.3076ZM53.6293 12.714C53.6293 12.714 53.5938 12.714 53.5938 12.6786C53.5582 12.6786 53.4783 12.714 53.4783 12.714H53.6382H53.6293ZM53.7891 11.3584C53.7536 11.4736 53.6737 11.5977 53.5938 11.7128C53.7181 11.7483 53.7891 11.7483 53.9134 11.7483C53.8779 11.5888 53.8335 11.5091 53.798 11.3496L53.7891 11.3584ZM54.4639 11.4736C54.4639 11.5534 54.4284 11.5888 54.4284 11.6331H54.5083C54.5083 11.6331 54.5438 11.5534 54.5882 11.5179C54.5527 11.5179 54.5083 11.4825 54.4728 11.4825L54.4639 11.4736ZM55.263 18.597C55.263 18.597 55.1831 18.6324 55.1387 18.6767L55.2186 18.7565C55.2186 18.7565 55.263 18.6413 55.2985 18.597H55.263ZM55.5383 19.2703C55.4584 19.2703 55.3784 19.2349 55.263 19.2349C55.3784 19.4741 55.4228 19.3944 55.5383 19.2703ZM56.0177 19.988C56.0177 19.988 55.9822 20.0234 55.9822 20.0677C56.0621 20.1032 56.142 20.1829 56.2219 20.1829C56.2219 20.1386 56.2575 20.1032 56.2575 20.0234C56.1776 20.0234 56.0621 19.988 56.0177 19.988ZM56.0177 19.1906C56.1776 19.2349 56.2575 19.2703 56.3729 19.3058C56.2959 19.1758 56.1776 19.1374 56.0177 19.1906ZM56.1332 11.2344C56.1687 11.1192 56.1687 11.0395 56.2131 10.9597C56.0888 10.9597 56.0177 11.0395 56.1332 11.2344Z" fill="white"/>
<path id="Vector_7" d="M66.415 3.94257C66.415 3.94257 66.5304 4.02231 66.5304 4.10205C66.7702 4.13749 67.6048 3.94257 67.7646 3.82739C67.9244 3.98687 68.1198 3.87169 68.324 3.90713C68.4394 3.90713 68.5992 3.94257 68.7591 3.98687C68.7946 3.98687 68.9189 4.02231 68.9544 4.02231C69.2296 3.98687 69.5138 4.05775 69.789 4.05775C69.8245 4.05775 69.8689 4.13749 69.9488 4.21723C70.0643 4.13749 70.2241 4.10205 70.4283 4.21723C70.3129 4.29697 70.233 4.37671 70.0731 4.45645H70.3928C70.4727 4.85514 70.5082 5.25384 70.5526 5.60823C70.5526 6.08667 70.668 6.56511 70.748 7.04354C70.7835 7.55742 70.8723 8.08015 70.9078 8.59403C70.9877 9.07246 70.9877 9.5066 71.0676 9.98503C71.1475 10.5432 71.1919 11.1368 71.3073 11.695C71.4672 13.0506 71.5826 14.4416 71.7868 15.7971C71.8667 16.5502 71.9821 17.3476 72.1064 18.1007C72.1864 18.7741 72.3462 19.4917 72.3817 20.2094C72.4172 20.8473 72.506 21.4852 72.5415 22.1231C72.577 22.8408 72.6214 23.5584 72.6569 24.2318C72.6925 24.5507 72.7369 24.9051 72.8168 25.2684C72.8967 25.6671 72.8967 26.1012 72.9766 26.4999C73.0121 26.7746 73.1009 27.0581 73.1364 27.3327C73.2163 28.0061 73.2962 28.644 73.2518 29.3262C73.2518 29.8844 73.3317 30.3983 73.3317 30.9564C73.3673 31.4703 73.3673 31.9931 73.2518 32.5069C73.1364 33.0651 72.8523 33.4638 72.4527 33.9422V33.7828V33.7385C72.2574 33.579 72.0976 33.8182 71.8134 33.8182C71.8933 33.6233 71.9289 33.4638 71.9733 33.3043C71.9377 33.3841 71.8134 33.4195 71.698 33.5435C71.5027 33.4284 71.3429 33.3486 71.1031 33.4284C70.9078 33.5081 70.8279 33.5878 70.7036 33.7473C70.6236 33.8271 70.5082 33.9068 70.4638 34.022C69.8689 33.5878 69.789 33.4638 69.8689 33.2689C69.5138 33.2246 69.354 32.9145 69.1941 32.5955C69.2296 32.4804 69.3184 32.4006 69.3895 32.2766C69.354 32.1968 69.3096 32.1171 69.3096 32.0374C69.274 31.9222 69.3096 31.7981 69.5049 31.7627C69.5848 31.7627 69.7002 31.683 69.8245 31.6475C69.7091 31.5323 69.7091 31.488 69.6292 31.4083C69.6292 31.4083 69.641 31.3965 69.6647 31.3729C69.8245 31.3286 69.8245 31.2134 69.8245 31.0539C69.789 30.6995 69.789 30.3363 69.7446 29.9819C69.7446 29.025 69.7091 28.0681 69.5493 27.1201C69.4694 26.7214 69.3895 26.2873 69.3895 25.8886C69.2296 25.0114 69.1497 24.0546 69.0698 23.142C68.9899 22.4687 68.9544 21.8307 68.91 21.1485C68.91 20.5903 68.8745 20.0765 68.7946 19.598C68.7591 19.4386 68.7591 19.3588 68.7147 19.2436C68.5548 19.2879 67.6403 19.3234 67.4361 19.3588C67.4006 19.3234 67.3118 19.2791 67.2763 19.1993C67.1963 19.2791 67.1608 19.3588 67.0365 19.4386C66.9921 19.3588 66.9122 19.2791 66.8412 19.1196V19.5537C66.6458 19.5537 66.5215 19.6335 66.3262 19.7132C66.2108 19.793 66.0066 19.8284 65.8112 19.8727C65.7313 19.8727 65.6514 19.8373 65.536 19.917C65.3761 19.9967 65.3406 19.8018 65.3406 19.6423C65.2607 19.6778 65.2607 19.7221 65.2252 19.7575C65.2252 19.8018 65.1897 19.8018 65.2252 19.8373C65.4205 20.0765 65.4205 20.1917 65.1009 20.3511C64.9056 20.4663 64.6214 20.6258 64.3462 20.7055C64.1508 20.8207 64.0709 20.9447 64.0265 21.1397C63.9111 21.7333 63.7513 22.3712 63.5915 22.9737C63.3517 23.966 63.112 24.9228 62.9167 25.9152C62.7568 26.5885 62.6769 27.3062 62.5171 27.9884C62.4017 28.5023 62.2419 28.9807 62.0376 29.4591C61.7979 29.8933 61.6381 30.3363 61.4427 30.7704C61.4072 30.9299 61.3273 31.0893 61.2474 31.2488C61.2119 31.364 61.132 31.4083 61.0077 31.364C60.2086 31.1248 59.4094 30.8856 58.6192 30.6109C58.5393 30.6109 58.4239 30.5666 58.3795 30.5312C58.3795 30.4514 58.3795 30.416 58.415 30.292C58.2996 30.3274 58.2552 30.3717 58.2552 30.4071C58.1753 30.4071 58.1397 30.4071 58.0953 30.4426C58.0598 30.4071 58.0154 30.3628 58.0154 30.2831C57.9355 29.9641 58.0953 29.6452 58.2108 29.3705C58.4061 28.8123 58.6458 28.3339 58.8856 27.7757C59.001 27.4213 59.0454 27.0581 59.1253 26.7391C59.4006 25.3038 59.7202 23.8774 60.0842 22.4421C60.5193 20.5283 60.9988 18.6234 61.5582 16.7894C61.8778 15.7528 62.1531 14.7605 62.4727 13.7682C62.5526 13.4493 62.7124 13.1303 62.8279 12.8556V12.7405C62.8279 12.1026 63.0232 11.5444 63.183 10.9508C63.4583 9.83441 63.698 8.72692 64.0177 7.64602C64.213 6.89292 64.4971 6.17527 64.7724 5.45762C64.8523 5.2184 64.9677 5.02348 65.092 4.78426C65.092 4.66908 65.092 4.54505 65.1364 4.46531C65.1719 4.30583 65.2163 4.14635 65.2518 4.03117C65.3673 3.83625 65.4916 3.87169 65.607 4.06661C65.607 4.06661 65.607 4.10205 65.6869 4.18179C65.8823 4.13749 66.122 4.02231 66.4061 3.94257H66.415ZM64.0976 15.8414C64.1331 15.7263 64.1331 15.6022 64.1775 15.4427C63.9022 15.4782 63.9022 15.4427 63.9022 15.8769C64.0621 16.0364 64.2219 16.1515 64.4172 16.3553C64.4527 16.2756 64.4527 16.2401 64.4527 16.1958C64.4527 16.0009 64.4172 15.8414 64.3728 15.6377C64.2929 15.7528 64.213 15.7971 64.1775 15.8769C64.1331 15.8769 64.1331 15.8414 64.0976 15.8414ZM64.6569 16.3553C64.6569 16.3553 64.6214 16.4705 64.577 16.5148L64.6125 16.5502C64.6125 16.5502 64.6925 16.4351 64.728 16.3907C64.6925 16.3907 64.6481 16.3908 64.6481 16.3465L64.6569 16.3553ZM65.4916 17.9501C65.4916 17.9501 65.4916 17.8704 65.5271 17.8349V17.6754C65.2518 17.7109 64.9322 17.9147 64.8878 18.1096C64.8523 18.145 64.8523 18.2248 64.8523 18.3842C65.092 18.1893 65.2874 18.0653 65.4916 17.9501ZM65.092 16.3996C65.092 16.3996 65.0565 16.2844 65.0121 16.2401C65.0121 16.2401 64.9766 16.2401 64.9322 16.2844C64.9677 16.3199 65.0121 16.3642 65.0476 16.3996H65.0831H65.092ZM65.4117 16.9578C65.2518 16.9223 65.1719 16.9932 65.1364 17.1527C65.092 17.2679 65.1719 17.3122 65.2962 17.3476C65.3318 17.1881 65.3761 17.073 65.4117 16.9489V16.9578ZM65.4117 14.4947C65.3761 14.6099 65.3761 14.6542 65.3761 14.7694C65.5005 14.6896 65.5715 14.6542 65.6514 14.6542C65.6159 14.7339 65.5715 14.8137 65.5715 14.9289C65.5715 15.0086 65.607 15.1238 65.607 15.2478C65.607 15.2478 65.5804 15.2596 65.5271 15.2833C65.5271 15.2833 65.4028 15.2035 65.3673 15.1681C65.2874 15.1326 65.2074 15.1326 65.2074 15.2478C65.1719 15.2833 65.243 15.3276 65.243 15.4073H65.3229C65.4827 15.4368 65.536 15.5284 65.4827 15.682C65.4028 15.6022 65.2874 15.5225 65.2074 15.4427C65.1719 15.4427 65.1275 15.4427 65.1275 15.4782C65.1631 15.5579 65.1631 15.6731 65.243 15.7174C65.4827 15.7971 65.4028 15.9921 65.4028 16.1958C65.4028 16.2313 65.4028 16.311 65.3673 16.3907H65.5626V16.7097C65.6425 16.6654 65.678 16.5945 65.678 16.5502C65.6425 16.3907 65.7136 16.2313 65.8734 16.2313C66.0687 16.1515 66.3084 16.0718 66.5127 15.9921C66.7879 15.9123 67.8712 15.8326 68.1464 15.7528C67.9866 14.0429 67.7912 12.4126 67.6314 10.7824H66.8323C66.7968 10.8622 66.7524 10.9773 66.7169 11.0571C66.5215 11.8545 66.3617 12.6873 66.1575 13.4847C66.122 13.6442 66.0332 13.8391 65.9622 13.9986C65.8467 13.9631 65.7668 13.9188 65.6869 13.9188C65.6514 14.034 65.6869 14.0783 65.7668 14.1138C65.9266 14.1935 65.9266 14.3087 65.8023 14.5124C65.7224 14.477 65.678 14.4327 65.607 14.3973C65.5715 14.3973 65.5715 14.4327 65.5715 14.4327C65.6514 14.5124 65.6869 14.5922 65.7313 14.6719V14.7074C65.7313 14.7074 65.6958 14.6276 65.6514 14.6276C65.5715 14.5922 65.4916 14.5479 65.4117 14.4681V14.4947ZM65.2163 18.7918C65.3761 18.907 65.4916 18.9513 65.5715 18.7918C65.536 18.6766 65.4916 18.5969 65.4117 18.3931C65.3318 18.5526 65.2518 18.6677 65.2163 18.7918ZM65.4916 6.01579L65.3673 6.05123C65.4028 6.21071 65.4472 6.21071 65.5626 6.16641C65.5626 6.08667 65.5626 6.00693 65.4827 6.00693L65.4916 6.01579ZM65.5271 19.5449C65.5626 19.4651 65.6869 19.4297 65.8023 19.35C65.6188 19.3263 65.5271 19.3913 65.5271 19.5449ZM65.8467 16.878C65.8112 17.1173 65.7224 17.3565 65.7224 17.6311C65.9622 17.4362 66.0421 17.0375 65.8467 16.878ZM66.0066 6.17527C65.9266 6.17527 65.8911 6.17527 65.8467 6.21957V6.25501C65.8467 6.25501 65.9622 6.21957 66.0066 6.21957V6.17527ZM66.2818 18.1096C66.4416 18.145 66.6015 18.0298 66.7169 17.9147C66.5571 17.9501 66.3972 17.9944 66.2374 17.9944C66.2374 18.0298 66.2374 18.0741 66.2729 18.1096H66.2818ZM66.5215 16.7983C66.5215 16.7983 66.6015 16.878 66.637 16.9578L66.6725 16.9223C66.6725 16.9223 66.637 16.8072 66.5926 16.7629C66.5926 16.7629 66.5571 16.7629 66.5127 16.7983H66.5215ZM66.8412 18.4728C66.8057 18.6323 66.7613 18.7918 66.6814 18.9513C67.001 18.8361 66.7613 18.6323 66.8767 18.5171C66.8412 18.5171 66.8412 18.4728 66.8412 18.4728ZM66.8057 18.2336C66.8412 18.3134 66.8412 18.3488 67.001 18.2691C66.9211 18.2336 66.8856 18.1893 66.8412 18.1539C66.8412 18.1982 66.8057 18.1982 66.8057 18.2336ZM66.8412 17.197C66.8412 17.3122 66.8767 17.3919 66.9211 17.516C66.9744 17.3329 66.9477 17.2265 66.8412 17.197ZM67.1963 17.6311C67.1963 17.6311 67.2763 17.6754 67.3118 17.6754H67.3917V17.6311C67.3118 17.6311 67.3118 17.5957 67.2319 17.5957C67.1963 17.5957 67.1963 17.6311 67.1963 17.6311ZM67.7113 17.9501C67.6314 17.9147 67.6314 17.8704 67.5515 17.8704C67.5515 17.8704 67.5515 17.9058 67.516 17.9501C67.5959 17.9501 67.6314 17.9944 67.6758 17.9944C67.7202 17.9944 67.7113 17.9944 67.7113 17.9501ZM69.2296 6.44993C69.3895 6.13097 69.6292 6.41449 69.8689 6.37019C69.8689 6.09553 69.8689 5.97149 69.7091 5.89175C69.5937 5.84745 69.5493 5.73227 69.5138 5.65253C69.4783 5.5728 69.3983 5.5728 69.354 5.49306C69.2296 5.65253 69.354 5.73227 69.3895 5.81201V5.89175H69.2296C69.2296 5.89175 69.2296 5.81201 69.1941 5.73227C69.0787 5.92719 68.9544 6.13097 68.839 6.29045C68.9988 6.37019 69.0787 6.40563 69.2385 6.44993H69.2296ZM69.0698 6.17527C69.1764 6.12211 69.2415 6.13688 69.2652 6.21957C69.1853 6.21957 69.1409 6.21957 69.0698 6.17527ZM69.4694 4.94374C69.5493 4.94374 69.6647 4.89944 69.8245 4.82856C69.5878 4.7754 69.4694 4.8138 69.4694 4.94374ZM70.2685 9.08132C70.1886 9.11676 70.1442 9.16106 70.0731 9.1965C70.1087 9.1965 70.1087 9.23194 70.1087 9.23194C70.1886 9.1965 70.233 9.1965 70.304 9.1522C70.304 9.1522 70.2922 9.12562 70.2685 9.07246V9.08132ZM71.8223 18.4285C71.7424 18.6234 71.698 18.7032 71.9377 18.7032C71.9377 18.6234 71.8578 18.5083 71.8223 18.4285ZM72.3018 33.074L72.2663 33.1094C72.2663 33.1094 72.2663 33.1537 72.3018 33.1537C72.3018 33.1537 72.3373 33.1094 72.3817 33.1094C72.3462 33.1094 72.3462 33.074 72.3018 33.074Z" fill="white"/>
<path id="Vector_8" d="M75.5427 4.34147C75.5072 4.14655 75.5427 4.06681 75.7025 3.98707C76.182 3.79215 76.6615 3.71241 77.1409 3.71241C78.0555 3.67697 79.0144 3.63267 79.9289 3.71241C80.2841 3.74785 80.6038 3.87189 80.9234 3.98707C81.2786 4.14655 81.6426 4.22629 81.9622 4.4212C82.202 4.53638 82.4417 4.61612 82.6814 4.74016C83.0366 4.93508 83.2408 5.2186 83.4362 5.57299C83.4717 5.60843 83.5161 5.68817 83.5161 5.73247C83.7558 5.97169 83.8357 6.24635 83.8712 6.52986C83.9067 6.68934 83.9867 6.84882 84.0311 7.0083C84.111 7.60191 84.2264 8.23983 84.2708 8.8423C84.3063 9.79917 84.3063 10.7915 84.3507 11.7838C84.3862 12.3774 84.3507 12.9356 84.3063 13.5381C84.2708 13.7773 84.1465 14.0165 84.111 14.2114C84.0755 14.3266 84.0754 14.4861 84.0311 14.6101C83.8712 15.124 83.6759 15.7265 83.5161 16.2403C83.4362 16.3998 83.3562 16.5593 83.2408 16.7188C83.1254 16.8782 83.0011 16.9934 82.7614 16.958C82.7614 16.9934 82.717 17.0377 82.717 17.0377C82.7614 17.0377 82.8413 17.0732 82.9123 17.0732C82.7525 17.3124 82.637 17.4719 82.5127 17.6668C82.1132 18.1452 81.5982 18.3844 81.0743 18.7034C80.9944 18.7388 80.9145 18.7831 80.8346 18.7831C80.3196 18.8629 79.7602 18.9426 79.2364 19.0223C79.041 19.0578 78.8368 19.1021 78.5971 19.1021C78.5971 19.2173 78.5527 19.2616 78.5527 19.3767C78.677 20.4931 78.7125 21.6449 78.7924 22.7612C78.8723 23.3548 78.9167 23.913 78.9878 24.5155C79.0233 24.8699 78.9878 25.2331 79.0233 25.5875C79.0233 26.4647 79.0588 27.3772 79.1387 28.2544C79.1387 28.6531 79.2186 29.0872 79.1742 29.4505C79.1742 29.9289 79.1742 30.4073 79.0943 30.8858C79.0943 31.0807 78.9789 31.2845 78.8546 31.5237H78.6149C78.2153 31.4439 77.7358 31.4085 77.3363 31.3642C77.0965 31.3642 76.8568 31.2845 76.6171 31.249C76.3773 31.2047 76.1376 31.1693 75.8979 31.1693C75.7824 31.1693 75.6581 31.1338 75.6226 30.9744C75.6226 30.8946 75.5072 30.8946 75.5072 30.8149C75.4717 30.7351 75.3918 30.62 75.3918 30.5402C75.4717 29.8669 75.4273 29.229 75.5516 28.591C75.5871 28.3518 75.5516 28.0772 75.5516 27.838C75.5161 27.3241 75.4717 26.8013 75.4717 26.2875C75.4717 25.5344 75.4362 24.7724 75.3474 24.0193C75.2319 23.3017 75.2319 22.6283 75.1875 21.9461C75.1076 20.9892 75.0277 20.0324 75.0277 19.0401C74.9922 18.4819 75.0277 17.9237 74.9922 17.3655C74.9123 16.2492 74.8324 15.2126 74.7525 14.1848C74.7081 13.3874 74.5571 12.6343 74.5571 11.837C74.4772 10.8801 74.4417 9.92321 74.3973 8.9752C74.3973 8.22211 74.3973 7.50445 74.3618 6.75136C74.3263 6.39697 74.2819 5.99827 74.3618 5.59957C74.3973 5.51983 74.3973 5.4401 74.3973 5.28062C74.4772 5.0857 74.5571 5.0414 74.7525 5.0414C75.0277 5.0414 75.2319 5.0414 75.4717 5.00596C75.6315 4.81104 75.5516 4.60726 75.5072 4.36805L75.5427 4.34147ZM77.4606 9.35618C77.4606 9.1967 77.3807 9.1967 77.3008 9.11696C77.2652 9.51566 77.3452 9.63083 77.7802 9.87005C77.8601 9.67513 77.7003 9.51566 77.6648 9.31188C77.6204 9.39162 77.6204 9.47135 77.5405 9.58653C77.505 9.50679 77.4251 9.39162 77.4606 9.34732V9.35618ZM77.94 7.48673C77.94 8.16009 77.94 8.92204 77.9844 9.63083C77.9844 9.90549 77.94 10.189 78.02 10.508V10.9864C78.0999 11.7838 78.2153 12.5812 78.2597 13.414C78.3396 14.0076 78.3396 14.6101 78.384 15.2037C78.384 15.2835 78.4195 15.4429 78.4195 15.5581C78.7747 15.5227 79.0943 15.4784 79.414 15.4429C79.6537 15.3986 79.849 15.3986 80.0089 15.2037C80.0089 15.1683 80.0888 15.1683 80.1687 15.1683C80.1687 15.0885 80.1687 14.9734 80.2131 14.9291C80.2486 14.8139 80.3285 14.6544 80.3729 14.5304C80.4883 14.176 80.6481 13.8925 80.6925 13.5381C80.7725 13.0596 80.8524 12.6255 80.808 12.147C80.808 10.8358 80.808 9.44478 80.6481 8.12465C80.6481 7.80569 80.5327 7.53103 80.1687 7.48673C80.0533 7.48673 79.9289 7.44244 79.849 7.407C79.2097 7.08804 78.5705 7.21208 77.9312 7.21208V7.48673H77.94ZM80.0177 17.2326C80.0533 17.1175 80.0976 17.0377 80.1332 16.9137C80.0562 16.9137 79.9763 16.8989 79.8934 16.8694C79.929 17.0289 79.9733 17.0643 80.0089 17.2238L80.0177 17.2326ZM80.3374 17.4719C80.3374 17.4719 80.3019 17.5516 80.3019 17.6313H80.3374C80.3374 17.6313 80.3374 17.5162 80.3729 17.5162C80.3374 17.5162 80.3374 17.4807 80.3374 17.4807V17.4719ZM81.0921 17.2326C81.0921 17.2326 80.9767 17.1175 80.8168 17.1529C80.9412 17.2326 80.9767 17.2681 81.0566 17.3124C81.0566 17.3124 81.0684 17.2858 81.0921 17.2326ZM81.2164 5.73247C81.2164 5.73247 81.2963 5.73247 81.3318 5.69703C81.3673 5.66159 81.3674 5.61729 81.4117 5.58185C81.3318 5.58185 81.2963 5.58185 81.2519 5.61729C81.2164 5.61729 81.172 5.69703 81.172 5.69703C81.172 5.73247 81.2075 5.73247 81.2075 5.73247H81.2164ZM81.5361 17.1529L81.4561 17.0732C81.4561 17.1086 81.4206 17.1529 81.4206 17.1883C81.4206 17.1883 81.4561 17.1883 81.4561 17.2326C81.5005 17.1883 81.5361 17.1883 81.5361 17.1529ZM81.616 17.3478C81.7758 17.3035 81.8113 17.3035 81.9356 17.3035V17.0643C81.7403 17.0289 81.7403 17.1795 81.616 17.339V17.3478Z" fill="white"/>
<path id="Vector_9" d="M87.4672 13.3253C87.3518 13.2898 87.192 13.2898 87.0677 13.2898C87.0322 13.2101 87.0322 13.0949 87.0322 13.0506C87.0677 11.6153 87.2719 10.1889 87.5915 8.78899C87.7514 7.87642 88.0266 6.99929 88.3907 6.08672C88.586 5.65258 88.8701 5.25389 89.1454 4.81089C89.5449 4.29702 89.98 3.85402 90.4595 3.49962C90.6193 3.34015 90.7791 3.26041 91.0188 3.10093C90.9833 3.21611 90.9833 3.29585 90.9389 3.37558C91.0544 3.34015 91.0988 3.34015 91.0988 3.34015C91.3385 3.18067 91.4983 2.98575 91.738 2.82627C92.0133 2.63135 92.3329 2.58705 92.697 2.58705V2.50731C92.697 2.23266 92.7414 1.94914 93.1321 2.02888C93.647 1.67448 94.2064 1.9137 94.7303 2.02888C95.4495 2.18836 96.0089 2.70223 96.5238 3.18067C96.9234 3.53506 97.323 3.97806 97.5982 4.45649C97.9534 5.17415 98.4328 5.8918 98.6726 6.68033C98.8679 7.31825 99.0277 7.9916 99.0277 8.70925C99.0277 9.22313 98.9922 9.70156 98.9922 10.2243C98.9922 11.2609 98.9922 12.2975 99.0277 13.3253V15.9478C99.0632 16.7009 99.1076 17.3831 99.152 18.1362C99.152 19.0488 99.152 19.9702 99.1165 20.9182C99.1165 21.5916 99.1165 22.2738 99.0721 22.9117C99.0366 23.585 99.0721 24.2673 98.9567 24.9406C98.8768 25.7734 98.7614 26.5708 98.5216 27.3682C98.3618 28.0061 98.202 28.5998 97.8024 29.1225C97.687 29.6009 97.323 29.8401 97.0832 30.2388C97.0033 30.354 96.8435 30.4338 96.6837 30.5135C96.4883 30.6287 96.2486 30.7527 96.0444 30.8679C95.7247 30.9831 95.4051 31.0274 95.0854 31.1869C94.5705 31.3463 93.9667 31.4615 93.4073 31.5058C92.8923 31.5058 92.3685 31.5501 91.889 31.5058C90.9745 31.3463 90.1753 31.0274 89.5005 30.4338C89.1809 30.1591 88.8612 29.7604 88.6215 29.4415C87.9822 28.5289 87.707 27.5277 87.5471 26.5C87.5116 26.3405 87.4317 26.1456 87.5471 25.9861V25.9506C87.3074 25.6317 87.3518 25.233 87.2719 24.8786C87.192 24.5242 87.1565 24.2052 87.1121 23.842C87.0322 23.0889 86.9523 22.4067 86.9167 21.6536C86.8812 21.2549 86.8812 20.8562 86.8368 20.4575C86.8368 20.0588 86.8013 19.5804 86.8368 19.1462C86.8723 18.4286 86.9523 17.6755 86.9523 16.9578C86.9523 16.3199 86.9523 15.682 86.9967 15.0441C86.9967 14.5657 86.9966 14.1315 87.0322 13.6885V13.4493C87.192 13.3341 87.3873 13.5645 87.4672 13.3341V13.3253ZM87.6626 12.8911C87.5827 12.8114 87.5028 12.7317 87.4228 12.6519C87.3873 12.7317 87.3429 12.7671 87.263 12.8468C87.4228 12.8911 87.5028 12.9266 87.5827 12.962C87.6271 12.9266 87.6626 12.8823 87.6626 12.8823V12.8911ZM87.5383 18.8184C87.5738 18.8982 87.6182 18.9336 87.6626 18.9336H87.6981C87.6626 18.8539 87.6182 18.8184 87.5738 18.7741C87.5738 18.7741 87.5738 18.8184 87.5383 18.8184ZM88.2131 14.0075C88.2575 13.848 88.293 13.7683 88.3374 13.6531C88.2545 13.6295 88.1894 13.6176 88.142 13.6176C88.1776 13.7328 88.1776 13.8569 88.222 14.0163L88.2131 14.0075ZM88.3729 23.2395C88.3729 23.2395 88.293 23.2041 88.2575 23.2041C88.2575 23.2395 88.2131 23.2395 88.2575 23.2395C88.293 23.2838 88.3374 23.2838 88.3729 23.2838V23.2395ZM90.0066 7.24737C90.0066 7.24737 90.0865 7.16763 90.1221 7.13219L90.0865 7.09675C90.0066 7.13219 89.9711 7.17649 89.9711 7.17649C89.9711 7.17649 89.9711 7.21193 90.0066 7.25623V7.24737ZM90.3618 17.2325C90.3618 17.2325 90.3263 17.2679 90.3263 17.3122C90.4417 17.6666 90.3618 18.0299 90.3618 18.4286C90.2819 20.0588 90.3618 21.6536 90.6015 23.2395C90.717 24.2318 90.8768 25.1887 91.0366 26.1456C91.1165 26.624 91.3119 27.0581 91.596 27.5011C91.7913 27.7758 92.0754 27.9796 92.4306 27.9796C92.9456 27.9796 93.4695 27.9441 93.9489 27.8644C94.4284 27.8201 94.748 27.5454 94.8635 27.1113C95.0588 26.5974 95.2186 26.0747 95.2985 25.5165C95.3784 25.0026 95.4939 24.4799 95.4939 23.9217C95.5294 23.0889 95.5294 22.2118 95.5738 21.3346V18.4286C95.5294 17.3122 95.4495 16.1604 95.414 15.0087C95.414 13.2189 95.4495 11.3849 95.4939 9.5598C95.4939 9.16111 95.4584 8.76241 95.3784 8.36372C95.2985 7.56632 94.899 6.89297 94.4195 6.21962C94.3396 6.06014 94.1798 5.94496 94.02 5.78548C93.9844 5.74118 93.8956 5.74118 93.8246 5.74118C93.5849 5.78548 93.3452 5.82092 93.1054 5.90066C92.4661 6.09558 92.0666 6.57401 91.7913 7.13219C91.4362 7.7258 91.2319 8.40802 91.0721 9.08137C90.9567 9.75472 90.7969 10.4724 90.717 11.1457C90.6015 11.7393 90.5571 12.3418 90.5216 12.9V14.8935C90.5216 15.1327 90.5216 15.3276 90.3618 15.4871V15.6023C90.5216 15.7174 90.4861 15.9212 90.4861 16.0807C90.4861 16.2402 90.3263 16.2402 90.2464 16.3554C90.1665 16.3997 90.1221 16.4705 90.1221 16.5503C90.0865 16.5503 90.1221 16.5946 90.1221 16.63C90.202 16.63 90.2464 16.5946 90.2819 16.5946C90.4772 16.8338 90.4772 17.0287 90.3618 17.2325ZM90.717 4.77545C90.637 4.81975 90.6015 4.89063 90.6015 4.93493V4.97037C90.6814 4.93493 90.717 4.89063 90.7614 4.85519C90.7614 4.81975 90.7614 4.77545 90.7258 4.77545H90.717ZM91.8357 3.02119C91.596 3.18067 91.4806 3.21611 91.3207 3.34015C91.4006 3.34015 91.5161 3.37558 91.596 3.41988C91.6759 3.30471 91.7114 3.18067 91.8357 3.02119ZM92.6348 3.34015C92.6703 3.18067 92.7147 3.02119 92.5993 2.86171C92.4839 3.02119 92.4839 3.13637 92.6348 3.34015ZM92.5194 3.57936V3.6148C92.5194 3.6148 92.5993 3.6148 92.5993 3.57936C92.5993 3.54392 92.5993 3.54392 92.5638 3.49962C92.5283 3.49962 92.5283 3.54392 92.5283 3.57936H92.5194Z" fill="white"/>
<path id="Vector_10" d="M104.932 32.6311C104.693 32.6665 104.453 32.7463 104.213 32.7108C103.734 32.7108 103.219 32.6754 102.695 32.6311H102.57C102.455 32.4716 102.331 32.3564 102.215 32.2324C102.251 32.1172 102.295 31.9932 102.295 31.878C102.295 31.8337 102.26 31.7628 102.26 31.6831C102.224 31.6831 102.18 31.6388 102.18 31.6033C102.34 31.4084 102.144 31.2046 102.144 31.0452V30.7705C102.34 30.3364 102.304 29.8579 102.26 29.4149C102.26 28.9365 102.295 28.4581 102.295 27.9796C102.295 27.7404 102.26 27.5455 102.295 27.3417C102.295 27.2265 102.34 27.0671 102.375 26.9076C102.251 26.7127 102.295 26.4292 102.295 26.1545C102.295 25.3217 102.295 24.4445 102.34 23.5674C102.34 22.8143 102.375 22.0169 102.375 21.2195C102.375 20.2272 102.34 19.2703 102.34 18.278C102.34 17.7642 102.42 17.206 102.42 16.7275C102.42 16.0896 102.384 15.5315 102.384 14.9733C102.349 14.0962 102.304 13.2633 102.304 12.4305V10.0472C102.349 8.97513 102.349 7.93852 102.349 6.86647C102.349 6.67155 102.304 6.43233 102.304 6.22855C102.304 6.02477 102.349 5.82986 102.384 5.63494C102.42 5.5995 102.544 5.47546 102.624 5.44002C102.819 5.44002 102.863 5.28054 102.899 5.12106C102.935 4.96159 102.935 4.72237 102.899 4.52745C102.899 4.33253 102.935 4.20849 103.094 4.20849C104.293 4.09331 105.447 3.8541 106.602 3.57058C107.196 3.4554 107.836 3.37566 108.44 3.52628C108.759 3.57058 109.034 3.68576 109.319 3.96041C109.319 4.00471 109.363 4.00471 109.443 4.00471C109.558 4.08445 109.683 4.16419 109.683 4.32367C109.683 4.32367 109.718 4.35911 109.762 4.35911C110.038 4.59833 110.118 4.91729 110.277 5.23624C110.357 5.43116 110.437 5.59064 110.597 5.79442C110.997 6.43233 111.236 7.14998 111.272 7.90308C111.352 8.70047 111.387 9.5333 111.467 10.3307C111.467 10.6496 111.432 10.9686 111.432 11.2876C111.396 11.9255 111.396 12.5988 111.396 13.2367C111.396 13.3165 111.396 13.3962 111.361 13.4317C111.165 14.0253 111.201 14.6632 111.121 15.3011C111.085 15.939 110.926 16.4972 110.606 17.0554C110.57 17.2148 110.446 17.3743 110.286 17.4895C110.171 17.5249 110.127 17.6844 110.047 17.8085C109.967 18.0034 109.807 18.1629 109.647 18.2869C109.532 18.3312 109.487 18.4021 109.452 18.4818C109.807 18.8805 110.127 19.3146 110.331 19.7931C110.526 20.2272 110.686 20.7057 110.73 21.2284C110.766 21.5828 110.846 21.946 110.89 22.3004C110.926 22.7789 111.014 23.337 111.014 23.8509C111.014 24.3648 111.094 24.923 111.094 25.4811C111.174 25.995 111.174 26.5532 111.21 27.1114C111.21 27.7847 111.245 28.4669 111.245 29.1403C111.245 29.7782 111.245 30.4516 110.81 31.054H110.615C109.816 30.8946 109.017 30.8591 108.262 30.5756H107.862C107.623 30.5756 107.587 30.4604 107.587 30.2566C107.587 30.1769 107.552 30.0972 107.587 30.0972C107.747 29.6187 107.667 29.1048 107.667 28.6264C107.667 27.9088 107.667 27.2354 107.632 26.5532C107.632 26.2785 107.596 25.9596 107.596 25.6761C107.56 25.1622 107.436 24.6395 107.481 24.0813C107.481 23.4079 107.356 22.7257 107.285 22.0524C107.285 21.9372 107.25 21.8131 107.25 21.6537C107.125 21.0157 106.655 20.6968 106.016 20.5373C106.016 20.6171 106.016 20.6968 105.98 20.7765C105.98 21.9726 105.945 23.1244 105.9 24.3559C105.9 26.0305 105.856 27.6961 105.856 29.4061C105.856 30.0794 105.9 30.7174 105.936 31.3996C105.936 31.6742 105.9 31.9932 105.9 32.3121C105.856 32.4273 105.856 32.4716 105.856 32.6311C105.536 32.6311 105.216 32.5868 104.977 32.6311H104.932ZM106.85 15.7618C107.33 15.6466 107.569 15.3277 107.569 14.8492C107.605 14.4506 107.605 14.0164 107.729 13.5734C107.774 13.095 107.854 12.6608 107.889 12.1824C107.925 10.9863 107.925 9.7991 107.774 8.60301C107.729 8.0094 107.534 7.48666 107.179 7.05252C106.744 7.1677 106.3 7.24744 105.865 7.32718C105.9 10.2332 105.9 13.0595 105.98 16.001C106.3 15.9213 106.575 15.8416 106.859 15.7618H106.85Z" fill="white"/>
<path id="Vector_11" d="M124.066 5.28944C123.987 5.56409 123.951 5.84761 123.907 6.08683C123.871 6.28175 123.827 6.48552 123.907 6.645C124.067 7.0437 123.782 7.20318 123.472 7.20318C123.232 7.20318 122.992 7.20318 122.797 7.23862C122.282 7.31836 121.802 7.31836 121.278 7.3981C121.083 7.43354 120.923 7.43354 120.684 7.43354C120.604 7.47783 120.524 7.47783 120.524 7.59301V7.75249C120.524 9.02832 120.524 10.2598 120.559 11.4914C120.559 11.9255 120.595 12.2888 120.595 12.6875V22.1587C120.595 22.9561 120.595 23.7092 120.515 24.5066C120.479 25.4635 120.399 26.4203 120.32 27.3329C120.275 28.0063 120.24 28.6442 120.124 29.2821C120.124 29.6808 120.009 30.0795 119.884 30.4339C119.805 30.7085 119.645 30.9123 119.485 31.187C119.245 30.9477 119.005 31.0275 118.766 30.868C118.57 30.7528 118.286 30.7883 118.047 30.7085C117.727 30.6288 117.407 30.4693 117.088 30.3896C116.928 30.3098 116.768 30.2744 116.608 30.2301C116.528 30.1947 116.413 30.1149 116.288 30.0706C116.324 29.9111 116.324 29.796 116.368 29.7162C116.644 29.0429 116.688 28.3252 116.768 27.6076C116.812 27.0139 116.848 26.4115 116.892 25.8179C116.928 24.6218 117.008 23.3902 117.052 22.1942C117.052 21.3613 117.017 20.5196 117.052 19.6868C117.052 17.6933 117.088 15.7441 117.088 13.795C117.088 13.157 117.008 12.4837 116.972 11.8458V7.90311C116.617 7.86767 116.297 7.90311 115.978 7.93855C115.498 7.93855 114.983 7.93855 114.539 7.66389C114.539 7.66389 114.513 7.64913 114.459 7.61959C114.193 7.48965 114.075 7.27701 114.104 6.98168C114.14 6.90194 114.14 6.8222 114.104 6.78676C114.024 6.59184 114.069 6.38807 114.104 6.22859C114.184 6.03367 114.264 5.79445 114.379 5.55523C114.379 5.47549 114.459 5.39575 114.459 5.31602C114.539 4.99706 114.619 4.6781 114.699 4.35914C114.735 4.19967 114.815 4.16423 114.974 4.19967C116.129 4.47432 117.327 4.35914 118.482 4.19967C119.361 4.11993 120.24 3.96045 121.11 3.88071C121.509 3.80097 121.865 3.80097 122.264 3.72123C122.584 3.68579 122.903 3.68579 123.179 3.68579C123.454 3.68579 123.694 3.76553 123.933 3.80097V4.43888C123.898 4.55406 123.738 4.6781 123.614 4.79328C123.694 4.9882 123.773 5.22742 124.049 5.27172L124.066 5.28944ZM119.085 30.6731C119.085 30.6731 119.005 30.7174 119.005 30.7883H119.05C119.05 30.7883 119.085 30.7085 119.13 30.7085C119.13 30.7085 119.094 30.7085 119.094 30.6642L119.085 30.6731ZM123.232 5.72357C123.232 5.72357 123.152 5.76787 123.108 5.83875C123.214 5.83875 123.256 5.80036 123.232 5.72357Z" fill="white"/>
</g>
<g id="Group_4">
<path id="Vector_12" d="M57.687 42.1997C56.4972 40.3037 55.3074 38.3457 54.0288 36.4762C53.869 36.237 53.6026 35.9712 53.3274 35.9092C51.0011 35.3776 48.6925 35.0675 46.3218 34.8017C46.2153 34.7928 46.0466 34.8283 45.9311 34.8371C48.2663 37.6457 50.4595 40.5252 52.4217 43.6085C49.2697 45.5576 46.4461 47.7726 43.7025 50.2623C43.8623 50.3066 44.1376 50.3863 44.2796 50.404C46.2952 50.5369 48.1953 50.8736 50.1664 51.2723C50.3884 51.3166 50.6814 51.3077 50.8768 51.1837C53.8335 49.2965 56.7902 47.5068 59.5871 45.3893C59.6581 45.3361 59.6936 45.2741 59.7558 45.2121C59.0011 44.2287 58.3529 43.2629 57.687 42.2086V42.1997ZM51.152 41.2606C51.1165 41.1454 51.0721 41.0657 51.0721 40.9416C51.1787 40.9712 51.2053 41.0775 51.152 41.2606ZM49.5183 48.0384C49.4028 47.9941 49.3229 47.9587 49.3585 47.8435C49.394 47.684 49.4739 47.6043 49.6337 47.6486C49.5982 47.7638 49.5538 47.8878 49.5183 48.0473V48.0384ZM49.758 50.2268C49.758 50.0673 49.8498 50.0024 50.0333 50.0319C49.9089 50.1116 49.7935 50.1471 49.758 50.2268ZM50.8768 47.6397C50.8412 47.56 50.7969 47.5245 50.7613 47.4802C50.7969 47.4448 50.8412 47.4448 50.8412 47.4448C50.8768 47.4802 50.9212 47.56 50.9212 47.6043L50.8856 47.6397H50.8768ZM51.6315 48.3574H51.5516C51.5516 48.3574 51.4717 48.3574 51.4361 48.3131C51.4361 48.3131 51.4361 48.2776 51.4717 48.2776C51.5516 48.2776 51.5516 48.3131 51.6315 48.3131V48.3574ZM51.9067 48.6763C51.9067 48.6763 51.8268 48.632 51.7469 48.632C51.7824 48.5966 51.7824 48.5523 51.7824 48.5523C51.8623 48.5523 51.8623 48.5877 51.9422 48.632C51.9422 48.632 51.9304 48.6468 51.9067 48.6763ZM53.2119 44.459C53.2475 44.3438 53.3274 44.2198 53.4073 44.0603C53.4872 44.2552 53.5316 44.335 53.5671 44.459C53.4872 44.6185 53.3718 44.5742 53.2119 44.459ZM53.8868 41.5795C53.8868 41.5795 53.8512 41.6593 53.8512 41.6947C53.6559 41.8099 53.4517 41.9339 53.2119 42.1289C53.2119 41.9694 53.2119 41.8896 53.2475 41.8542C53.283 41.6593 53.6026 41.4555 53.8868 41.4201V41.5795ZM54.091 46.4613C54.091 46.4613 54.1265 46.4259 54.1265 46.3816C54.162 46.4259 54.2064 46.4613 54.2863 46.4968C54.1265 46.5765 54.1265 46.5411 54.091 46.4613ZM55.5116 43.4578C55.5915 43.2984 55.6359 43.1389 55.6714 42.9794C55.6714 42.9794 55.6714 43.0237 55.707 43.0237C55.5915 43.1389 55.8224 43.3427 55.5116 43.4578ZM57.2341 45.9563C57.2341 45.6817 57.3141 45.4425 57.3584 45.2032C57.5538 45.3627 57.4739 45.7614 57.2341 45.9563Z" fill="white"/>
<path id="Vector_13" d="M43.294 39.8608C41.8112 38.2394 40.1509 36.7952 38.4727 35.3599C38.2596 35.1739 37.9222 35.0055 37.647 35.0233C35.3029 35.1296 33.0121 35.3688 30.6769 35.5637C30.5704 35.5637 30.4283 35.6257 30.3218 35.6523C32.9233 38.0179 35.5338 40.3658 38.0998 42.758C35.587 45.6906 32.95 48.508 30.3395 51.3432C30.5171 51.3609 30.8368 51.4141 30.9966 51.4052C33.1453 51.2901 35.2408 51.166 37.3717 51.0065C37.6115 50.9888 37.8956 50.9002 38.0643 50.7142C40.5504 48.0119 42.6991 45.2387 45.496 42.8288C45.5671 42.7668 45.6026 42.7137 45.6647 42.6516C44.9011 41.6948 44.1287 40.7556 43.3029 39.8519L43.294 39.8608Z" fill="black"/>
<path id="Vector_14" d="M28.5904 40.9947C26.9744 39.5062 25.3406 38.0621 23.6803 36.6091C23.4672 36.423 23.1564 36.2547 22.89 36.2635C20.6348 36.361 18.4328 36.5116 16.1864 36.6534C16.0887 36.6534 15.9466 36.7065 15.8401 36.7331C18.2197 38.8683 20.6081 41.0036 22.9877 43.1477C23.112 43.0945 23.2363 43.0502 23.3606 43.0325V43.2717C23.3073 43.3249 23.3073 43.3692 23.2985 43.4223C23.4583 43.5641 23.6181 43.7147 23.7779 43.8565C23.6092 44.0337 23.4494 44.2197 23.2807 44.3969C23.334 44.521 23.3695 44.6184 23.4139 44.7336C23.3073 44.9551 23.1475 44.9197 22.9344 44.7779C20.6703 47.2764 18.4061 49.7837 16.142 52.2734C16.3196 52.2911 16.6392 52.3443 16.799 52.3354C18.9655 52.2114 21.0787 52.0873 23.2274 51.9278C23.4672 51.9101 23.7691 51.8127 23.9289 51.6443C26.344 49.0041 28.7236 46.3727 31.1298 43.7413C31.1919 43.6793 31.2186 43.6084 31.2629 43.5375C30.3839 42.6781 29.4783 41.8187 28.5815 40.9858L28.5904 40.9947ZM25.5005 42.7844C25.4383 42.5984 25.3762 42.4832 25.3762 42.2971C25.536 42.3385 25.5774 42.5009 25.5005 42.7844ZM25.0121 38.7975C25.1453 38.8418 25.2252 38.8418 25.314 38.8418C25.314 38.9304 25.2696 38.9747 25.2696 38.9747C25.1808 38.9747 25.0565 38.9304 25.0121 38.8861V38.7975ZM22.8101 36.6888C22.8989 36.9457 23.0232 37.1584 23.1564 37.3799C23.1564 37.3799 23.112 37.3356 23.0676 37.3799C23.0676 37.1229 22.597 37.1672 22.8101 36.6888ZM22.7657 38.7975C22.7657 38.7975 22.8989 38.7532 22.9788 38.6646C22.9788 38.7532 23.0232 38.7975 23.0232 38.7975C22.9344 38.8861 22.89 38.8418 22.7657 38.8861C22.7657 38.8861 22.7657 38.8565 22.7657 38.7975ZM22.9966 42.5363C22.8101 42.4743 22.6947 42.4123 22.7568 42.2351C22.819 41.9959 22.9433 41.8718 23.183 41.9339C23.1209 42.1199 23.0587 42.2971 22.9966 42.5452V42.5363ZM23.2008 37.7608C23.2896 37.5039 23.334 37.5482 23.4583 37.5925C23.5027 37.6368 23.4583 37.6811 23.5027 37.7254C23.4139 37.7254 23.334 37.7254 23.2008 37.7697V37.7608ZM23.4139 38.8329L23.5027 38.7443C23.5027 38.7443 23.5915 38.6557 23.6714 38.6557C23.6714 38.6557 23.7158 38.7 23.6714 38.7443C23.5826 38.8329 23.5382 38.7886 23.4583 38.8772L23.4139 38.8329ZM23.3606 45.8765C23.3606 45.6344 23.5027 45.5339 23.7868 45.5753C23.6004 45.6993 23.4228 45.7613 23.3606 45.8765ZM23.6625 42.9528C23.6625 42.5275 23.7868 42.1642 23.849 41.7921C24.1509 42.0402 24.0354 42.6427 23.6625 42.9528ZM24.1065 38.4874C24.2752 38.576 24.4083 38.6203 24.5415 38.7443C24.3995 38.827 24.2544 38.7413 24.1065 38.4874ZM24.8878 41.6769C24.95 41.6149 25.0121 41.6149 25.0121 41.6149C25.0743 41.6769 25.1364 41.801 25.1364 41.8541L25.0743 41.9161C25.0121 41.7921 24.95 41.7301 24.8878 41.6769ZM25.1275 44.964C25.2519 44.7159 25.314 44.4767 25.3762 44.2374C25.3762 44.2374 25.3762 44.2995 25.4383 44.2995C25.2519 44.4855 25.6248 44.7868 25.1364 44.9728L25.1275 44.964ZM25.314 43.8653C25.314 43.8033 25.3762 43.8033 25.3762 43.7413C25.4383 43.8033 25.5005 43.8653 25.6159 43.9273C25.3762 44.0514 25.3762 43.9894 25.314 43.8653ZM26.2285 43.0148H26.1042C26.0421 43.0148 25.9799 43.0148 25.9178 42.9528C25.9178 42.9528 25.9178 42.8907 25.9799 42.8907C26.1042 42.8907 26.1042 42.9528 26.2285 42.9528V43.0148ZM26.6547 43.5021C26.5926 43.5021 26.5304 43.44 26.4061 43.44C26.4683 43.378 26.4683 43.316 26.4683 43.316C26.5926 43.316 26.5926 43.378 26.7169 43.44C26.7169 43.4814 26.6962 43.5021 26.6547 43.5021Z" fill="white"/>
<path id="Vector_15" d="M14.2685 41.9605C12.617 40.4543 10.9566 38.957 9.29623 37.4508C9.08314 37.2559 8.77237 37.0698 8.49712 37.0787C7.94662 37.0787 7.405 37.1053 6.8545 37.1141C6.87226 37.1496 6.88114 37.185 6.88114 37.2116L6.81898 37.2736C6.78347 37.2027 6.75683 37.1584 6.72132 37.123C5.0787 37.1673 3.44496 37.2204 1.80234 37.2736C1.70467 37.2736 1.5626 37.3179 1.45605 37.3445C2.74351 38.5406 4.03985 39.7278 5.33619 40.9239C5.38946 40.9239 5.45162 40.9327 5.54041 40.9505C5.50489 40.977 5.46937 40.9948 5.43386 41.0125C6.78347 42.2529 8.1242 43.5021 9.47381 44.7425C6.92553 47.4714 4.37725 50.1913 1.83785 52.9291C2.01543 52.9556 2.34396 53.0177 2.50378 53.0088C4.68802 52.9468 6.82786 52.8759 8.99435 52.7873C9.24296 52.7784 9.53597 52.6898 9.69579 52.5215C11.8356 50.2711 13.9044 47.9852 15.9821 45.6905C15.849 45.6019 15.7602 45.407 15.7779 45.2209C15.9022 45.345 15.9821 45.469 16.062 45.6019C16.142 45.5133 16.2308 45.4159 16.3107 45.3273C16.2751 45.2652 16.2485 45.2032 16.2041 45.1323C16.3018 45.088 16.3728 45.0615 16.4172 45.1589C16.4172 45.1678 16.4261 45.1855 16.435 45.1944C16.577 45.0349 16.7191 44.8754 16.87 44.7159C16.9322 44.6539 16.9588 44.583 17.0032 44.5121C16.0887 43.6616 15.1919 42.811 14.2685 41.9693V41.9605ZM4.51044 37.5748C4.57259 37.3268 4.6969 37.2116 4.93663 37.2736C4.87448 37.4597 4.81233 37.6368 4.75017 37.8849C4.56371 37.8229 4.44829 37.7609 4.50156 37.5837L4.51044 37.5748ZM4.1464 39.0367C4.20855 38.7355 4.6969 38.4254 5.12309 38.3634V38.6114C5.06094 38.6735 5.06094 38.7355 5.06094 38.7975C4.75905 38.9836 4.44829 39.1608 4.08425 39.4709C4.08425 39.2228 4.08425 39.1076 4.1464 39.0456V39.0367ZM4.63475 40.0733C4.6969 39.8873 4.8212 39.7101 4.93663 39.462C5.06094 39.7632 5.12309 39.8873 5.18525 40.0733C5.06094 40.3214 4.88336 40.2594 4.63475 40.0733ZM5.43386 38.3013C5.43386 37.8761 5.55816 37.5039 5.62032 37.1407C5.9222 37.3888 5.80678 38.0001 5.43386 38.3013ZM7.27181 38.1153C7.20966 37.9292 7.14751 37.814 7.14751 37.628C7.31325 37.6693 7.35469 37.8318 7.27181 38.1153ZM6.90778 40.3125C7.03208 40.0645 7.09424 39.8252 7.15639 39.5772C7.15639 39.5772 7.15639 39.6392 7.21854 39.6392C7.03208 39.8252 7.405 40.1265 6.90778 40.3125ZM7.09423 39.2139C7.09423 39.1519 7.15639 39.1519 7.15639 39.0899C7.21854 39.1519 7.28069 39.2139 7.405 39.2759C7.15639 39.4 7.15639 39.338 7.10311 39.2139H7.09423ZM8.00877 38.3634H7.88447C7.82231 38.3634 7.76016 38.3634 7.69801 38.3013C7.69801 38.3013 7.69801 38.2393 7.76016 38.2393C7.88447 38.2393 7.88447 38.3013 8.00877 38.3013V38.3634ZM8.43497 38.8507C8.37281 38.8507 8.31066 38.7886 8.18636 38.7886C8.24851 38.7266 8.24851 38.6646 8.24851 38.6646C8.37281 38.6646 8.37281 38.7266 8.49712 38.7886C8.49712 38.83 8.4764 38.8507 8.43497 38.8507ZM14.7657 43.9451C14.8604 44.0396 14.8456 44.1341 14.7213 44.2286C14.748 44.1134 14.7923 44.016 14.7657 43.9451ZM14.4106 46.1955C14.4106 46.1955 14.3839 46.1689 14.4106 46.1512C14.4372 46.1335 14.4816 46.1246 14.526 46.0803C14.526 46.1246 14.5526 46.1512 14.5526 46.1512C14.5082 46.1955 14.4816 46.1778 14.4106 46.1955ZM14.5793 45.3627C14.5793 45.2209 14.3218 45.2475 14.4372 44.9817C14.4816 45.1235 14.5526 45.2387 14.6236 45.3627C14.6236 45.3627 14.597 45.3361 14.5793 45.3627ZM14.7923 45.4779C14.7923 45.4779 14.7923 45.5222 14.819 45.5488C14.7746 45.5488 14.7213 45.5488 14.6503 45.5753C14.6947 45.4336 14.7213 45.4602 14.7923 45.4779ZM14.9078 46.1158C14.8634 46.1601 14.8367 46.1424 14.7923 46.1867L14.7657 46.1601L14.8101 46.1158C14.8101 46.1158 14.8545 46.0715 14.9078 46.0715C14.9078 46.0715 14.9344 46.0981 14.9078 46.1158ZM15.1475 45.974C15.2452 46.0183 15.3162 46.0449 15.3872 46.1158C15.3103 46.163 15.2304 46.1158 15.1475 45.974ZM15.1919 44.4058C15.1475 44.2641 15.2363 44.2198 15.405 44.1932C15.4494 44.2906 15.476 44.4058 15.5204 44.5476C15.3517 44.4767 15.2807 44.4501 15.183 44.4058H15.1919ZM15.8845 45.0437C15.8845 45.0437 15.8134 44.9729 15.7868 44.9463C15.7868 44.902 15.7602 44.8754 15.7424 44.8488C15.7868 44.6628 15.8401 44.4678 15.8578 44.2109C15.9555 44.3084 15.9999 44.3527 15.9999 44.397C16.0976 44.5387 16.0265 44.8488 15.8845 45.0349V45.0437Z" fill="black"/>
<path id="Vector_16" d="M91.374 35.8472C91.5871 35.8649 91.7913 35.8737 92.0044 35.9092C94.0022 36.2104 96.0177 36.4939 98.0155 36.7863C98.5039 36.8572 98.8235 37.061 99.1076 37.4508C101.097 40.1088 103.085 42.7845 105.074 45.4513C105.163 45.5665 105.216 45.6994 105.287 45.8234C102.402 47.9675 99.5427 50.1205 96.6304 52.2469C96.4262 52.3975 96.0888 52.4241 95.8224 52.3886C93.7181 52.1051 91.6404 51.7862 89.5361 51.4761C89.3674 51.4495 89.1099 51.3609 88.9412 51.3166C91.9156 49.1193 94.899 46.9221 97.8735 44.7248C95.707 41.7656 93.5405 38.8152 91.374 35.856V35.8472Z" fill="black"/>
</g>
</g>
<path id="Vector_17" d="M119.565 44.8579C119.565 44.8579 119.565 44.8667 119.574 44.8756C119.742 44.2288 119.609 43.52 119.148 42.9707C117.514 41.0304 114.468 37.4953 112.692 35.6258C112.479 35.4043 112.195 35.236 111.92 35.2183C109.682 35.1385 107.507 35.1297 105.278 35.0942C105.172 35.0942 105.012 35.1297 104.897 35.1474C107.427 37.8319 109.967 40.5165 112.488 43.2188C109.745 45.7793 107.01 48.3575 104.311 50.9712C104.488 50.9978 104.763 51.0598 104.923 51.0687C107.063 51.1218 109.159 51.1927 111.281 51.2459C111.565 51.2459 111.902 51.1484 112.106 50.9712C113.927 49.3764 117.052 47.4981 118.863 45.9831C119.183 45.7173 119.396 45.3806 119.52 45.0173C119.529 44.9642 119.547 44.911 119.556 44.8579H119.565ZM111.734 47.7019C111.618 47.6576 111.538 47.6222 111.574 47.507C111.609 47.3475 111.689 47.2678 111.849 47.3121C111.813 47.4272 111.769 47.5513 111.734 47.7108V47.7019ZM111.973 49.8903C111.973 49.7308 112.065 49.6658 112.249 49.6954C112.124 49.7751 112.009 49.8106 111.973 49.8903ZM113.092 47.3032C113.057 47.2235 113.012 47.188 112.977 47.1437C113.012 47.1083 113.057 47.1083 113.057 47.1083C113.092 47.1437 113.136 47.2235 113.136 47.2678L113.101 47.3032H113.092ZM113.367 40.9241C113.332 40.8089 113.287 40.7291 113.287 40.6051C113.394 40.6346 113.421 40.741 113.367 40.9241ZM113.847 48.0209H113.767C113.767 48.0209 113.687 48.0209 113.651 47.9766C113.651 47.9766 113.651 47.9411 113.687 47.9411C113.767 47.9411 113.767 47.9766 113.847 47.9766V48.0209ZM114.122 48.3398C114.122 48.3398 114.042 48.2955 113.962 48.2955C113.998 48.2601 113.998 48.2158 113.998 48.2158C114.078 48.2158 114.078 48.2512 114.158 48.2955C114.158 48.2955 114.146 48.3103 114.122 48.3398ZM115.427 44.1225C115.463 44.0073 115.543 43.8833 115.623 43.7238C115.702 43.9187 115.747 43.9984 115.782 44.1225C115.702 44.282 115.587 44.2377 115.427 44.1225ZM116.102 41.243C116.102 41.243 116.066 41.3228 116.066 41.3582C115.871 41.4734 115.667 41.5974 115.427 41.7923C115.427 41.6329 115.427 41.5531 115.463 41.5177C115.498 41.3228 115.818 41.119 116.102 41.0835V41.243ZM116.306 46.1248C116.306 46.1248 116.342 46.0894 116.342 46.0451C116.377 46.0894 116.422 46.1248 116.502 46.1603C116.342 46.24 116.342 46.2046 116.306 46.1248ZM117.727 43.1213C117.807 42.9618 117.851 42.8024 117.887 42.6429C117.887 42.6429 117.887 42.6872 117.922 42.6872C117.807 42.8024 118.038 43.0061 117.727 43.1213Z" fill="white"/>
<path id="Vector_18" d="M119.005 47.2057C119.103 47.2765 119.192 47.3031 119.325 47.3563C119.225 47.2086 119.118 47.1584 119.005 47.2057Z" fill="white"/>
<path id="Vector_19" d="M127.725 31.5855C127.609 31.0805 127.085 30.7615 126.526 30.6818L126.366 30.6552C124.244 30.3362 122.273 31.8424 122.024 33.9688C121.5 38.3988 120.737 44.6184 120.222 48.8978C119.982 50.8469 121.394 52.6189 123.356 52.8316C123.969 52.9024 124.697 52.6189 124.821 52.0164C125.975 46.3993 128.923 36.6711 127.725 31.5766V31.5855ZM121.696 46.7094C121.571 46.6119 121.509 46.5587 121.509 46.5144C121.385 46.3638 121.492 46.0626 121.687 45.8765C121.722 45.9031 121.785 45.9474 121.811 45.974C121.811 46.0183 121.838 46.0449 121.873 46.0714C121.802 46.2575 121.74 46.4524 121.696 46.7094ZM123.054 52.4683C122.957 52.3443 122.965 52.2557 123.125 52.1848C123.187 52.2822 123.25 52.3797 123.338 52.5037C123.205 52.548 123.116 52.5658 123.054 52.4683ZM123.321 32.6575C123.196 32.5601 123.134 32.5069 123.134 32.4626C123.01 32.312 123.116 32.0108 123.312 31.8247C123.347 31.8513 123.409 31.8956 123.436 31.9222C123.436 31.9665 123.463 31.993 123.498 32.0196C123.427 32.2057 123.365 32.4006 123.321 32.6575ZM123.534 48.1447C123.472 48.0472 123.445 47.932 123.383 47.7814C123.605 47.8611 123.702 47.8877 123.827 47.9409C123.889 48.0826 123.756 48.1269 123.534 48.1447ZM124.138 51.4671C124.04 51.4406 123.978 51.4406 123.916 51.4406C123.916 51.3963 123.951 51.3697 123.951 51.3697C124.013 51.3697 124.111 51.3963 124.146 51.4228V51.4671H124.138ZM124.617 46.1955C124.555 46.0537 124.466 45.9297 124.368 45.8056C124.368 45.8056 124.404 45.8322 124.431 45.8056C124.431 45.9474 124.777 45.9385 124.617 46.1955ZM124.679 38.4165C124.581 38.2924 124.59 38.2038 124.75 38.133C124.812 38.2304 124.874 38.3279 124.963 38.4519C124.83 38.4962 124.741 38.5139 124.679 38.4165ZM125.159 34.1017C125.096 34.0042 125.07 33.8891 125.008 33.7384C125.23 33.8182 125.327 33.8448 125.452 33.8979C125.514 34.0397 125.381 34.084 125.159 34.1017ZM125.762 37.4242C125.665 37.3976 125.603 37.3976 125.54 37.3976C125.54 37.3533 125.576 37.3267 125.576 37.3267C125.638 37.3267 125.736 37.3533 125.771 37.3799V37.4242H125.762ZM126.242 32.1525C126.18 32.0108 126.091 31.8867 125.993 31.7627C125.993 31.7627 126.029 31.7893 126.055 31.7627C126.055 31.9044 126.402 31.8956 126.242 32.1525ZM126.757 37.4773C126.819 37.433 126.854 37.4596 126.917 37.4065L126.952 37.433L126.89 37.4773C126.854 37.5039 126.828 37.5216 126.757 37.5216C126.757 37.5216 126.721 37.495 126.757 37.4773ZM126.899 39.6746C126.775 39.5742 126.798 39.4797 126.97 39.3911C126.934 39.5062 126.872 39.6037 126.899 39.6746ZM127.432 37.4685C127.432 37.4685 127.334 37.4862 127.272 37.5393C127.272 37.495 127.245 37.4685 127.245 37.4685C127.307 37.4242 127.343 37.4508 127.441 37.4242C127.441 37.4242 127.441 37.4389 127.441 37.4685H127.432ZM127.458 34.8371C127.458 34.8371 127.458 34.7928 127.432 34.7662C127.494 34.7662 127.556 34.7662 127.654 34.7485C127.583 34.8902 127.556 34.8637 127.458 34.8371Z" fill="white"/>
<path id="Vector_20" d="M87.3961 36.1395C87.3961 36.1395 87.4849 36.2281 87.4849 36.3078L87.6536 36.4762C87.9111 36.1306 88.0443 35.5724 87.8667 35.3155C87.8667 35.2269 87.7779 35.1472 87.6092 34.97C87.5648 35.4395 87.476 35.7851 87.3961 36.1306V36.1395Z" fill="white"/>
<path id="Vector_21" d="M88.5593 37.1318C88.7724 36.9989 88.7724 36.8306 88.6481 36.6179C88.5593 36.4407 88.435 36.485 88.2574 36.5736C88.3906 36.7863 88.4705 36.9635 88.5593 37.1318Z" fill="white"/>
<path id="Vector_22" d="M86.7924 34.9346C86.4905 34.9789 86.3218 35.0675 86.4017 35.3244C86.5704 35.413 86.7036 35.4573 87.0055 35.5813C86.9167 35.3244 86.8723 35.1118 86.7924 34.9346Z" fill="white"/>
<path id="Vector_23" d="M85.6293 34.4651C85.6737 34.598 85.5849 34.7663 85.5405 34.979C85.7714 34.8077 85.801 34.6364 85.6293 34.4651Z" fill="white"/>
<path id="Vector_24" d="M88.1686 37.6902C87.9555 37.389 87.7779 37.0434 87.476 36.7422C87.4316 37.2118 87.7779 37.7345 88.1686 37.6902Z" fill="white"/>
<path id="Vector_25" d="M87.5205 38.514C87.4317 38.514 87.3518 38.514 87.2186 38.4697V38.5583C87.2186 38.5583 87.3873 38.6469 87.4761 38.6469C87.4761 38.6469 87.5205 38.6026 87.5205 38.514Z" fill="white"/>
<path id="Vector_26" d="M85.3628 37.0434C85.2297 36.8307 85.1054 36.6092 85.0166 36.3523C84.8035 36.8219 85.2741 36.7864 85.2741 37.0434C85.3184 36.9991 85.3628 37.0434 85.3628 37.0434Z" fill="white"/>
<path id="Vector_27" d="M85.6647 37.2649C85.5315 37.2206 85.496 37.1763 85.4072 37.4333C85.5404 37.389 85.6203 37.389 85.7091 37.389C85.6647 37.3447 85.7091 37.3004 85.6647 37.2561V37.2649Z" fill="white"/>
<path id="Vector_28" d="M86.7481 38.4254C86.6149 38.2925 86.4906 38.2571 86.313 38.1685C86.4551 38.4284 86.6001 38.514 86.7481 38.4254Z" fill="white"/>
<path id="Vector_29" d="M71.6359 42.7313C70.162 41.2074 68.7502 39.7101 67.3207 38.1685V38.2836C67.2585 38.3456 67.2585 38.4077 67.2585 38.4697C66.9566 38.6557 66.6459 38.8329 66.2818 39.143C66.2818 38.895 66.2818 38.7798 66.344 38.7178C66.3973 38.4342 66.8146 38.1685 67.2141 38.071C67.0365 37.9115 66.8146 37.7875 66.6104 37.7786C64.5415 37.7343 62.5349 37.6723 60.4838 37.4331C60.395 37.4242 60.2619 37.4419 60.1642 37.4508C62.1176 40.2328 64.2308 42.6959 66.6281 45.1058C63.7069 47.6929 60.8567 50.3154 57.7668 52.6898C57.9622 52.743 58.3173 52.8316 58.4861 52.8493C60.8568 52.9911 63.1831 52.9291 65.5271 52.9734C65.7935 52.9734 66.0865 52.9113 66.2552 52.7519C68.8656 50.3686 71.4228 47.9764 74.0066 45.5931C74.0687 45.531 74.1043 45.4779 74.1487 45.407C73.3318 44.5299 72.4528 43.5907 71.627 42.7402L71.6359 42.7313ZM66.8323 39.7455C66.8945 39.5595 67.0188 39.3823 67.1342 39.1342C67.2585 39.4354 67.3207 39.5595 67.3828 39.7455C67.2585 39.9936 67.0809 39.9316 66.8323 39.7455ZM67.3207 40.9062C67.3207 40.664 67.4627 40.5636 67.7469 40.6049C67.5604 40.729 67.3828 40.791 67.3207 40.9062Z" fill="black"/>
<path id="Vector_30" d="M87.7336 42.3327C87.7336 42.3327 87.7159 42.4036 87.6981 42.4479C87.6715 42.3682 87.6449 42.2973 87.6271 42.2264C86.1088 40.8088 84.5993 39.3824 83.1343 37.9471C82.0244 36.8573 80.9412 36.4586 79.4051 36.5649C77.869 36.6712 76.3596 36.7155 74.8147 36.7333C74.5927 36.7333 74.3263 36.751 74.0955 36.7598C76.768 39.2761 79.4406 41.7923 82.1221 44.3085C79.5649 47.0107 76.99 49.713 74.4329 52.4153C74.6193 52.4419 74.9478 52.495 75.1165 52.495C77.283 52.433 79.3874 52.3799 81.5361 52.2824C81.8202 52.2735 82.1487 52.1406 82.3441 51.9369C84.7503 49.4295 87.1121 46.9222 89.4917 44.3971C89.5538 44.3351 89.616 44.2287 89.6781 44.149C89.03 43.5465 88.3818 42.9441 87.7336 42.3327ZM84.9545 41.9074C85.0167 41.6682 85.141 41.5442 85.3807 41.6062C85.3185 41.7923 85.2564 41.9695 85.1942 42.2175C85.0078 42.1555 84.8924 42.0935 84.9545 41.9163V41.9074ZM84.5905 43.3693C84.6526 43.0681 85.141 42.758 85.5672 42.696V42.9352C85.505 42.9972 85.505 43.0592 85.505 43.1212C85.2031 43.3073 84.8924 43.4845 84.5283 43.7946C84.5283 43.5554 84.5283 43.4313 84.5905 43.3693ZM85.0788 44.4059C85.141 44.2199 85.2653 44.0427 85.3807 43.7946C85.505 44.0958 85.5672 44.2199 85.6293 44.4059C85.505 44.654 85.3274 44.592 85.0788 44.4059ZM85.5672 45.5666C85.5672 45.3244 85.7092 45.224 85.9934 45.2653C85.8069 45.3894 85.6293 45.4514 85.5672 45.5666ZM85.869 42.6428C85.869 42.2175 85.9934 41.8543 86.0555 41.4822C86.3574 41.7302 86.242 42.3327 85.869 42.6428ZM87.3341 44.654C87.4584 44.4059 87.5205 44.1667 87.5827 43.9275C87.5827 43.9275 87.5827 43.9895 87.6448 43.9895C87.4584 44.1756 87.8313 44.4768 87.343 44.6629L87.3341 44.654ZM87.5205 43.5554C87.5205 43.4934 87.5827 43.4934 87.5827 43.4313C87.6448 43.4934 87.707 43.5554 87.8224 43.6174C87.5827 43.7414 87.5827 43.6794 87.5205 43.5554Z" fill="white"/>
</g>
</g>
</svg>
